<svg width="114" height="49" viewBox="0 0 114 49" fill="none" xmlns="http://www.w3.org/2000/svg">
<path d="M50.7428 19.6534H48.7506C48.6938 19.3267 48.589 19.0373 48.4363 18.7851C48.2836 18.5294 48.0937 18.3128 47.8664 18.1353C47.6391 17.9577 47.3799 17.8245 47.0887 17.7358C46.801 17.6434 46.4903 17.5973 46.1565 17.5973C45.5635 17.5973 45.0379 17.7464 44.5798 18.0447C44.1217 18.3395 43.7631 18.7727 43.5038 19.3444C43.2446 19.9126 43.115 20.6069 43.115 21.4272C43.115 22.2617 43.2446 22.9648 43.5038 23.5365C43.7666 24.1047 44.1253 24.5344 44.5798 24.8256C45.0379 25.1132 45.5617 25.2571 46.1512 25.2571C46.4779 25.2571 46.7833 25.2145 47.0674 25.1292C47.355 25.0404 47.6125 24.9108 47.8398 24.7404C48.0706 24.5699 48.2641 24.3604 48.4204 24.1118C48.5802 23.8632 48.6903 23.5792 48.7506 23.2596L50.7428 23.2702C50.6682 23.7887 50.5067 24.2752 50.2581 24.7297C50.0131 25.1843 49.6917 25.5855 49.2939 25.9336C48.8962 26.278 48.431 26.5479 47.8983 26.7432C47.3657 26.935 46.7744 27.0309 46.1246 27.0309C45.1657 27.0309 44.3099 26.8089 43.5571 26.365C42.8042 25.9211 42.2112 25.2802 41.778 24.4421C41.3447 23.604 41.1281 22.599 41.1281 21.4272C41.1281 20.2517 41.3465 19.2468 41.7833 18.4123C42.2201 17.5742 42.8149 16.9332 43.5677 16.4893C44.3206 16.0454 45.1729 15.8235 46.1246 15.8235C46.7318 15.8235 47.2964 15.9087 47.8184 16.0792C48.3405 16.2496 48.8057 16.5 49.214 16.8302C49.6224 17.1569 49.958 17.5582 50.2208 18.0341C50.4871 18.5064 50.6611 19.0461 50.7428 19.6534ZM62.3004 21.4272C62.3004 22.6026 62.0803 23.6093 61.6399 24.4474C61.2031 25.2819 60.6065 25.9211 59.8501 26.365C59.0973 26.8089 58.2433 27.0309 57.288 27.0309C56.3327 27.0309 55.4769 26.8089 54.7205 26.365C53.9677 25.9176 53.3711 25.2766 52.9308 24.4421C52.494 23.604 52.2756 22.599 52.2756 21.4272C52.2756 20.2517 52.494 19.2468 52.9308 18.4123C53.3711 17.5742 53.9677 16.9332 54.7205 16.4893C55.4769 16.0454 56.3327 15.8235 57.288 15.8235C58.2433 15.8235 59.0973 16.0454 59.8501 16.4893C60.6065 16.9332 61.2031 17.5742 61.6399 18.4123C62.0803 19.2468 62.3004 20.2517 62.3004 21.4272ZM60.3136 21.4272C60.3136 20.5998 60.1839 19.902 59.9247 19.3338C59.669 18.762 59.3139 18.3306 58.8594 18.0394C58.4048 17.7446 57.881 17.5973 57.288 17.5973C56.695 17.5973 56.1712 17.7446 55.7166 18.0394C55.2621 18.3306 54.9052 18.762 54.646 19.3338C54.3903 19.902 54.2624 20.5998 54.2624 21.4272C54.2624 22.2546 54.3903 22.9542 54.646 23.5259C54.9052 24.0941 55.2621 24.5255 55.7166 24.8203C56.1712 25.1115 56.695 25.2571 57.288 25.2571C57.881 25.2571 58.4048 25.1115 58.8594 24.8203C59.3139 24.5255 59.669 24.0941 59.9247 23.5259C60.1839 22.9542 60.3136 22.2546 60.3136 21.4272ZM64.1688 26.8817V15.9726H71.1574V17.6292H66.145V20.5909H70.678V22.2475H66.145V26.8817H64.1688ZM72.9578 26.8817V15.9726H79.9465V17.6292H74.934V20.5909H79.4671V22.2475H74.934V26.8817H72.9578ZM81.7469 26.8817V15.9726H88.8421V17.6292H83.7231V20.5909H88.4745V22.2475H83.7231V25.2251H88.8847V26.8817H81.7469ZM90.8582 26.8817V15.9726H97.9534V17.6292H92.8344V20.5909H97.5858V22.2475H92.8344V25.2251H97.996V26.8817H90.8582ZM47.3337 36.9716C47.284 36.5064 47.0745 36.1441 46.7052 35.8849C46.3394 35.6257 45.8635 35.4961 45.2776 35.4961C44.8657 35.4961 44.5123 35.5582 44.2176 35.6825C43.9229 35.8068 43.6974 35.9755 43.5411 36.1885C43.3849 36.4016 43.305 36.6449 43.3014 36.9183C43.3014 37.1456 43.3529 37.3427 43.4559 37.5096C43.5624 37.6765 43.7062 37.8185 43.8873 37.9357C44.0684 38.0493 44.2691 38.1452 44.4893 38.2233C44.7094 38.3015 44.9314 38.3672 45.1551 38.4204L46.1778 38.6761C46.5898 38.772 46.9857 38.9016 47.3657 39.065C47.7492 39.2283 48.0919 39.4343 48.3937 39.6829C48.6991 39.9314 48.9406 40.2315 49.1182 40.5831C49.2957 40.9346 49.3845 41.3466 49.3845 41.8189C49.3845 42.4581 49.2211 43.0209 48.8944 43.5074C48.5677 43.9904 48.0954 44.3686 47.4775 44.642C46.8632 44.9119 46.1192 45.0468 45.2457 45.0468C44.3969 45.0468 43.6601 44.9154 43.0351 44.6527C42.4136 44.3899 41.9271 44.0064 41.5756 43.5021C41.2275 42.9978 41.0393 42.3835 41.0109 41.6591H42.9552C42.9836 42.039 43.1008 42.3551 43.3067 42.6072C43.5127 42.8593 43.7808 43.0476 44.1111 43.1718C44.4449 43.2961 44.8177 43.3583 45.2297 43.3583C45.6594 43.3583 46.0358 43.2944 46.3589 43.1665C46.6856 43.0351 46.9413 42.854 47.126 42.6232C47.3106 42.3888 47.4047 42.1154 47.4083 41.8029C47.4047 41.5188 47.3213 41.2844 47.1579 41.0998C46.9946 40.9115 46.7655 40.7553 46.4708 40.631C46.1796 40.5032 45.8387 40.3895 45.4481 40.2901L44.2069 39.9705C43.3085 39.7397 42.5983 39.3899 42.0763 38.9211C41.5578 38.4488 41.2986 37.8221 41.2986 37.0408C41.2986 36.398 41.4726 35.8352 41.8206 35.3522C42.1721 34.8693 42.6498 34.4946 43.2535 34.2283C43.8572 33.9584 44.5407 33.8235 45.3042 33.8235C46.0784 33.8235 46.7567 33.9584 47.339 34.2283C47.925 34.4946 48.3849 34.8657 48.7187 35.3416C49.0525 35.8139 49.2247 36.3572 49.2354 36.9716H47.3337ZM58.0231 33.9726H59.9993V41.0998C59.9993 41.881 59.8146 42.5681 59.4453 43.1612C59.0795 43.7542 58.5646 44.2177 57.9006 44.5515C57.2365 44.8817 56.4606 45.0468 55.5728 45.0468C54.6815 45.0468 53.9038 44.8817 53.2397 44.5515C52.5756 44.2177 52.0607 43.7542 51.695 43.1612C51.3292 42.5681 51.1463 41.881 51.1463 41.0998V33.9726H53.1225V40.9346C53.1225 41.3892 53.2219 41.794 53.4208 42.1491C53.6232 42.5042 53.9073 42.783 54.2731 42.9854C54.6388 43.1843 55.0721 43.2837 55.5728 43.2837C56.0735 43.2837 56.5067 43.1843 56.8725 42.9854C57.2418 42.783 57.5259 42.5042 57.7248 42.1491C57.9237 41.794 58.0231 41.3892 58.0231 40.9346V33.9726ZM62.1473 44.8817V33.9726H66.2382C67.0763 33.9726 67.7794 34.1182 68.3476 34.4094C68.9193 34.7006 69.3508 35.109 69.642 35.6346C69.9367 36.1566 70.0841 36.7656 70.0841 37.4616C70.0841 38.1612 69.9349 38.7684 69.6366 39.2833C69.3419 39.7947 68.9069 40.1907 68.3316 40.4712C67.7563 40.7482 67.0496 40.8867 66.2116 40.8867H63.2979V39.2461H65.9452C66.4353 39.2461 66.8366 39.1786 67.1491 39.0436C67.4616 38.9052 67.6924 38.7045 67.8415 38.4417C67.9942 38.1754 68.0706 37.8487 68.0706 37.4616C68.0706 37.0745 67.9942 36.7443 67.8415 36.4708C67.6888 36.1939 67.4562 35.9843 67.1437 35.8423C66.8312 35.6967 66.4282 35.6239 65.9346 35.6239H64.1235V44.8817H62.1473ZM67.7829 39.9385L70.4836 44.8817H68.2783L65.6256 39.9385H67.7829ZM71.9031 44.8817V33.9726H75.9941C76.8321 33.9726 77.5352 34.1289 78.1034 34.4414C78.6752 34.7539 79.1066 35.1836 79.3978 35.7304C79.6926 36.2738 79.8399 36.8917 79.8399 37.5841C79.8399 38.2837 79.6926 38.9052 79.3978 39.4485C79.1031 39.9918 78.6681 40.4197 78.0928 40.7322C77.5175 41.0412 76.809 41.1956 75.9674 41.1956H73.2561V39.571H75.7011C76.1911 39.571 76.5924 39.4858 76.9049 39.3153C77.2174 39.1449 77.4482 38.9105 77.5974 38.6122C77.7501 38.3139 77.8264 37.9712 77.8264 37.5841C77.8264 37.1971 77.7501 36.8561 77.5974 36.5614C77.4482 36.2667 77.2156 36.0376 76.8996 35.8743C76.5871 35.7074 76.184 35.6239 75.6904 35.6239H73.8794V44.8817H71.9031ZM81.5565 44.8817V33.9726H85.6474C86.4854 33.9726 87.1886 34.1182 87.7567 34.4094C88.3285 34.7006 88.7599 35.109 89.0511 35.6346C89.3459 36.1566 89.4933 36.7656 89.4933 37.4616C89.4933 38.1612 89.3441 38.7684 89.0458 39.2833C88.7511 39.7947 88.3161 40.1907 87.7408 40.4712C87.1655 40.7482 86.4588 40.8867 85.6207 40.8867H82.707V39.2461H85.3544C85.8445 39.2461 86.2457 39.1786 86.5582 39.0436C86.8707 38.9052 87.1016 38.7045 87.2507 38.4417C87.4034 38.1754 87.4798 37.8487 87.4798 37.4616C87.4798 37.0745 87.4034 36.7443 87.2507 36.4708C87.098 36.1939 86.8654 35.9843 86.5529 35.8423C86.2404 35.6967 85.8374 35.6239 85.3438 35.6239H83.5327V44.8817H81.5565ZM87.1921 39.9385L89.8928 44.8817H87.6875L85.0348 39.9385H87.1921ZM93.2885 33.9726V44.8817H91.3123V33.9726H93.2885ZM101.357 36.9716C101.307 36.5064 101.098 36.1441 100.729 35.8849C100.363 35.6257 99.887 35.4961 99.301 35.4961C98.8891 35.4961 98.5358 35.5582 98.241 35.6825C97.9463 35.8068 97.7208 35.9755 97.5645 36.1885C97.4083 36.4016 97.3284 36.6449 97.3248 36.9183C97.3248 37.1456 97.3763 37.3427 97.4793 37.5096C97.5858 37.6765 97.7297 37.8185 97.9108 37.9357C98.0919 38.0493 98.2925 38.1452 98.5127 38.2233C98.7329 38.3015 98.9548 38.3672 99.1785 38.4204L100.201 38.6761C100.613 38.772 101.009 38.9016 101.389 39.065C101.773 39.2283 102.115 39.4343 102.417 39.6829C102.723 39.9314 102.964 40.2315 103.142 40.5831C103.319 40.9346 103.408 41.3466 103.408 41.8189C103.408 42.4581 103.245 43.0209 102.918 43.5074C102.591 43.9904 102.119 44.3686 101.501 44.642C100.887 44.9119 100.143 45.0468 99.2691 45.0468C98.4204 45.0468 97.6835 44.9154 97.0585 44.6527C96.4371 44.3899 95.9506 44.0064 95.599 43.5021C95.251 42.9978 95.0628 42.3835 95.0344 41.6591H96.9786C97.007 42.039 97.1242 42.3551 97.3302 42.6072C97.5361 42.8593 97.8042 43.0476 98.1345 43.1718C98.4683 43.2961 98.8412 43.3583 99.2531 43.3583C99.6828 43.3583 100.059 43.2944 100.382 43.1665C100.709 43.0351 100.965 42.854 101.149 42.6232C101.334 42.3888 101.428 42.1154 101.432 41.8029C101.428 41.5188 101.345 41.2844 101.181 41.0998C101.018 40.9115 100.789 40.7553 100.494 40.631C100.203 40.5032 99.8621 40.3895 99.4715 40.2901L98.2304 39.9705C97.3319 39.7397 96.6217 39.3899 96.0997 38.9211C95.5812 38.4488 95.322 37.8221 95.322 37.0408C95.322 36.398 95.496 35.8352 95.844 35.3522C96.1956 34.8693 96.6732 34.4946 97.2769 34.2283C97.8806 33.9584 98.5642 33.8235 99.3277 33.8235C100.102 33.8235 100.78 33.9584 101.362 34.2283C101.948 34.4946 102.408 34.8657 102.742 35.3416C103.076 35.8139 103.248 36.3572 103.259 36.9716H101.357ZM105.17 44.8817V33.9726H112.265V35.6292H107.146V38.5909H111.897V40.2475H107.146V43.2251H112.308V44.8817H105.17Z" fill="#690000"/>
<path fill-rule="evenodd" clip-rule="evenodd" d="M32.2028 0.914146C32.2701 0.595885 32.0667 0.283335 31.7484 0.216046C31.4301 0.148756 31.1176 0.352209 31.0503 0.67047C30.4216 3.64407 29.03 8.52195 26.9052 13.4513C26.6021 14.1546 26.2845 14.8576 25.9528 15.5552C26.3478 15.6519 26.7026 15.8511 26.9872 16.123C27.3371 15.3894 27.6703 14.6522 27.987 13.9176C30.145 8.91111 31.5593 3.95807 32.2028 0.914146ZM24.9358 20.0157C24.5367 19.932 24.1759 19.7444 23.8829 19.4823C22.3001 22.1812 20.4828 24.6228 18.4418 26.4526C18.2909 26.588 18.1416 26.724 17.9939 26.8608C18.3476 27.0493 18.6459 27.3279 18.8582 27.6661C18.9804 27.5535 19.1037 27.4414 19.2282 27.3297C21.3952 25.3869 23.298 22.8182 24.9358 20.0157ZM15.7756 30.8617C15.4294 30.6613 15.1406 30.3729 14.9398 30.0269L14.8769 30.0999C15.1909 30.3622 15.4335 30.7071 15.5713 31.1012C15.6389 31.0213 15.707 30.9415 15.7756 30.8617ZM6.81348 44.5932C7.36262 42.4195 9.01993 38.2001 12.0918 33.7246C12.4206 33.9573 12.8135 34.1053 13.2388 34.1371C10.1405 38.5809 8.48428 42.789 7.9556 44.8817L6.81348 44.5932Z" fill="#690000"/>
<circle cx="16.9289" cy="28.8886" r="1.69829" stroke="#690000" stroke-width="1.178"/>
<circle cx="13.4191" cy="26.2682" r="1.69829" stroke="#690000" stroke-width="1.178"/>
<circle cx="19.5148" cy="32.7526" r="1.69829" stroke="#690000" stroke-width="1.178"/>
<circle cx="21.8019" cy="27.0676" r="1.69829" stroke="#690000" stroke-width="1.178"/>
<circle cx="13.4191" cy="31.8643" r="1.69829" stroke="#690000" stroke-width="1.178"/>
<circle cx="9.28924" cy="29.8657" r="1.69829" stroke="#690000" stroke-width="1.178"/>
<circle cx="9.28924" cy="34.4402" r="1.69829" stroke="#690000" stroke-width="1.178"/>
<circle cx="4.71503" cy="31.8643" r="1.69829" stroke="#690000" stroke-width="1.178"/>
<circle cx="14.4025" cy="36.4389" r="1.69829" stroke="#690000" stroke-width="1.178"/>
<circle cx="20.0422" cy="37.9933" r="1.69829" stroke="#690000" stroke-width="1.178"/>
<circle cx="25.4162" cy="17.7852" r="1.69829" stroke="#690000" stroke-width="1.178"/>
<circle cx="24.6174" cy="13.2106" r="1.69829" stroke="#690000" stroke-width="1.178"/>
<circle cx="26.9045" cy="9.39099" r="1.69829" stroke="#690000" stroke-width="1.178"/>
<circle cx="21.8019" cy="9.39099" r="1.69829" stroke="#690000" stroke-width="1.178"/>
<circle cx="20.842" cy="16.364" r="1.69829" stroke="#690000" stroke-width="1.178"/>
<circle cx="29.591" cy="15.4979" r="1.69829" stroke="#690000" stroke-width="1.178"/>
<circle cx="29.591" cy="20.4857" r="1.69829" stroke="#690000" stroke-width="1.178"/>
<circle cx="33.9221" cy="17.7852" r="1.69829" stroke="#690000" stroke-width="1.178"/>
<path d="M1.14566 20.6122C1.09059 20.5793 1.0417 20.5591 1 20.5499C1.04796 20.57 1.09653 20.5908 1.14566 20.6122Z" fill="#690000"/>
<path d="M3.10045 24.689L2.52957 24.834L3.10045 24.689ZM1 20.5499L1.12777 19.9749C0.83005 19.9087 0.531066 20.0808 0.438675 20.3714C0.346284 20.6621 0.491048 20.9752 0.772327 21.0931L1 20.5499ZM7.63188 28.3287C6.60363 28.052 4.37829 27.3276 3.67133 24.544L2.52957 24.834C3.40413 28.2775 6.21263 29.1667 7.32583 29.4662L7.63188 28.3287ZM3.67133 24.544C3.31204 23.1293 2.91665 22.1267 2.54093 21.4316C2.17385 20.7526 1.79809 20.316 1.44788 20.1067L0.843431 21.1178C0.927632 21.1681 1.17837 21.3883 1.50464 21.9918C1.82225 22.5794 2.18706 23.4853 2.52957 24.834L3.67133 24.544ZM1.44788 20.1067C1.35507 20.0512 1.24712 20.0014 1.12777 19.9749L0.872228 21.1248C0.852952 21.1206 0.841305 21.1159 0.837853 21.1144C0.834183 21.1129 0.836047 21.1133 0.843431 21.1178L1.44788 20.1067ZM0.772327 21.0931C0.817512 21.112 0.863389 21.1317 0.909927 21.152L1.38139 20.0724C1.32967 20.0499 1.27842 20.0279 1.22767 20.0066L0.772327 21.0931ZM0.909927 21.152C2.261 21.742 4.08573 22.8745 5.58484 24.1723C6.33312 24.8201 6.98376 25.495 7.45139 26.1482C7.92535 26.8103 8.17417 27.3987 8.20148 27.8821L9.37761 27.8157C9.33222 27.0121 8.94164 26.2062 8.40927 25.4625C7.87057 24.71 7.14795 23.9674 6.35586 23.2817C4.77422 21.9125 2.8497 20.7137 1.38139 20.0724L0.909927 21.152Z" fill="#690000"/>
<path d="M30.7 30.6243L30.4755 31.1688L30.7 30.6243ZM35.6474 31.5738L36.144 31.8904C36.2837 31.6712 36.2633 31.3865 36.0937 31.1895C35.9242 30.9925 35.6456 30.93 35.4081 31.0355L35.6474 31.5738ZM29.0009 35.4717L28.9635 34.8839L28.9635 34.8839L29.0009 35.4717ZM21.5381 32.1147C22.4959 31.7018 23.9152 31.1231 25.5157 30.8209C27.1168 30.5185 28.8566 30.5013 30.4755 31.1688L30.9245 30.0797C29.0214 29.295 27.0299 29.3361 25.2971 29.6633C23.5636 29.9907 22.0463 30.6128 21.0718 31.0329L21.5381 32.1147ZM30.4755 31.1688C31.9602 31.781 33.1333 32.0842 34.0109 32.2054C34.4495 32.266 34.8203 32.2819 35.1232 32.2659C35.4153 32.2504 35.6807 32.2035 35.8866 32.112L35.4081 31.0355C35.3891 31.044 35.2858 31.0776 35.0609 31.0896C34.8466 31.1009 34.5519 31.091 34.1721 31.0385C33.4128 30.9337 32.3371 30.6622 30.9245 30.0797L30.4755 31.1688ZM35.1507 31.2571C34.7766 31.844 33.967 32.7129 32.8615 33.4587C31.7603 34.2016 30.4106 34.7918 28.9635 34.8839L29.0383 36.0595C30.752 35.9504 32.3008 35.258 33.5202 34.4353C34.7353 33.6156 35.6686 32.6362 36.144 31.8904L35.1507 31.2571ZM28.9635 34.8839C26.9387 35.0128 25.6317 34.9643 24.5374 34.7457C23.4482 34.5282 22.5352 34.1356 21.294 33.5198L20.7705 34.5751C22.0346 35.2023 23.0606 35.652 24.3067 35.9009C25.5477 36.1488 26.9723 36.191 29.0383 36.0595L28.9635 34.8839Z" fill="#690000"/>
<path d="M6.3877 5.22586L6.73709 4.75168C6.48863 4.5686 6.14099 4.60836 5.94028 4.84279C5.73956 5.07722 5.75384 5.42684 5.973 5.64413L6.3877 5.22586ZM21.3406 6.91742C19.9608 5.86712 16.2329 3.95423 12.1854 4.64526L12.3837 5.80646C15.9963 5.18966 19.3991 6.91999 20.6271 7.85477L21.3406 6.91742ZM12.1854 4.64526C10.3011 4.96698 8.96376 5.02998 8.06807 4.98499C7.61998 4.96248 7.29005 4.91331 7.0616 4.85947C6.81701 4.80182 6.73371 4.74919 6.73709 4.75168L6.0383 5.70004C6.22657 5.83876 6.49406 5.93598 6.79136 6.00605C7.10479 6.07993 7.50783 6.13634 8.00898 6.16151C9.01177 6.21188 10.438 6.13865 12.3837 5.80646L12.1854 4.64526ZM5.973 5.64413C7.14884 6.80992 9.29206 8.52942 11.8007 9.70034C14.2992 10.8665 17.2664 11.536 20.0097 10.4183L19.5652 9.32739C17.2641 10.2649 14.6699 9.73959 12.2989 8.63289C9.93799 7.53091 7.90356 5.89934 6.80239 4.80759L5.973 5.64413Z" fill="#690000"/>
<path fill-rule="evenodd" clip-rule="evenodd" d="M7.54812 6.64935H8.0101C8.50466 7.03862 9.05663 7.43933 9.65258 7.82736H7.54812V25.3722C7.20393 24.946 6.80462 24.5238 6.37012 24.1151V7.82736V6.64935H7.54812ZM33.5705 7.82736H20.7333L20.9816 7.38612C20.696 7.16873 20.302 6.91156 19.8204 6.64935H33.5705H34.7485V7.82736V15.6525C34.4917 15.5527 34.2123 15.4979 33.9202 15.4979C33.8013 15.4979 33.6845 15.507 33.5705 15.5245V7.82736ZM33.5705 20.0459V31.5342C34.0396 31.6274 34.4315 31.6706 34.7485 31.6805V19.9179C34.4917 20.0177 34.2123 20.0725 33.9202 20.0725C33.8013 20.0725 33.6845 20.0634 33.5705 20.0459ZM33.5705 33.6763V43.9671H7.54812V28.8391L7.47518 28.8975C7.19464 28.8762 6.80508 28.7871 6.37012 28.6073V43.9671V45.1451H7.54812H33.5705H34.7485V43.9671V32.6601C34.4146 32.9967 34.0183 33.3446 33.5705 33.6763Z" fill="#690000"/>
</svg>
