<svg width="138" height="51" viewBox="0 0 138 51" fill="none" xmlns="http://www.w3.org/2000/svg">
<path d="M54.6253 11.3297H52.4094C52.3241 10.8562 52.1655 10.4395 51.9335 10.0797C51.7015 9.71983 51.4174 9.41443 51.0812 9.16348C50.7451 8.91254 50.3686 8.72314 49.952 8.5953C49.54 8.46746 49.1021 8.40354 48.6381 8.40354C47.8 8.40354 47.0495 8.61424 46.3866 9.03564C45.7285 9.45705 45.2077 10.0749 44.8241 10.8893C44.4453 11.7037 44.2559 12.698 44.2559 13.8723C44.2559 15.056 44.4453 16.0551 44.8241 16.8695C45.2077 17.6838 45.7309 18.2994 46.3937 18.716C47.0566 19.1327 47.8024 19.341 48.6309 19.341C49.0902 19.341 49.5258 19.2795 49.9378 19.1564C50.3544 19.0285 50.7309 18.8415 51.067 18.5953C51.4032 18.3491 51.6873 18.0484 51.9193 17.6933C52.156 17.3335 52.3194 16.9215 52.4094 16.4575L54.6253 16.4646C54.5069 17.1796 54.2773 17.8377 53.9363 18.4391C53.6002 19.0356 53.1669 19.5517 52.6366 19.9873C52.1111 20.4182 51.5097 20.752 50.8327 20.9888C50.1556 21.2255 49.4169 21.3439 48.6167 21.3439C47.3573 21.3439 46.2351 21.0456 45.2503 20.449C44.2654 19.8477 43.4889 18.9883 42.9207 17.8709C42.3573 16.7534 42.0756 15.4206 42.0756 13.8723C42.0756 12.3193 42.3596 10.9864 42.9278 9.87371C43.496 8.75629 44.2725 7.89928 45.2574 7.30269C46.2422 6.70136 47.362 6.4007 48.6167 6.4007C49.3885 6.4007 50.1082 6.51197 50.7758 6.73451C51.4482 6.95231 52.0519 7.27428 52.5869 7.70042C53.122 8.12182 53.5647 8.63792 53.915 9.24871C54.2654 9.85477 54.5022 10.5484 54.6253 11.3297ZM69.8863 13.8723C69.8863 15.4253 69.6022 16.7605 69.034 17.878C68.4658 18.9907 67.6869 19.8477 66.6974 20.449C65.7125 21.0456 64.5927 21.3439 63.338 21.3439C62.0785 21.3439 60.954 21.0456 59.9644 20.449C58.9796 19.8477 58.203 18.9883 57.6349 17.8709C57.0667 16.7534 56.7826 15.4206 56.7826 13.8723C56.7826 12.3193 57.0667 10.9864 57.6349 9.87371C58.203 8.75629 58.9796 7.89928 59.9644 7.30269C60.954 6.70136 62.0785 6.4007 63.338 6.4007C64.5927 6.4007 65.7125 6.70136 66.6974 7.30269C67.6869 7.89928 68.4658 8.75629 69.034 9.87371C69.6022 10.9864 69.8863 12.3193 69.8863 13.8723ZM67.713 13.8723C67.713 12.6886 67.5212 11.6919 67.1377 10.8822C66.7589 10.0678 66.2381 9.45231 65.5752 9.03564C64.9171 8.61424 64.1713 8.40354 63.338 8.40354C62.4999 8.40354 61.7518 8.61424 61.0937 9.03564C60.4355 9.45231 59.9147 10.0678 59.5312 10.8822C59.1524 11.6919 58.963 12.6886 58.963 13.8723C58.963 15.056 59.1524 16.0551 59.5312 16.8695C59.9147 17.6791 60.4355 18.2946 61.0937 18.716C61.7518 19.1327 62.4999 19.341 63.338 19.341C64.1713 19.341 64.9171 19.1327 65.5752 18.716C66.2381 18.2946 66.7589 17.6791 67.1377 16.8695C67.5212 16.0551 67.713 15.056 67.713 13.8723ZM72.6224 21.145V6.59956H81.6423V8.48877H74.817V12.9206H80.996V14.8027H74.817V21.145H72.6224ZM84.3412 21.145V6.59956H93.3611V8.48877H86.5358V12.9206H92.7148V14.8027H86.5358V21.145H84.3412ZM96.0599 21.145V6.59956H105.179V8.48877H98.2545V12.9206H104.703V14.8027H98.2545V19.2558H105.264V21.145H96.0599ZM108.111 21.145V6.59956H117.23V8.48877H110.305V12.9206H116.754V14.8027H110.305V19.2558H117.315V21.145H108.111ZM50.4775 34.4206C50.4018 33.7482 50.0893 33.2274 49.54 32.8581C48.9908 32.484 48.2995 32.297 47.4662 32.297C46.8696 32.297 46.3535 32.3917 45.9179 32.5811C45.4823 32.7658 45.1437 33.0214 44.9023 33.3481C44.6655 33.6701 44.5471 34.0371 44.5471 34.449C44.5471 34.7946 44.6276 35.0929 44.7886 35.3439C44.9543 35.5948 45.1698 35.8055 45.4349 35.976C45.7048 36.1417 45.9936 36.2814 46.3014 36.395C46.6092 36.5039 46.9051 36.5939 47.1892 36.6649L48.6096 37.0342C49.0737 37.1479 49.5495 37.3017 50.0372 37.4959C50.5249 37.69 50.9771 37.9457 51.3937 38.2629C51.8104 38.5802 52.1466 38.9731 52.4023 39.4419C52.6627 39.9106 52.7929 40.4717 52.7929 41.1251C52.7929 41.949 52.5798 42.6805 52.1537 43.3197C51.7323 43.9589 51.1191 44.4632 50.3142 44.8325C49.514 45.2018 48.5457 45.3865 47.4094 45.3865C46.3203 45.3865 45.3781 45.2137 44.5827 44.868C43.7872 44.5224 43.1646 44.0323 42.7148 43.3979C42.2649 42.7587 42.0164 42.0011 41.969 41.1251H44.1707C44.2133 41.6507 44.3838 42.0887 44.6821 42.4391C44.9851 42.7847 45.371 43.0427 45.8398 43.2132C46.3132 43.3789 46.8317 43.4618 47.3952 43.4618C48.0154 43.4618 48.567 43.3647 49.05 43.1706C49.5377 42.9717 49.9212 42.6971 50.2006 42.3467C50.4799 41.9916 50.6196 41.5773 50.6196 41.1038C50.6196 40.673 50.4965 40.3202 50.2503 40.0456C50.0088 39.771 49.6797 39.5437 49.2631 39.3638C48.8511 39.1838 48.3847 39.0252 47.8639 38.8879L46.1452 38.4192C44.9804 38.1019 44.0571 37.6355 43.3753 37.02C42.6982 36.4045 42.3596 35.5901 42.3596 34.5768C42.3596 33.7388 42.5869 33.0072 43.0415 32.3822C43.496 31.7572 44.1115 31.2719 44.8881 30.9263C45.6646 30.5759 46.5405 30.4007 47.5159 30.4007C48.5007 30.4007 49.3696 30.5735 50.1224 30.9192C50.88 31.2648 51.4766 31.7407 51.9122 32.3467C52.3478 32.948 52.5751 33.6393 52.594 34.4206H50.4775ZM64.7691 30.5996H66.9708V40.1663C66.9708 41.1843 66.7317 42.0863 66.2535 42.8723C65.7752 43.6535 65.1029 44.2691 64.2364 44.7189C63.3699 45.164 62.3543 45.3865 61.1895 45.3865C60.0295 45.3865 59.0162 45.164 58.1498 44.7189C57.2833 44.2691 56.6109 43.6535 56.1327 42.8723C55.6545 42.0863 55.4154 41.1843 55.4154 40.1663V30.5996H57.61V39.9888C57.61 40.6469 57.7544 41.2317 58.0432 41.743C58.3368 42.2544 58.7511 42.6569 59.2861 42.9504C59.8212 43.2392 60.4556 43.3837 61.1895 43.3837C61.9282 43.3837 62.565 43.2392 63.1001 42.9504C63.6398 42.6569 64.0518 42.2544 64.3358 41.743C64.6247 41.2317 64.7691 40.6469 64.7691 39.9888V30.5996ZM70.1615 45.145V30.5996H75.3461C76.473 30.5996 77.4082 30.7937 78.1515 31.182C78.8997 31.5702 79.4584 32.1076 79.8277 32.7942C80.197 33.476 80.3817 34.2643 80.3817 35.1592C80.3817 36.0494 80.1946 36.833 79.8206 37.5101C79.4513 38.1824 78.8925 38.7056 78.1444 39.0797C77.4011 39.4537 76.4659 39.6408 75.339 39.6408H71.4115V37.7516H75.1402C75.8504 37.7516 76.4281 37.6498 76.8731 37.4462C77.3229 37.2426 77.652 36.9466 77.8604 36.5584C78.0687 36.1701 78.1729 35.7037 78.1729 35.1592C78.1729 34.61 78.0663 34.1341 77.8532 33.7317C77.6449 33.3292 77.3158 33.0214 76.866 32.8084C76.421 32.5906 75.8362 32.4817 75.1118 32.4817H72.3561V45.145H70.1615ZM77.3419 38.5825L80.9356 45.145H78.4356L74.9129 38.5825H77.3419ZM83.0521 45.145V30.5996H88.2368C89.3684 30.5996 90.3059 30.8055 91.0493 31.2175C91.7926 31.6294 92.349 32.1928 92.7183 32.9078C93.0876 33.618 93.2723 34.4182 93.2723 35.3084C93.2723 36.2033 93.0853 37.0082 92.7112 37.7231C92.3419 38.4334 91.7832 38.9968 91.0351 39.4135C90.2917 39.8254 89.3566 40.0314 88.2297 40.0314H84.6643V38.1706H88.0308C88.7458 38.1706 89.3258 38.0475 89.7709 37.8013C90.2159 37.5503 90.5426 37.2094 90.751 36.7785C90.9593 36.3477 91.0635 35.8576 91.0635 35.3084C91.0635 34.7591 90.9593 34.2714 90.751 33.8453C90.5426 33.4192 90.2136 33.0854 89.7638 32.8439C89.3187 32.6024 88.7316 32.4817 88.0024 32.4817H85.2467V45.145H83.0521ZM95.8451 45.145V30.5996H101.03C102.157 30.5996 103.092 30.7937 103.835 31.182C104.583 31.5702 105.142 32.1076 105.511 32.7942C105.881 33.476 106.065 34.2643 106.065 35.1592C106.065 36.0494 105.878 36.833 105.504 37.5101C105.135 38.1824 104.576 38.7056 103.828 39.0797C103.085 39.4537 102.15 39.6408 101.023 39.6408H97.0951V37.7516H100.824C101.534 37.7516 102.112 37.6498 102.557 37.4462C103.007 37.2426 103.336 36.9466 103.544 36.5584C103.752 36.1701 103.856 35.7037 103.856 35.1592C103.856 34.61 103.75 34.1341 103.537 33.7317C103.329 33.3292 102.999 33.0214 102.55 32.8084C102.105 32.5906 101.52 32.4817 100.795 32.4817H98.0397V45.145H95.8451ZM103.025 38.5825L106.619 45.145H104.119L100.597 38.5825H103.025ZM110.93 30.5996V45.145H108.736V30.5996H110.93ZM122.06 34.4206C121.984 33.7482 121.671 33.2274 121.122 32.8581C120.573 32.484 119.882 32.297 119.048 32.297C118.452 32.297 117.936 32.3917 117.5 32.5811C117.064 32.7658 116.726 33.0214 116.484 33.3481C116.248 33.6701 116.129 34.0371 116.129 34.449C116.129 34.7946 116.21 35.0929 116.371 35.3439C116.536 35.5948 116.752 35.8055 117.017 35.976C117.287 36.1417 117.576 36.2814 117.883 36.395C118.191 36.5039 118.487 36.5939 118.771 36.6649L120.192 37.0342C120.656 37.1479 121.132 37.3017 121.619 37.4959C122.107 37.69 122.559 37.9457 122.976 38.2629C123.392 38.5802 123.729 38.9731 123.984 39.4419C124.245 39.9106 124.375 40.4717 124.375 41.1251C124.375 41.949 124.162 42.6805 123.736 43.3197C123.314 43.9589 122.701 44.4632 121.896 44.8325C121.096 45.2018 120.128 45.3865 118.991 45.3865C117.902 45.3865 116.96 45.2137 116.165 44.868C115.369 44.5224 114.747 44.0323 114.297 43.3979C113.847 42.7587 113.598 42.0011 113.551 41.1251H115.753C115.795 41.6507 115.966 42.0887 116.264 42.4391C116.567 42.7847 116.953 43.0427 117.422 43.2132C117.895 43.3789 118.414 43.4618 118.977 43.4618C119.597 43.4618 120.149 43.3647 120.632 43.1706C121.12 42.9717 121.503 42.6971 121.783 42.3467C122.062 41.9916 122.202 41.5773 122.202 41.1038C122.202 40.673 122.079 40.3202 121.832 40.0456C121.591 39.771 121.262 39.5437 120.845 39.3638C120.433 39.1838 119.967 39.0252 119.446 38.8879L117.727 38.4192C116.562 38.1019 115.639 37.6355 114.957 37.02C114.28 36.4045 113.942 35.5901 113.942 34.5768C113.942 33.7388 114.169 33.0072 114.623 32.3822C115.078 31.7572 115.694 31.2719 116.47 30.9263C117.247 30.5759 118.123 30.4007 119.098 30.4007C120.083 30.4007 120.952 30.5735 121.704 30.9192C122.462 31.2648 123.059 31.7407 123.494 32.3467C123.93 32.948 124.157 33.6393 124.176 34.4206H122.06ZM126.997 45.145V30.5996H136.117V32.4888H129.192V36.9206H135.641V38.8027H129.192V43.2558H136.202V45.145H126.997Z" fill="#690000"/>
<path fill-rule="evenodd" clip-rule="evenodd" d="M32.2028 0.914146C32.2701 0.595885 32.0667 0.283335 31.7484 0.216046C31.4301 0.148756 31.1176 0.352209 31.0503 0.67047C30.4216 3.64407 29.03 8.52195 26.9052 13.4513C26.6021 14.1546 26.2845 14.8576 25.9528 15.5552C26.3478 15.6519 26.7026 15.8511 26.9872 16.123C27.3371 15.3894 27.6703 14.6522 27.987 13.9176C30.145 8.91111 31.5593 3.95807 32.2028 0.914146ZM24.9358 20.0157C24.5367 19.932 24.1759 19.7444 23.8829 19.4823C22.3001 22.1812 20.4828 24.6228 18.4418 26.4526C18.2909 26.588 18.1416 26.724 17.9939 26.8608C18.3476 27.0493 18.6459 27.3279 18.8582 27.6661C18.9804 27.5535 19.1037 27.4414 19.2282 27.3297C21.3952 25.3869 23.298 22.8182 24.9358 20.0157ZM15.7756 30.8617C15.4294 30.6613 15.1406 30.3729 14.9398 30.0269L14.8769 30.0999C15.1909 30.3622 15.4335 30.7071 15.5713 31.1012C15.6389 31.0213 15.707 30.9415 15.7756 30.8617ZM6.81348 44.5932C7.36262 42.4195 9.01993 38.2001 12.0918 33.7246C12.4206 33.9573 12.8135 34.1053 13.2388 34.1371C10.1405 38.5809 8.48428 42.789 7.9556 44.8817L6.81348 44.5932Z" fill="#690000"/>
<circle cx="16.9289" cy="28.8886" r="1.69829" stroke="#690000" stroke-width="1.178"/>
<circle cx="13.4191" cy="26.2682" r="1.69829" stroke="#690000" stroke-width="1.178"/>
<circle cx="19.5148" cy="32.7526" r="1.69829" stroke="#690000" stroke-width="1.178"/>
<circle cx="21.8019" cy="27.0676" r="1.69829" stroke="#690000" stroke-width="1.178"/>
<circle cx="13.4191" cy="31.8643" r="1.69829" stroke="#690000" stroke-width="1.178"/>
<circle cx="9.28924" cy="29.8657" r="1.69829" stroke="#690000" stroke-width="1.178"/>
<circle cx="9.28924" cy="34.4402" r="1.69829" stroke="#690000" stroke-width="1.178"/>
<circle cx="4.71503" cy="31.8643" r="1.69829" stroke="#690000" stroke-width="1.178"/>
<circle cx="14.4025" cy="36.4389" r="1.69829" stroke="#690000" stroke-width="1.178"/>
<circle cx="20.0422" cy="37.9933" r="1.69829" stroke="#690000" stroke-width="1.178"/>
<circle cx="25.4162" cy="17.7852" r="1.69829" stroke="#690000" stroke-width="1.178"/>
<circle cx="24.6174" cy="13.2106" r="1.69829" stroke="#690000" stroke-width="1.178"/>
<circle cx="26.9045" cy="9.39099" r="1.69829" stroke="#690000" stroke-width="1.178"/>
<circle cx="21.8019" cy="9.39099" r="1.69829" stroke="#690000" stroke-width="1.178"/>
<circle cx="20.842" cy="16.364" r="1.69829" stroke="#690000" stroke-width="1.178"/>
<circle cx="29.591" cy="15.4979" r="1.69829" stroke="#690000" stroke-width="1.178"/>
<circle cx="29.591" cy="20.4857" r="1.69829" stroke="#690000" stroke-width="1.178"/>
<circle cx="33.9221" cy="17.7852" r="1.69829" stroke="#690000" stroke-width="1.178"/>
<path d="M1.14566 20.6122C1.09059 20.5793 1.0417 20.5591 1 20.5499C1.04796 20.57 1.09653 20.5908 1.14566 20.6122Z" fill="#690000"/>
<path d="M3.10045 24.689L2.52957 24.834L3.10045 24.689ZM1 20.5499L1.12777 19.9749C0.83005 19.9087 0.531066 20.0808 0.438675 20.3714C0.346284 20.6621 0.491048 20.9752 0.772327 21.0931L1 20.5499ZM7.63188 28.3287C6.60363 28.052 4.37829 27.3276 3.67133 24.544L2.52957 24.834C3.40413 28.2775 6.21263 29.1667 7.32583 29.4662L7.63188 28.3287ZM3.67133 24.544C3.31204 23.1293 2.91665 22.1267 2.54093 21.4316C2.17385 20.7526 1.79809 20.316 1.44788 20.1067L0.843431 21.1178C0.927632 21.1681 1.17837 21.3883 1.50464 21.9918C1.82225 22.5794 2.18706 23.4853 2.52957 24.834L3.67133 24.544ZM1.44788 20.1067C1.35507 20.0512 1.24712 20.0014 1.12777 19.9749L0.872228 21.1248C0.852952 21.1206 0.841305 21.1159 0.837853 21.1144C0.834183 21.1129 0.836047 21.1133 0.843431 21.1178L1.44788 20.1067ZM0.772327 21.0931C0.817512 21.112 0.863389 21.1317 0.909927 21.152L1.38139 20.0724C1.32967 20.0499 1.27842 20.0279 1.22767 20.0066L0.772327 21.0931ZM0.909927 21.152C2.261 21.742 4.08573 22.8745 5.58484 24.1723C6.33312 24.8201 6.98376 25.495 7.45139 26.1482C7.92535 26.8103 8.17417 27.3987 8.20148 27.8821L9.37761 27.8157C9.33222 27.0121 8.94164 26.2062 8.40927 25.4625C7.87057 24.71 7.14795 23.9674 6.35586 23.2817C4.77422 21.9125 2.8497 20.7137 1.38139 20.0724L0.909927 21.152Z" fill="#690000"/>
<path d="M30.7 30.6243L30.4755 31.1688L30.7 30.6243ZM35.6474 31.5738L36.144 31.8904C36.2837 31.6712 36.2633 31.3865 36.0937 31.1895C35.9242 30.9925 35.6456 30.93 35.4081 31.0355L35.6474 31.5738ZM29.0009 35.4717L28.9635 34.8839L28.9635 34.8839L29.0009 35.4717ZM21.5381 32.1147C22.4959 31.7018 23.9152 31.1231 25.5157 30.8209C27.1168 30.5185 28.8566 30.5013 30.4755 31.1688L30.9245 30.0797C29.0214 29.295 27.0299 29.3361 25.2971 29.6633C23.5636 29.9907 22.0463 30.6128 21.0718 31.0329L21.5381 32.1147ZM30.4755 31.1688C31.9602 31.781 33.1333 32.0842 34.0109 32.2054C34.4495 32.266 34.8203 32.2819 35.1232 32.2659C35.4153 32.2504 35.6807 32.2035 35.8866 32.112L35.4081 31.0355C35.3891 31.044 35.2858 31.0776 35.0609 31.0896C34.8466 31.1009 34.5519 31.091 34.1721 31.0385C33.4128 30.9337 32.3371 30.6622 30.9245 30.0797L30.4755 31.1688ZM35.1507 31.2571C34.7766 31.844 33.967 32.7129 32.8615 33.4587C31.7603 34.2016 30.4106 34.7918 28.9635 34.8839L29.0383 36.0595C30.752 35.9504 32.3008 35.258 33.5202 34.4353C34.7353 33.6156 35.6686 32.6362 36.144 31.8904L35.1507 31.2571ZM28.9635 34.8839C26.9387 35.0128 25.6317 34.9643 24.5374 34.7457C23.4482 34.5282 22.5352 34.1356 21.294 33.5198L20.7705 34.5751C22.0346 35.2023 23.0606 35.652 24.3067 35.9009C25.5477 36.1488 26.9723 36.191 29.0383 36.0595L28.9635 34.8839Z" fill="#690000"/>
<path d="M6.3877 5.22586L6.73709 4.75168C6.48863 4.5686 6.14099 4.60836 5.94028 4.84279C5.73956 5.07722 5.75384 5.42684 5.973 5.64413L6.3877 5.22586ZM21.3406 6.91742C19.9608 5.86712 16.2329 3.95423 12.1854 4.64526L12.3837 5.80646C15.9963 5.18966 19.3991 6.91999 20.6271 7.85477L21.3406 6.91742ZM12.1854 4.64526C10.3011 4.96698 8.96376 5.02998 8.06807 4.98499C7.61998 4.96248 7.29005 4.91331 7.0616 4.85947C6.81701 4.80182 6.73371 4.74919 6.73709 4.75168L6.0383 5.70004C6.22657 5.83876 6.49406 5.93598 6.79136 6.00605C7.10479 6.07993 7.50783 6.13634 8.00898 6.16151C9.01177 6.21188 10.438 6.13865 12.3837 5.80646L12.1854 4.64526ZM5.973 5.64413C7.14884 6.80992 9.29206 8.52942 11.8007 9.70034C14.2992 10.8665 17.2664 11.536 20.0097 10.4183L19.5652 9.32739C17.2641 10.2649 14.6699 9.73959 12.2989 8.63289C9.93799 7.53091 7.90356 5.89934 6.80239 4.80759L5.973 5.64413Z" fill="#690000"/>
<path fill-rule="evenodd" clip-rule="evenodd" d="M7.54812 6.64935H8.0101C8.50466 7.03862 9.05663 7.43933 9.65258 7.82736H7.54812V25.3722C7.20393 24.946 6.80462 24.5238 6.37012 24.1151V7.82736V6.64935H7.54812ZM33.5705 7.82736H20.7333L20.9816 7.38612C20.696 7.16873 20.302 6.91156 19.8204 6.64935H33.5705H34.7485V7.82736V15.6525C34.4917 15.5527 34.2123 15.4979 33.9202 15.4979C33.8013 15.4979 33.6845 15.507 33.5705 15.5245V7.82736ZM33.5705 20.0459V31.5342C34.0396 31.6274 34.4315 31.6706 34.7485 31.6805V19.9179C34.4917 20.0177 34.2123 20.0725 33.9202 20.0725C33.8013 20.0725 33.6845 20.0634 33.5705 20.0459ZM33.5705 33.6763V43.9671H7.54812V28.8391L7.47518 28.8975C7.19464 28.8762 6.80508 28.7871 6.37012 28.6073V43.9671V45.1451H7.54812H33.5705H34.7485V43.9671V32.6601C34.4146 32.9967 34.0183 33.3446 33.5705 33.6763Z" fill="#690000"/>
</svg>
