<svg width="98" height="10" viewBox="0 0 98 10" fill="none" xmlns="http://www.w3.org/2000/svg">
<path d="M5.64905 0.485817C5.68769 0.524458 5.64905 0.814261 5.59109 1.12339C5.47517 1.70299 5.47517 1.70299 4.3546 1.62571C3.4079 1.54843 3.17606 1.60639 2.8283 1.95415C2.46121 2.32124 2.42257 2.5724 2.42257 4.87151C2.42257 7.17062 2.46121 7.42178 2.8283 7.78887C3.17606 8.13663 3.4079 8.19459 4.3546 8.11731C5.47517 8.04003 5.47517 8.04003 5.59109 8.61964C5.61787 8.76243 5.63639 8.90523 5.64096 9.02327C5.64829 9.2124 5.50292 9.33259 5.31485 9.3539C5.0217 9.38712 4.52925 9.41177 3.98751 9.41177C1.32132 9.41177 0.876953 8.75488 0.876953 4.87151C0.876953 1.56775 1.18608 0.794941 2.67374 0.408536C3.23402 0.273295 5.47517 0.331255 5.64905 0.485817ZM11.0201 0.69834C11.9475 1.31659 12.3532 2.5724 12.3725 4.87151C12.3725 6.64897 12.3145 7.01606 11.8895 7.86615C11.2712 9.10264 10.4598 9.56633 9.04941 9.45041C6.96283 9.29584 6.19002 8.07867 6.19002 4.87151C6.19002 3.09405 6.24798 2.72696 6.67302 1.87687C7.29127 0.640379 8.10272 0.176693 9.5131 0.292614C10.0541 0.331255 10.7303 0.505137 11.0201 0.69834ZM44.019 0.350575C44.5407 0.447176 44.7339 0.582418 44.7339 0.814261C44.7339 1.60639 44.56 1.70299 43.4201 1.62571C41.604 1.50979 41.5461 1.60639 41.5461 4.87151C41.5461 8.13663 41.604 8.23323 43.4201 8.11731C44.56 8.04003 44.7339 8.13663 44.7339 8.92876C44.7339 9.64361 41.7199 9.64361 40.7926 8.90944C40.1743 8.42643 39.9038 7.20926 39.9038 4.87151C39.9038 2.669 40.155 1.37455 40.696 0.891541C41.2949 0.350575 42.6473 0.138053 44.019 0.350575ZM49.9504 0.659699C51.0903 1.45183 51.3994 2.34056 51.3994 4.87151C51.3994 7.40246 51.0903 8.29119 49.9504 9.064C48.7139 9.91409 46.5886 9.46973 45.8545 8.23323C45.6806 7.92411 45.4294 7.03538 45.3135 6.26257C45.0623 4.65899 45.3135 2.43716 45.8545 1.50979C46.5886 0.273294 48.7139 -0.171071 49.9504 0.659699ZM74.7356 0.392893C75.0671 0.431507 75.2598 0.673384 75.2076 1.00301C75.2003 1.04892 75.192 1.09581 75.1826 1.14271C75.0474 1.70299 75.028 1.70299 73.9268 1.62571C72.9608 1.54843 72.7289 1.60639 72.3812 1.95415C72.0141 2.32124 71.9754 2.5724 71.9754 4.87151C71.9754 7.17062 72.0141 7.42178 72.3812 7.78887C72.7289 8.13663 72.9608 8.19459 73.9268 8.11731C75.028 8.04003 75.0474 8.04003 75.1826 8.60032C75.2105 8.73976 75.225 8.88367 75.2238 9.00408C75.2221 9.19335 75.0788 9.32203 74.8911 9.34663C74.5884 9.3863 74.0717 9.41177 73.521 9.41177C70.9128 9.41177 70.4491 8.73556 70.4491 4.96811C70.4298 1.62571 70.7583 0.775621 72.2073 0.408536C72.6529 0.293526 73.9972 0.306885 74.7356 0.392893ZM18.4584 1.00746V1.00746C18.4584 1.32757 18.1989 1.58707 17.8788 1.58707H16.8162H16.4297C15.7362 1.58707 15.1739 2.14932 15.1739 2.84289V2.84289V2.84289C15.1739 3.53645 15.7362 4.0987 16.4297 4.0987H16.7195H17.6856C18.0057 4.0987 18.2652 4.3582 18.2652 4.67831V4.67831V4.67831C18.2652 4.99842 18.0057 5.25791 17.6856 5.25791H16.7195V5.25791C15.8659 5.25791 15.1739 5.94991 15.1739 6.80353V7.28654V8.54235C15.1739 8.96917 14.8279 9.31516 14.4011 9.31516V9.31516V9.31516C13.9743 9.31516 13.6283 8.96917 13.6283 8.54236V4.87151V2.84289C13.6283 1.5091 14.7096 0.427856 16.0433 0.427856V0.427856H17.8788C18.1989 0.427856 18.4584 0.687355 18.4584 1.00746V1.00746ZM24.4476 1.00746V1.00746C24.4476 1.32757 24.1881 1.58707 23.868 1.58707H22.8054H22.419C21.7254 1.58707 21.1632 2.14932 21.1632 2.84289V2.84289V2.84289C21.1632 3.53645 21.7254 4.0987 22.419 4.0987H22.7088H23.6748C23.9949 4.0987 24.2544 4.3582 24.2544 4.67831V4.67831V4.67831C24.2544 4.99842 23.9949 5.25791 23.6748 5.25791H22.7088V5.25791C21.8552 5.25791 21.1632 5.94991 21.1632 6.80354V7.28654V8.54236C21.1632 8.96917 20.8172 9.31516 20.3904 9.31516V9.31516V9.31516C19.9636 9.31516 19.6176 8.96917 19.6176 8.54235V4.87151V2.84289C19.6176 1.5091 20.6988 0.427856 22.0326 0.427856V0.427856H23.868C24.1881 0.427856 24.4476 0.687355 24.4476 1.00746V1.00746ZM30.4369 1.00746V1.00746C30.4369 1.31998 30.1893 1.57629 29.877 1.58706L28.7561 1.62571V1.62571C27.8078 1.65804 27.0559 2.43608 27.0559 3.38484V4.87151V6.26163C27.0559 7.26373 27.8511 8.085 28.8527 8.11731V8.11731L30.0701 8.15701C30.3823 8.16719 30.6301 8.42321 30.6301 8.73556V8.73556V8.73556C30.6301 9.05567 30.3706 9.31516 30.0505 9.31516H28.0219V9.31516C26.5814 9.31516 25.4137 8.14742 25.4137 6.70693V4.87151V2.93949C25.4137 1.55235 26.5382 0.427856 27.9253 0.427856V0.427856H29.8573C30.1774 0.427856 30.4369 0.687355 30.4369 1.00746V1.00746ZM36.4262 1.00746V1.00746C36.4262 1.32757 36.1667 1.58707 35.8466 1.58707H34.784H34.3976C33.704 1.58707 33.1417 2.14932 33.1417 2.84289V2.84289V2.84289C33.1417 3.53645 33.704 4.0987 34.3976 4.0987H34.6874H35.6534C35.9735 4.0987 36.233 4.3582 36.233 4.67831V4.67831V4.67831C36.233 4.99842 35.9735 5.25791 35.6534 5.25791H34.6874H34.5908C33.7905 5.25791 33.1417 5.90666 33.1417 6.70693V6.70693V6.70693C33.1417 7.5072 33.7905 8.15595 34.5908 8.15595H34.8806H36.0398C36.3599 8.15595 36.6194 8.41545 36.6194 8.73556V8.73556V8.73556C36.6194 9.05567 36.3599 9.31516 36.0398 9.31516H34.1078V9.31516C32.7206 9.31516 31.5961 8.19067 31.5961 6.80353V4.87151V2.84289C31.5961 1.5091 32.6774 0.427856 34.0112 0.427856V0.427856H35.8466C36.1667 0.427856 36.4262 0.687355 36.4262 1.00746V1.00746ZM54.0076 4.2919V6.41713C54.0076 7.37745 54.7861 8.15595 55.7464 8.15595V8.15595H56.9056C57.2258 8.15595 57.4853 8.41545 57.4853 8.73556V8.73556V8.73556C57.4853 9.05567 57.2258 9.31516 56.9056 9.31516H54.9736V9.31516C53.5865 9.31516 52.462 8.19067 52.462 6.80353V4.87151V1.20067C52.462 0.773856 52.808 0.427856 53.2348 0.427856V0.427856V0.427856C53.6616 0.427856 54.0076 0.773856 54.0076 1.20067V4.2919ZM59.8037 4.2919V6.41713C59.8037 7.37745 60.5822 8.15595 61.5425 8.15595V8.15595H62.7017C63.0218 8.15595 63.2813 8.41545 63.2813 8.73556V8.73556V8.73556C63.2813 9.05567 63.0218 9.31516 62.7017 9.31516H60.7697V9.31516C59.3826 9.31516 58.2581 8.19067 58.2581 6.80353V4.87151V1.20067C58.2581 0.773856 58.6041 0.427856 59.0309 0.427856V0.427856V0.427856C59.4577 0.427856 59.8037 0.773856 59.8037 1.20067V4.2919ZM69.0774 1.00746V1.00746C69.0774 1.31998 68.8298 1.57629 68.5174 1.58706L67.3965 1.62571L66.8949 1.64281C66.2176 1.6659 65.6711 2.20459 65.6384 2.88153V2.88153V2.88153C65.6068 3.54418 66.1356 4.0987 66.799 4.0987H67.242H68.3046C68.6247 4.0987 68.8842 4.3582 68.8842 4.67831V4.67831V4.67831C68.8842 4.991 68.6368 5.24765 68.3243 5.25908L67.2999 5.29655L67.0479 5.30566C66.2937 5.33292 65.6964 5.95224 65.6964 6.70693V6.70693V6.70693C65.6964 7.4608 66.2946 8.07865 67.0481 8.10295L67.4931 8.11731L68.7106 8.15701C69.0228 8.16719 69.2706 8.42321 69.2706 8.73556V8.73556V8.73556C69.2706 9.05567 69.0111 9.31516 68.691 9.31516H66.6624V9.31516C65.2219 9.31516 64.0541 8.14742 64.0541 6.70693V4.87151V2.93949C64.0541 1.55235 65.1786 0.427856 66.5658 0.427856V0.427856H68.4978C68.8179 0.427856 69.0774 0.687355 69.0774 1.00746V1.00746ZM82.022 1.00746C82.022 1.58707 82.0026 1.58707 80.9593 1.58707V1.58707C80.3725 1.58707 79.8967 2.06282 79.8967 2.64969V5.45112V8.54236C79.8967 8.96917 79.5507 9.31516 79.1239 9.31516V9.31516V9.31516C78.6971 9.31516 78.3511 8.96917 78.3511 8.54236V5.45112V2.64969C78.3511 2.06282 77.8754 1.58707 77.2885 1.58707V1.58707C76.2452 1.58707 76.2259 1.58707 76.2259 1.00746V1.00746C76.2259 0.687355 76.4854 0.427856 76.8055 0.427856H79.1239H81.4424C81.7625 0.427856 82.022 0.687355 82.022 1.00746V1.00746ZM84.5336 4.87151V8.54236C84.5336 8.96917 84.1876 9.31516 83.7608 9.31516V9.31516V9.31516C83.334 9.31516 82.988 8.96917 82.988 8.54236V4.87151V1.20066C82.988 0.773854 83.334 0.427856 83.7608 0.427856V0.427856V0.427856C84.1876 0.427856 84.5336 0.773853 84.5336 1.20066V4.87151ZM87.0452 0.505137C87.0452 0.679019 88.417 7.07402 88.4749 7.13198C88.4942 7.1513 88.8613 5.66364 89.267 3.8089L89.844 1.21987C89.9472 0.757045 90.3578 0.427856 90.832 0.427856V0.427856V0.427856C91.244 0.427856 91.5462 0.815275 91.4458 1.21488L90.5422 4.81355L89.6803 8.261C89.5379 8.83078 89.0419 9.24204 88.4556 9.27652V9.27652V9.27652C87.8865 9.31 87.3761 8.92834 87.2473 8.37295L86.852 6.66829C86.5236 5.19995 86.0406 3.19065 85.7894 2.20532L85.5512 1.25256C85.4465 0.833652 85.7633 0.427856 86.1951 0.427856V0.427856C86.6588 0.427856 87.0452 0.466497 87.0452 0.505137ZM97.4782 1.00746V1.00746C97.4782 1.32757 97.2187 1.58707 96.8985 1.58707H95.7393H95.2563C94.5628 1.58707 94.0005 2.14932 94.0005 2.84289V2.84289V2.84289C94.0005 3.53645 94.5628 4.0987 95.2563 4.0987H95.6427H96.7053C97.0254 4.0987 97.2849 4.3582 97.2849 4.67831V4.67831V4.67831C97.2849 4.99842 97.0254 5.25791 96.7053 5.25791H95.6427H95.4495C94.6493 5.25791 94.0005 5.90666 94.0005 6.70693V6.70693V6.70693C94.0005 7.5072 94.6493 8.15595 95.4495 8.15595H95.7393H96.8985C97.2187 8.15595 97.4782 8.41545 97.4782 8.73556V8.73556V8.73556C97.4782 9.05567 97.2187 9.31516 96.8985 9.31516H94.9665V9.31516C93.5794 9.31516 92.4549 8.19067 92.4549 6.80354V4.87151V2.93949C92.4549 1.55235 93.5794 0.427856 94.9665 0.427856V0.427856H96.8985C97.2187 0.427856 97.4782 0.687355 97.4782 1.00746V1.00746ZM30.0505 3.86686C30.0505 3.94414 29.6641 4.40782 29.1811 4.87151L29.03 5.01923C28.7624 5.28095 28.3117 5.09131 28.3117 4.71695V4.71695V4.58171C28.3117 4.10154 28.7009 3.7123 29.1811 3.7123V3.7123C29.6641 3.7123 30.0505 3.78958 30.0505 3.86686Z" fill="black"/>
<path d="M8.29505 1.87685C7.65748 2.84286 7.59952 6.59099 8.19844 7.73088C8.68145 8.63893 10.0339 8.50369 10.4589 7.47972C10.7874 6.66827 10.826 3.28723 10.5169 2.37918C10.1498 1.31656 8.85533 1.00744 8.29505 1.87685Z" fill="white"/>
<path d="M47.5935 1.60636C47.1105 1.87684 46.8594 2.99742 46.8594 4.87148C46.8594 7.53767 47.2458 8.34912 48.4823 8.34912C49.2164 8.34912 49.6994 7.42175 49.854 5.76021C50.0086 4.17595 49.7188 2.26325 49.2358 1.7416C48.888 1.3552 48.1152 1.29723 47.5935 1.60636Z" fill="white"/>
</svg>
