<svg width="172" height="93" viewBox="0 0 172 93" fill="none" xmlns="http://www.w3.org/2000/svg">
<path d="M87.1263 54.26H84.0155C83.9587 53.8575 83.8427 53.5001 83.6675 53.1876C83.4923 52.8703 83.2674 52.6004 82.9928 52.3779C82.7182 52.1554 82.401 51.9849 82.0411 51.8665C81.686 51.7482 81.3001 51.689 80.8834 51.689C80.1306 51.689 79.4748 51.876 78.9161 52.2501C78.3574 52.6194 77.9242 53.1592 77.6164 53.8694C77.3086 54.5749 77.1547 55.4319 77.1547 56.4404C77.1547 57.4773 77.3086 58.3486 77.6164 59.054C77.9289 59.7595 78.3645 60.2922 78.9232 60.6521C79.4819 61.0119 80.1282 61.1918 80.8621 61.1918C81.2741 61.1918 81.6552 61.1374 82.0056 61.0285C82.3607 60.9196 82.6756 60.761 82.9502 60.5526C83.2248 60.3396 83.4521 60.0815 83.632 59.7785C83.8167 59.4754 83.9445 59.1298 84.0155 58.7415L87.1263 58.7557C87.0458 59.4234 86.8446 60.0673 86.5226 60.6876C86.2054 61.3031 85.7769 61.8547 85.2371 62.3424C84.7021 62.8254 84.0629 63.2089 83.3195 63.493C82.5809 63.7723 81.7452 63.912 80.8124 63.912C79.5151 63.912 78.355 63.6184 77.3323 63.0313C76.3143 62.4442 75.5094 61.5943 74.9175 60.4816C74.3304 59.3689 74.0368 58.0218 74.0368 56.4404C74.0368 54.8542 74.3351 53.5048 74.9317 52.3921C75.5283 51.2794 76.338 50.4319 77.3607 49.8495C78.3834 49.2624 79.534 48.9688 80.8124 48.9688C81.6552 48.9688 82.4365 49.0872 83.1562 49.3239C83.8806 49.5607 84.5222 49.9063 85.0809 50.3609C85.6396 50.8107 86.0941 51.3623 86.4445 52.0157C86.7996 52.6691 87.0269 53.4172 87.1263 54.26ZM102.698 56.4404C102.698 58.0266 102.397 59.376 101.796 60.4887C101.199 61.6014 100.385 62.4513 99.3529 63.0384C98.3254 63.6208 97.1701 63.912 95.887 63.912C94.5944 63.912 93.4343 63.6184 92.4069 63.0313C91.3794 62.4442 90.5674 61.5943 89.9708 60.4816C89.3742 59.3689 89.0759 58.0218 89.0759 56.4404C89.0759 54.8542 89.3742 53.5048 89.9708 52.3921C90.5674 51.2794 91.3794 50.4319 92.4069 49.8495C93.4343 49.2624 94.5944 48.9688 95.887 48.9688C97.1701 48.9688 98.3254 49.2624 99.3529 49.8495C100.385 50.4319 101.199 51.2794 101.796 52.3921C102.397 53.5048 102.698 54.8542 102.698 56.4404ZM99.5802 56.4404C99.5802 55.4129 99.4263 54.5465 99.1185 53.841C98.8155 53.1355 98.387 52.6004 97.833 52.2359C97.279 51.8713 96.6304 51.689 95.887 51.689C95.1436 51.689 94.4949 51.8713 93.941 52.2359C93.387 52.6004 92.9561 53.1355 92.6483 53.841C92.3453 54.5465 92.1938 55.4129 92.1938 56.4404C92.1938 57.4679 92.3453 58.3343 92.6483 59.0398C92.9561 59.7453 93.387 60.2804 93.941 60.645C94.4949 61.0095 95.1436 61.1918 95.887 61.1918C96.6304 61.1918 97.279 61.0095 97.833 60.645C98.387 60.2804 98.8155 59.7453 99.1185 59.0398C99.4263 58.3343 99.5802 57.4679 99.5802 56.4404ZM104.976 63.7131V49.1677H114.607V51.7032H108.051V55.1691H113.968V57.7046H108.051V63.7131H104.976ZM116.675 63.7131V49.1677H126.306V51.7032H119.751V55.1691H125.667V57.7046H119.751V63.7131H116.675ZM128.375 63.7131V49.1677H138.176V51.7032H131.45V55.1691H137.671V57.7046H131.45V61.1776H138.204V63.7131H128.375ZM140.621 63.7131V49.1677H150.422V51.7032H143.696V55.1691H149.918V57.7046H143.696V61.1776H150.45V63.7131H140.621ZM82.1832 77.3509C82.1263 76.778 81.8825 76.3329 81.4516 76.0157C81.0207 75.6985 80.436 75.5398 79.6974 75.5398C79.1955 75.5398 78.7717 75.6109 78.426 75.7529C78.0804 75.8902 77.8153 76.082 77.6306 76.3282C77.4507 76.5744 77.3607 76.8538 77.3607 77.1663C77.3512 77.4267 77.4057 77.6539 77.5241 77.8481C77.6472 78.0422 77.8153 78.2103 78.0283 78.3523C78.2414 78.4896 78.4876 78.6104 78.767 78.7146C79.0463 78.814 79.3446 78.8992 79.6618 78.9702L80.9687 79.2827C81.6031 79.4248 82.1855 79.6142 82.7158 79.8509C83.2461 80.0877 83.7054 80.3789 84.0937 80.7245C84.4819 81.0701 84.7826 81.4773 84.9957 81.9461C85.2135 82.4148 85.3247 82.9522 85.3295 83.5583C85.3247 84.4485 85.0974 85.2202 84.6476 85.8736C84.2026 86.5223 83.5586 87.0266 82.7158 87.3864C81.8778 87.7415 80.8669 87.9191 79.6832 87.9191C78.5089 87.9191 77.4862 87.7392 76.615 87.3793C75.7485 87.0195 75.0714 86.4868 74.5837 85.7813C74.1008 85.0711 73.8474 84.1928 73.8238 83.1464H76.7996C76.8328 83.6341 76.9724 84.0413 77.2187 84.368C77.4696 84.6899 77.8034 84.9338 78.2201 85.0995C78.6415 85.2605 79.1173 85.341 79.6476 85.341C80.1685 85.341 80.6206 85.2652 81.0042 85.1137C81.3924 84.9622 81.6931 84.7515 81.9062 84.4816C82.1192 84.2117 82.2258 83.9016 82.2258 83.5512C82.2258 83.2245 82.1287 82.9499 81.9346 82.7273C81.7452 82.5048 81.4658 82.3154 81.0965 82.1592C80.7319 82.0029 80.2845 81.8609 79.7542 81.733L78.1704 81.3353C76.944 81.037 75.9758 80.5706 75.2655 79.9361C74.5553 79.3017 74.2026 78.447 74.2073 77.3722C74.2026 76.4915 74.4369 75.7221 74.9104 75.064C75.3886 74.4058 76.0444 73.8921 76.8778 73.5228C77.7111 73.1535 78.6581 72.9688 79.7187 72.9688C80.7982 72.9688 81.7404 73.1535 82.5454 73.5228C83.355 73.8921 83.9848 74.4058 84.4346 75.064C84.8844 75.7221 85.1164 76.4844 85.1306 77.3509H82.1832ZM96.3824 73.1677H99.4577V82.6137C99.4577 83.6743 99.2043 84.6023 98.6977 85.3978C98.1958 86.1932 97.4927 86.8135 96.5883 87.2586C95.684 87.6989 94.6305 87.9191 93.4278 87.9191C92.2204 87.9191 91.1646 87.6989 90.2602 87.2586C89.3559 86.8135 88.6527 86.1932 88.1508 85.3978C87.6489 84.6023 87.398 83.6743 87.398 82.6137V73.1677H90.4733V82.3509C90.4733 82.9049 90.594 83.3973 90.8355 83.8282C91.0817 84.2591 91.4273 84.5976 91.8724 84.8438C92.3175 85.09 92.836 85.2131 93.4278 85.2131C94.0244 85.2131 94.5429 85.09 94.9832 84.8438C95.4283 84.5976 95.7716 84.2591 96.0131 83.8282C96.2593 83.3973 96.3824 82.9049 96.3824 82.3509V73.1677ZM101.988 87.7131V73.1677H107.726C108.825 73.1677 109.762 73.3642 110.539 73.7572C111.32 74.1454 111.914 74.697 112.322 75.412C112.734 76.1222 112.94 76.9579 112.94 77.9191C112.94 78.885 112.731 79.716 112.315 80.412C111.898 81.1033 111.294 81.6336 110.503 82.0029C109.717 82.3722 108.766 82.5569 107.648 82.5569H103.806V80.0853H107.151C107.738 80.0853 108.226 80.0048 108.614 79.8438C109.003 79.6828 109.291 79.4414 109.481 79.1194C109.675 78.7974 109.772 78.3973 109.772 77.9191C109.772 77.4361 109.675 77.0289 109.481 76.6975C109.291 76.3661 109 76.1151 108.607 75.9447C108.219 75.7695 107.729 75.6819 107.137 75.6819H105.063V87.7131H101.988ZM109.843 81.0938L113.458 87.7131H110.063L106.526 81.0938H109.843ZM115.113 87.7131V73.1677H120.851C121.955 73.1677 122.895 73.3784 123.671 73.7998C124.448 74.2164 125.039 74.7965 125.447 75.5398C125.859 76.2785 126.065 77.1307 126.065 78.0967C126.065 79.0626 125.856 79.9148 125.44 80.6535C125.023 81.3921 124.419 81.9674 123.628 82.3793C122.842 82.7913 121.891 82.9972 120.773 82.9972H117.116V80.5327H120.276C120.868 80.5327 121.356 80.4309 121.739 80.2273C122.128 80.019 122.416 79.7325 122.606 79.368C122.8 78.9986 122.897 78.5749 122.897 78.0967C122.897 77.6137 122.8 77.1923 122.606 76.8325C122.416 76.4679 122.128 76.1861 121.739 75.9873C121.351 75.7837 120.859 75.6819 120.262 75.6819H118.188V87.7131H115.113ZM128.062 87.7131V73.1677H133.801C134.899 73.1677 135.837 73.3642 136.613 73.7572C137.394 74.1454 137.989 74.697 138.396 75.412C138.808 76.1222 139.014 76.9579 139.014 77.9191C139.014 78.885 138.805 79.716 138.389 80.412C137.972 81.1033 137.368 81.6336 136.578 82.0029C135.792 82.3722 134.84 82.5569 133.723 82.5569H129.88V80.0853H133.225C133.813 80.0853 134.3 80.0048 134.688 79.8438C135.077 79.6828 135.366 79.4414 135.555 79.1194C135.749 78.7974 135.846 78.3973 135.846 77.9191C135.846 77.4361 135.749 77.0289 135.555 76.6975C135.366 76.3661 135.074 76.1151 134.681 75.9447C134.293 75.7695 133.803 75.6819 133.211 75.6819H131.137V87.7131H128.062ZM135.917 81.0938L139.532 87.7131H136.137L132.6 81.0938H135.917ZM144.262 73.1677V87.7131H141.187V73.1677H144.262ZM154.683 77.3509C154.626 76.778 154.382 76.3329 153.952 76.0157C153.521 75.6985 152.936 75.5398 152.197 75.5398C151.695 75.5398 151.272 75.6109 150.926 75.7529C150.58 75.8902 150.315 76.082 150.131 76.3282C149.951 76.5744 149.861 76.8538 149.861 77.1663C149.851 77.4267 149.906 77.6539 150.024 77.8481C150.147 78.0422 150.315 78.2103 150.528 78.3523C150.741 78.4896 150.988 78.6104 151.267 78.7146C151.546 78.814 151.845 78.8992 152.162 78.9702L153.469 79.2827C154.103 79.4248 154.686 79.6142 155.216 79.8509C155.746 80.0877 156.205 80.3789 156.594 80.7245C156.982 81.0701 157.283 81.4773 157.496 81.9461C157.713 82.4148 157.825 82.9522 157.829 83.5583C157.825 84.4485 157.597 85.2202 157.148 85.8736C156.703 86.5223 156.059 87.0266 155.216 87.3864C154.378 87.7415 153.367 87.9191 152.183 87.9191C151.009 87.9191 149.986 87.7392 149.115 87.3793C148.248 87.0195 147.571 86.4868 147.084 85.7813C146.601 85.0711 146.347 84.1928 146.324 83.1464H149.3C149.333 83.6341 149.472 84.0413 149.719 84.368C149.97 84.6899 150.303 84.9338 150.72 85.0995C151.141 85.2605 151.617 85.341 152.148 85.341C152.668 85.341 153.121 85.2652 153.504 85.1137C153.892 84.9622 154.193 84.7515 154.406 84.4816C154.619 84.2117 154.726 83.9016 154.726 83.5512C154.726 83.2245 154.629 82.9499 154.435 82.7273C154.245 82.5048 153.966 82.3154 153.597 82.1592C153.232 82.0029 152.784 81.8609 152.254 81.733L150.67 81.3353C149.444 81.037 148.476 80.5706 147.766 79.9361C147.055 79.3017 146.703 78.447 146.707 77.3722C146.703 76.4915 146.937 75.7221 147.41 75.064C147.889 74.4058 148.544 73.8921 149.378 73.5228C150.211 73.1535 151.158 72.9688 152.219 72.9688C153.298 72.9688 154.24 73.1535 155.045 73.5228C155.855 73.8921 156.485 74.4058 156.935 75.064C157.384 75.7221 157.616 76.4844 157.631 77.3509H154.683ZM159.898 87.7131V73.1677H169.699V75.7032H162.973V79.1691H169.195V81.7046H162.973V85.1776H169.728V87.7131H159.898Z" fill="#690000"/>
<path fill-rule="evenodd" clip-rule="evenodd" d="M62.2949 2.35867C62.4247 1.74451 62.0321 1.14136 61.418 1.01151C60.8038 0.881658 60.2007 1.27427 60.0708 1.88843C58.8576 7.62674 56.1721 17.0398 52.0718 26.5522C51.4868 27.9094 50.8741 29.2661 50.2339 30.6123C50.9962 30.7987 51.6808 31.1831 52.2301 31.7079C52.9052 30.2922 53.5483 28.8697 54.1594 27.452C58.3238 17.7908 61.053 8.23269 62.2949 2.35867ZM48.2713 39.2199C47.5012 39.0584 46.8049 38.6962 46.2397 38.1905C43.1851 43.3986 39.6783 48.1103 35.7396 51.6415C35.4484 51.9027 35.1602 52.1652 34.8752 52.4291C35.5577 52.7929 36.1333 53.3307 36.543 53.9833C36.7788 53.7659 37.0169 53.5495 37.2571 53.3341C41.4389 49.585 45.1108 44.628 48.2713 39.2199ZM30.5944 60.1499C29.9264 59.7633 29.369 59.2066 28.9816 58.5391L28.8597 58.6806C29.4655 59.1869 29.9335 59.8527 30.1992 60.6133C30.33 60.4587 30.4617 60.3042 30.5944 60.1499ZM13.2998 86.6483C14.3595 82.4537 17.5575 74.3117 23.4851 65.6752C24.1198 66.1241 24.8782 66.4096 25.6991 66.4707C19.7201 75.0461 16.524 83.1667 15.5038 87.2051L13.2998 86.6483Z" fill="#690000"/>
<circle cx="32.8192" cy="56.3423" r="3.27727" stroke="#690000" stroke-width="2.27325"/>
<circle cx="26.0487" cy="51.2855" r="3.27727" stroke="#690000" stroke-width="2.27325"/>
<circle cx="37.8104" cy="63.7988" r="3.27727" stroke="#690000" stroke-width="2.27325"/>
<circle cx="42.2244" cy="52.8283" r="3.27727" stroke="#690000" stroke-width="2.27325"/>
<circle cx="26.0487" cy="62.0846" r="3.27727" stroke="#690000" stroke-width="2.27325"/>
<circle cx="18.078" cy="58.2278" r="3.27727" stroke="#690000" stroke-width="2.27325"/>
<circle cx="18.078" cy="67.0556" r="3.27727" stroke="#690000" stroke-width="2.27325"/>
<circle cx="9.25081" cy="62.0846" r="3.27727" stroke="#690000" stroke-width="2.27325"/>
<circle cx="27.9442" cy="70.9124" r="3.27727" stroke="#690000" stroke-width="2.27325"/>
<circle cx="38.8289" cy="73.9122" r="3.27727" stroke="#690000" stroke-width="2.27325"/>
<circle cx="49.1991" cy="34.9155" r="3.27727" stroke="#690000" stroke-width="2.27325"/>
<circle cx="47.6571" cy="26.0877" r="3.27727" stroke="#690000" stroke-width="2.27325"/>
<circle cx="52.0701" cy="18.7169" r="3.27727" stroke="#690000" stroke-width="2.27325"/>
<circle cx="42.2244" cy="18.7169" r="3.27727" stroke="#690000" stroke-width="2.27325"/>
<circle cx="40.3719" cy="32.1729" r="3.27727" stroke="#690000" stroke-width="2.27325"/>
<circle cx="57.2557" cy="30.5017" r="3.27727" stroke="#690000" stroke-width="2.27325"/>
<circle cx="57.2557" cy="40.1268" r="3.27727" stroke="#690000" stroke-width="2.27325"/>
<circle cx="65.6141" cy="34.9155" r="3.27727" stroke="#690000" stroke-width="2.27325"/>
<path d="M2.36311 40.3709C2.25685 40.3074 2.1625 40.2685 2.08203 40.2506C2.17459 40.2894 2.26831 40.3295 2.36311 40.3709Z" fill="#690000"/>
<path d="M6.13537 48.2381L7.23703 47.9583L7.23703 47.9583L6.13537 48.2381ZM2.08203 40.2506L2.3286 39.1411C1.75407 39.0134 1.17711 39.3454 0.998815 39.9063C0.820523 40.4672 1.09988 41.0714 1.64268 41.2989L2.08203 40.2506ZM14.8799 55.2617C12.8956 54.7279 8.60128 53.33 7.23703 47.9583L5.03372 48.5178C6.7214 55.163 12.1411 56.879 14.2893 57.4569L14.8799 55.2617ZM7.23703 47.9583C6.54368 45.2282 5.78069 43.2935 5.05563 41.9522C4.34727 40.6418 3.62215 39.7993 2.94633 39.3953L1.77989 41.3465C1.94238 41.4436 2.42624 41.8685 3.05586 43.0332C3.66877 44.1671 4.37277 45.9153 5.03372 48.5178L7.23703 47.9583ZM2.94633 39.3953C2.76723 39.2883 2.55891 39.1922 2.3286 39.1411L1.83546 41.3602C1.79826 41.3519 1.77579 41.3429 1.76913 41.3401C1.76205 41.3371 1.76564 41.338 1.77989 41.3465L2.94633 39.3953ZM1.64268 41.2989C1.72987 41.3354 1.81841 41.3733 1.90821 41.4125L2.81801 39.3293C2.71821 39.2857 2.61931 39.2434 2.52138 39.2023L1.64268 41.2989ZM1.90821 41.4125C4.51544 42.5512 8.03671 44.7367 10.9296 47.2411C12.3736 48.4911 13.6292 49.7934 14.5316 51.054C15.4462 52.3317 15.9264 53.467 15.9791 54.4L18.2487 54.2718C18.1611 52.7211 17.4074 51.166 16.3801 49.7308C15.3405 48.2786 13.946 46.8456 12.4175 45.5224C9.36533 42.8801 5.65149 40.5667 2.81801 39.3293L1.90821 41.4125Z" fill="#690000"/>
<path d="M59.3966 59.6917L58.9633 60.7425L59.3966 59.6917ZM68.9438 61.524L69.9022 62.135C70.1718 61.7121 70.1324 61.1625 69.8052 60.7824C69.478 60.4024 68.9404 60.2816 68.4821 60.4853L68.9438 61.524ZM56.1178 69.046L56.19 70.1803L56.19 70.1803L56.1178 69.046ZM41.7165 62.5678C43.5648 61.7711 46.3037 60.6543 49.3921 60.0711C52.4819 59.4876 55.8393 59.4543 58.9633 60.7425L59.8299 58.6409C56.1573 57.1266 52.3142 57.2058 48.9703 57.8373C45.6251 58.469 42.6972 59.6696 40.8167 60.4802L41.7165 62.5678ZM58.9633 60.7425C61.8285 61.9239 64.0923 62.5091 65.7858 62.743C66.6322 62.8598 67.3478 62.8906 67.9322 62.8596C68.496 62.8298 69.0082 62.7392 69.4054 62.5626L68.4821 60.4853C68.4454 60.5016 68.246 60.5666 67.812 60.5896C67.3985 60.6115 66.8299 60.5923 66.0968 60.4911C64.6316 60.2887 62.5557 59.7649 59.8299 58.6409L58.9633 60.7425ZM67.9853 60.913C67.2634 62.0454 65.7011 63.7222 63.5677 65.1615C61.4428 66.5949 58.8382 67.7339 56.0455 67.9117L56.19 70.1803C59.4969 69.9698 62.4857 68.6336 64.839 67.046C67.1838 65.4642 68.9847 63.5741 69.9022 62.135L67.9853 60.913ZM56.0455 67.9117C52.1382 68.1604 49.616 68.0669 47.5044 67.6451C45.4025 67.2252 43.6406 66.4676 41.2454 65.2793L40.2351 67.3157C42.6747 68.5261 44.6545 69.394 47.0591 69.8743C49.454 70.3527 52.2032 70.4341 56.19 70.1803L56.0455 67.9117Z" fill="#690000"/>
<path d="M23.8599 10.6791L23.6686 9.55864L23.6686 9.55864L23.8599 10.6791ZM12.4805 10.6791L13.1547 9.76401C12.6753 9.41072 12.0044 9.48743 11.6171 9.93983C11.2297 10.3922 11.2573 11.0669 11.6802 11.4862L12.4805 10.6791ZM41.3359 13.9434C38.6732 11.9165 31.4792 8.22513 23.6686 9.55864L24.0512 11.7995C31.0227 10.6092 37.5892 13.9483 39.959 15.7522L41.3359 13.9434ZM23.6686 9.55864C20.0323 10.1795 17.4516 10.3011 15.7232 10.2142C14.8585 10.1708 14.2218 10.0759 13.7809 9.97201C13.3089 9.86076 13.1482 9.7592 13.1547 9.76401L11.8062 11.5941C12.1695 11.8618 12.6857 12.0494 13.2594 12.1846C13.8643 12.3272 14.6421 12.436 15.6091 12.4846C17.5443 12.5818 20.2965 12.4405 24.0512 11.7995L23.6686 9.55864ZM11.6802 11.4862C13.9493 13.7359 18.0852 17.0541 22.9261 19.3137C27.7476 21.5642 33.4736 22.856 38.7675 20.6992L37.9098 18.594C33.4691 20.4031 28.4631 19.3894 23.8876 17.2538C19.3316 15.1272 15.4057 11.9787 13.2807 9.8719L11.6802 11.4862Z" fill="#690000"/>
<path fill-rule="evenodd" clip-rule="evenodd" d="M14.7205 13.426H15.6119C16.5663 14.1772 17.6314 14.9505 18.7815 15.6993H14.7205V49.5557C14.0563 48.7332 13.2857 47.9187 12.4473 47.13V15.6993V13.426H14.7205ZM64.9372 15.6993H40.1646L40.6437 14.8478C40.0926 14.4283 39.3321 13.932 38.4028 13.426H64.9372H67.2104V15.6993V30.8006C66.7143 30.6075 66.1747 30.5016 65.6103 30.5016C65.3815 30.5016 65.1567 30.519 64.9372 30.5526V15.6993ZM64.9372 39.2784V61.4475C65.8424 61.6274 66.5987 61.7107 67.2104 61.7299V39.0304C66.7143 39.2235 66.1747 39.3294 65.6103 39.3294C65.3815 39.3294 65.1567 39.312 64.9372 39.2784ZM64.9372 65.5816V85.4399H14.7205V56.2472L14.5804 56.3593C14.0389 56.3183 13.2869 56.1462 12.4473 55.7991V85.4399V87.7131H14.7205H64.9372H67.2104V85.4399V63.6207C66.566 64.2702 65.8013 64.9415 64.9372 65.5816Z" fill="#690000"/>
</svg>
