<svg width="137" height="51" viewBox="0 0 137 51" fill="none" xmlns="http://www.w3.org/2000/svg">
<path d="M53.0443 11.6919H49.9335C49.8767 11.2894 49.7607 10.932 49.5855 10.6195C49.4103 10.3022 49.1854 10.0323 48.9108 9.80979C48.6362 9.58725 48.3189 9.4168 47.9591 9.29843C47.604 9.18006 47.2181 9.12087 46.8014 9.12087C46.0486 9.12087 45.3928 9.3079 44.8341 9.68195C44.2754 10.0513 43.8421 10.591 43.5344 11.3013C43.2266 12.0068 43.0727 12.8638 43.0727 13.8723C43.0727 14.9092 43.2266 15.7804 43.5344 16.4859C43.8469 17.1914 44.2825 17.7241 44.8412 18.0839C45.3999 18.4438 46.0462 18.6237 46.7801 18.6237C47.192 18.6237 47.5732 18.5693 47.9236 18.4604C48.2787 18.3515 48.5935 18.1928 48.8682 17.9845C49.1428 17.7714 49.3701 17.5134 49.55 17.2104C49.7346 16.9073 49.8625 16.5617 49.9335 16.1734L53.0443 16.1876C52.9638 16.8552 52.7626 17.4992 52.4406 18.1195C52.1234 18.735 51.6949 19.2866 51.1551 19.7743C50.6201 20.2572 49.9809 20.6408 49.2375 20.9248C48.4988 21.2042 47.6631 21.3439 46.7304 21.3439C45.433 21.3439 44.273 21.0503 43.2503 20.4632C42.2323 19.8761 41.4273 19.0262 40.8355 17.9135C40.2484 16.8008 39.9548 15.4537 39.9548 13.8723C39.9548 12.2861 40.2531 10.9367 40.8497 9.824C41.4463 8.71131 42.2559 7.86377 43.2787 7.28138C44.3014 6.69426 45.452 6.4007 46.7304 6.4007C47.5732 6.4007 48.3544 6.51907 49.0741 6.75581C49.7986 6.99256 50.4401 7.3382 50.9988 7.79275C51.5576 8.24256 52.0121 8.79417 52.3625 9.44758C52.7176 10.101 52.9449 10.8491 53.0443 11.6919ZM68.616 13.8723C68.616 15.4585 68.3154 16.8079 67.714 17.9206C67.1175 19.0333 66.3031 19.8832 65.2709 20.4703C64.2434 21.0527 63.0881 21.3439 61.805 21.3439C60.5123 21.3439 59.3523 21.0503 58.3248 20.4632C57.2974 19.8761 56.4854 19.0262 55.8888 17.9135C55.2922 16.8008 54.9939 15.4537 54.9939 13.8723C54.9939 12.2861 55.2922 10.9367 55.8888 9.824C56.4854 8.71131 57.2974 7.86377 58.3248 7.28138C59.3523 6.69426 60.5123 6.4007 61.805 6.4007C63.0881 6.4007 64.2434 6.69426 65.2709 7.28138C66.3031 7.86377 67.1175 8.71131 67.714 9.824C68.3154 10.9367 68.616 12.2861 68.616 13.8723ZM65.4981 13.8723C65.4981 12.8448 65.3443 11.9784 65.0365 11.2729C64.7335 10.5674 64.305 10.0323 63.751 9.66775C63.197 9.30316 62.5483 9.12087 61.805 9.12087C61.0616 9.12087 60.4129 9.30316 59.8589 9.66775C59.305 10.0323 58.8741 10.5674 58.5663 11.2729C58.2633 11.9784 58.1118 12.8448 58.1118 13.8723C58.1118 14.8998 58.2633 15.7662 58.5663 16.4717C58.8741 17.1772 59.305 17.7123 59.8589 18.0768C60.4129 18.4414 61.0616 18.6237 61.805 18.6237C62.5483 18.6237 63.197 18.4414 63.751 18.0768C64.305 17.7123 64.7335 17.1772 65.0365 16.4717C65.3443 15.7662 65.4981 14.8998 65.4981 13.8723ZM70.8941 21.145V6.59956H80.5248V9.13508H73.9694V12.601H79.8856V15.1365H73.9694V21.145H70.8941ZM82.5933 21.145V6.59956H92.224V9.13508H85.6686V12.601H91.5848V15.1365H85.6686V21.145H82.5933ZM94.2925 21.145V6.59956H104.094V9.13508H97.3678V12.601H103.589V15.1365H97.3678V18.6095H104.122V21.145H94.2925ZM106.539 21.145V6.59956H116.34V9.13508H109.614V12.601H115.835V15.1365H109.614V18.6095H116.368V21.145H106.539ZM48.1011 34.7828C48.0443 34.2099 47.8005 33.7648 47.3696 33.4476C46.9387 33.1303 46.354 32.9717 45.6153 32.9717C45.1134 32.9717 44.6897 33.0427 44.344 33.1848C43.9984 33.3221 43.7332 33.5139 43.5486 33.7601C43.3686 34.0063 43.2787 34.2856 43.2787 34.5981C43.2692 34.8586 43.3237 35.0858 43.442 35.28C43.5651 35.4741 43.7332 35.6422 43.9463 35.7842C44.1594 35.9215 44.4056 36.0423 44.6849 36.1464C44.9643 36.2459 45.2626 36.3311 45.5798 36.4021L46.8866 36.7146C47.5211 36.8567 48.1035 37.0461 48.6338 37.2828C49.1641 37.5195 49.6234 37.8107 50.0116 38.1564C50.3999 38.502 50.7006 38.9092 50.9136 39.378C51.1314 39.8467 51.2427 40.3841 51.2474 40.9902C51.2427 41.8803 51.0154 42.6521 50.5656 43.3055C50.1205 43.9542 49.4766 44.4585 48.6338 44.8183C47.7957 45.1734 46.7848 45.351 45.6011 45.351C44.4269 45.351 43.4041 45.1711 42.5329 44.8112C41.6665 44.4514 40.9894 43.9187 40.5017 43.2132C40.0187 42.503 39.7654 41.6247 39.7417 40.5783H42.7176C42.7507 41.0659 42.8904 41.4731 43.1366 41.7998C43.3876 42.1218 43.7214 42.3657 44.1381 42.5314C44.5595 42.6924 45.0353 42.7729 45.5656 42.7729C46.0864 42.7729 46.5386 42.6971 46.9221 42.5456C47.3104 42.3941 47.6111 42.1834 47.8241 41.9135C48.0372 41.6436 48.1437 41.3335 48.1437 40.9831C48.1437 40.6564 48.0467 40.3818 47.8525 40.1592C47.6631 39.9367 47.3838 39.7473 47.0145 39.591C46.6499 39.4348 46.2024 39.2927 45.6721 39.1649L44.0883 38.7672C42.862 38.4689 41.8937 38.0025 41.1835 37.368C40.4733 36.7336 40.1205 35.8789 40.1253 34.8041C40.1205 33.9234 40.3549 33.154 40.8284 32.4959C41.3066 31.8377 41.9624 31.324 42.7957 30.9547C43.6291 30.5854 44.576 30.4007 45.6366 30.4007C46.7162 30.4007 47.6584 30.5854 48.4633 30.9547C49.273 31.324 49.9027 31.8377 50.3525 32.4959C50.8023 33.154 51.0344 33.9163 51.0486 34.7828H48.1011ZM62.3003 30.5996H65.3756V40.0456C65.3756 41.1062 65.1223 42.0342 64.6157 42.8297C64.1138 43.6251 63.4107 44.2454 62.5063 44.6905C61.6019 45.1308 60.5484 45.351 59.3458 45.351C58.1384 45.351 57.0825 45.1308 56.1782 44.6905C55.2738 44.2454 54.5707 43.6251 54.0688 42.8297C53.5669 42.0342 53.316 41.1062 53.316 40.0456V30.5996H56.3912V39.7828C56.3912 40.3368 56.512 40.8292 56.7535 41.2601C56.9997 41.6909 57.3453 42.0295 57.7904 42.2757C58.2355 42.5219 58.7539 42.645 59.3458 42.645C59.9424 42.645 60.4608 42.5219 60.9012 42.2757C61.3463 42.0295 61.6895 41.6909 61.931 41.2601C62.1772 40.8292 62.3003 40.3368 62.3003 39.7828V30.5996ZM67.9058 45.145V30.5996H73.6444C74.7429 30.5996 75.6804 30.7961 76.4569 31.1891C77.2382 31.5773 77.8324 32.1289 78.2396 32.8439C78.6515 33.5541 78.8575 34.3898 78.8575 35.351C78.8575 36.3169 78.6492 37.1479 78.2325 37.8439C77.8158 38.5352 77.2122 39.0655 76.4214 39.4348C75.6354 39.8041 74.6837 39.9888 73.5663 39.9888H69.724V37.5172H73.0692C73.6563 37.5172 74.144 37.4367 74.5322 37.2757C74.9205 37.1147 75.2093 36.8732 75.3987 36.5513C75.5928 36.2293 75.6899 35.8292 75.6899 35.351C75.6899 34.868 75.5928 34.4608 75.3987 34.1294C75.2093 33.798 74.9181 33.547 74.5251 33.3766C74.1369 33.2014 73.6468 33.1138 73.055 33.1138H70.9811V45.145H67.9058ZM75.7609 38.5257L79.376 45.145H75.9811L72.4442 38.5257H75.7609ZM81.0308 45.145V30.5996H86.7694C87.8727 30.5996 88.8125 30.8103 89.589 31.2317C90.3656 31.6483 90.9574 32.2284 91.3646 32.9717C91.7765 33.7104 91.9825 34.5626 91.9825 35.5285C91.9825 36.4945 91.7742 37.3467 91.3575 38.0854C90.9408 38.824 90.3372 39.3993 89.5464 39.8112C88.7604 40.2231 87.8087 40.4291 86.6913 40.4291H83.0336V37.9646H86.1942C86.786 37.9646 87.2737 37.8628 87.6572 37.6592C88.0455 37.4509 88.3343 37.1644 88.5237 36.7998C88.7178 36.4305 88.8149 36.0068 88.8149 35.5285C88.8149 35.0456 88.7178 34.6242 88.5237 34.2643C88.3343 33.8998 88.0455 33.618 87.6572 33.4192C87.269 33.2156 86.7765 33.1138 86.18 33.1138H84.1061V45.145H81.0308ZM93.98 45.145V30.5996H99.7187C100.817 30.5996 101.755 30.7961 102.531 31.1891C103.312 31.5773 103.907 32.1289 104.314 32.8439C104.726 33.5541 104.932 34.3898 104.932 35.351C104.932 36.3169 104.723 37.1479 104.307 37.8439C103.89 38.5352 103.286 39.0655 102.496 39.4348C101.71 39.8041 100.758 39.9888 99.6405 39.9888H95.7982V37.5172H99.1434C99.7305 37.5172 100.218 37.4367 100.606 37.2757C100.995 37.1147 101.284 36.8732 101.473 36.5513C101.667 36.2293 101.764 35.8292 101.764 35.351C101.764 34.868 101.667 34.4608 101.473 34.1294C101.284 33.798 100.992 33.547 100.599 33.3766C100.211 33.2014 99.721 33.1138 99.1292 33.1138H97.0553V45.145H93.98ZM101.835 38.5257L105.45 45.145H102.055L98.5184 38.5257H101.835ZM110.18 30.5996V45.145H107.105V30.5996H110.18ZM120.601 34.7828C120.544 34.2099 120.3 33.7648 119.87 33.4476C119.439 33.1303 118.854 32.9717 118.115 32.9717C117.613 32.9717 117.19 33.0427 116.844 33.1848C116.498 33.3221 116.233 33.5139 116.049 33.7601C115.869 34.0063 115.779 34.2856 115.779 34.5981C115.769 34.8586 115.824 35.0858 115.942 35.28C116.065 35.4741 116.233 35.6422 116.446 35.7842C116.659 35.9215 116.906 36.0423 117.185 36.1464C117.464 36.2459 117.763 36.3311 118.08 36.4021L119.387 36.7146C120.021 36.8567 120.603 37.0461 121.134 37.2828C121.664 37.5195 122.123 37.8107 122.512 38.1564C122.9 38.502 123.201 38.9092 123.414 39.378C123.631 39.8467 123.743 40.3841 123.747 40.9902C123.743 41.8803 123.515 42.6521 123.066 43.3055C122.621 43.9542 121.977 44.4585 121.134 44.8183C120.296 45.1734 119.285 45.351 118.101 45.351C116.927 45.351 115.904 45.1711 115.033 44.8112C114.166 44.4514 113.489 43.9187 113.002 43.2132C112.519 42.503 112.265 41.6247 112.242 40.5783H115.218C115.251 41.0659 115.39 41.4731 115.637 41.7998C115.888 42.1218 116.221 42.3657 116.638 42.5314C117.059 42.6924 117.535 42.7729 118.066 42.7729C118.586 42.7729 119.039 42.6971 119.422 42.5456C119.81 42.3941 120.111 42.1834 120.324 41.9135C120.537 41.6436 120.644 41.3335 120.644 40.9831C120.644 40.6564 120.547 40.3818 120.353 40.1592C120.163 39.9367 119.884 39.7473 119.514 39.591C119.15 39.4348 118.702 39.2927 118.172 39.1649L116.588 38.7672C115.362 38.4689 114.394 38.0025 113.684 37.368C112.973 36.7336 112.621 35.8789 112.625 34.8041C112.621 33.9234 112.855 33.154 113.328 32.4959C113.807 31.8377 114.462 31.324 115.296 30.9547C116.129 30.5854 117.076 30.4007 118.137 30.4007C119.216 30.4007 120.158 30.5854 120.963 30.9547C121.773 31.324 122.403 31.8377 122.853 32.4959C123.302 33.154 123.534 33.9163 123.549 34.7828H120.601ZM125.816 45.145V30.5996H135.617V33.1351H128.891V36.601H135.113V39.1365H128.891V42.6095H135.646V45.145H125.816Z" fill="#690000"/>
<path fill-rule="evenodd" clip-rule="evenodd" d="M32.2028 0.914146C32.2701 0.595885 32.0667 0.283335 31.7484 0.216046C31.4302 0.148756 31.1176 0.352209 31.0503 0.67047C30.4216 3.64407 29.03 8.52195 26.9052 13.4513C26.6021 14.1546 26.2845 14.8576 25.9528 15.5552C26.3478 15.6519 26.7026 15.8511 26.9872 16.123C27.3371 15.3894 27.6703 14.6522 27.987 13.9176C30.145 8.91111 31.5593 3.95807 32.2028 0.914146ZM24.9358 20.0157C24.5367 19.932 24.1759 19.7444 23.8829 19.4823C22.3001 22.1812 20.4828 24.6228 18.4418 26.4526C18.2909 26.588 18.1416 26.724 17.9939 26.8608C18.3476 27.0493 18.6459 27.3279 18.8582 27.6661C18.9804 27.5535 19.1037 27.4414 19.2282 27.3297C21.3952 25.3869 23.298 22.8182 24.9358 20.0157ZM15.7756 30.8617C15.4294 30.6613 15.1406 30.3729 14.9398 30.0269L14.8769 30.0999C15.1909 30.3622 15.4335 30.7071 15.5713 31.1012C15.6389 31.0213 15.707 30.9415 15.7756 30.8617ZM6.81348 44.5932C7.36262 42.4195 9.01993 38.2001 12.0918 33.7246C12.4206 33.9573 12.8135 34.1053 13.2388 34.1371C10.1405 38.5809 8.48428 42.789 7.9556 44.8817L6.81348 44.5932Z" fill="#690000"/>
<circle cx="16.9289" cy="28.8886" r="1.69829" stroke="#690000" stroke-width="1.178"/>
<circle cx="13.4191" cy="26.2682" r="1.69829" stroke="#690000" stroke-width="1.178"/>
<circle cx="19.5148" cy="32.7526" r="1.69829" stroke="#690000" stroke-width="1.178"/>
<circle cx="21.8019" cy="27.0676" r="1.69829" stroke="#690000" stroke-width="1.178"/>
<circle cx="13.4191" cy="31.8643" r="1.69829" stroke="#690000" stroke-width="1.178"/>
<circle cx="9.28924" cy="29.8657" r="1.69829" stroke="#690000" stroke-width="1.178"/>
<circle cx="9.28924" cy="34.4402" r="1.69829" stroke="#690000" stroke-width="1.178"/>
<circle cx="4.71503" cy="31.8643" r="1.69829" stroke="#690000" stroke-width="1.178"/>
<circle cx="14.4025" cy="36.4389" r="1.69829" stroke="#690000" stroke-width="1.178"/>
<circle cx="20.0422" cy="37.9933" r="1.69829" stroke="#690000" stroke-width="1.178"/>
<circle cx="25.4162" cy="17.7852" r="1.69829" stroke="#690000" stroke-width="1.178"/>
<circle cx="24.6174" cy="13.2106" r="1.69829" stroke="#690000" stroke-width="1.178"/>
<circle cx="26.9045" cy="9.39099" r="1.69829" stroke="#690000" stroke-width="1.178"/>
<circle cx="21.8019" cy="9.39099" r="1.69829" stroke="#690000" stroke-width="1.178"/>
<circle cx="20.842" cy="16.364" r="1.69829" stroke="#690000" stroke-width="1.178"/>
<circle cx="29.591" cy="15.4979" r="1.69829" stroke="#690000" stroke-width="1.178"/>
<circle cx="29.591" cy="20.4857" r="1.69829" stroke="#690000" stroke-width="1.178"/>
<circle cx="33.9221" cy="17.7852" r="1.69829" stroke="#690000" stroke-width="1.178"/>
<path d="M1.14566 20.6122C1.09059 20.5793 1.0417 20.5591 1 20.5499C1.04796 20.57 1.09653 20.5908 1.14566 20.6122Z" fill="#690000"/>
<path d="M3.10045 24.689L2.52957 24.834L3.10045 24.689ZM1 20.5499L1.12777 19.9749C0.83005 19.9087 0.531066 20.0808 0.438675 20.3714C0.346284 20.6621 0.491048 20.9752 0.772327 21.0931L1 20.5499ZM7.63188 28.3287C6.60363 28.052 4.37829 27.3276 3.67133 24.544L2.52957 24.834C3.40413 28.2775 6.21263 29.1667 7.32583 29.4662L7.63188 28.3287ZM3.67133 24.544C3.31204 23.1293 2.91665 22.1267 2.54093 21.4316C2.17385 20.7526 1.79809 20.316 1.44788 20.1067L0.843431 21.1178C0.927632 21.1681 1.17837 21.3883 1.50464 21.9918C1.82225 22.5794 2.18706 23.4853 2.52957 24.834L3.67133 24.544ZM1.44788 20.1067C1.35507 20.0512 1.24712 20.0014 1.12777 19.9749L0.872228 21.1248C0.852952 21.1206 0.841305 21.1159 0.837853 21.1144C0.834183 21.1129 0.836047 21.1133 0.843431 21.1178L1.44788 20.1067ZM0.772327 21.0931C0.817512 21.112 0.863389 21.1317 0.909927 21.152L1.38139 20.0724C1.32967 20.0499 1.27842 20.0279 1.22767 20.0066L0.772327 21.0931ZM0.909927 21.152C2.261 21.742 4.08573 22.8745 5.58484 24.1723C6.33312 24.8201 6.98376 25.495 7.45139 26.1482C7.92535 26.8103 8.17417 27.3987 8.20148 27.8821L9.37761 27.8157C9.33222 27.0121 8.94164 26.2062 8.40927 25.4625C7.87057 24.71 7.14795 23.9674 6.35586 23.2817C4.77422 21.9125 2.8497 20.7137 1.38139 20.0724L0.909927 21.152Z" fill="#690000"/>
<path d="M30.7 30.6243L30.4755 31.1688L30.7 30.6243ZM35.6474 31.5738L36.144 31.8904C36.2837 31.6712 36.2633 31.3865 36.0937 31.1895C35.9242 30.9925 35.6456 30.93 35.4081 31.0355L35.6474 31.5738ZM29.0009 35.4717L28.9635 34.8839L28.9635 34.8839L29.0009 35.4717ZM21.5381 32.1147C22.4959 31.7018 23.9152 31.1231 25.5157 30.8209C27.1168 30.5185 28.8566 30.5013 30.4755 31.1688L30.9245 30.0797C29.0214 29.295 27.0299 29.3361 25.2971 29.6633C23.5636 29.9907 22.0463 30.6128 21.0718 31.0329L21.5381 32.1147ZM30.4755 31.1688C31.9602 31.781 33.1333 32.0842 34.0109 32.2054C34.4495 32.266 34.8203 32.2819 35.1232 32.2659C35.4153 32.2504 35.6807 32.2035 35.8866 32.112L35.4081 31.0355C35.3891 31.044 35.2858 31.0776 35.0609 31.0896C34.8466 31.1009 34.5519 31.091 34.1721 31.0385C33.4128 30.9337 32.3371 30.6622 30.9245 30.0797L30.4755 31.1688ZM35.1507 31.2571C34.7766 31.844 33.967 32.7129 32.8615 33.4587C31.7603 34.2016 30.4106 34.7918 28.9635 34.8839L29.0383 36.0595C30.752 35.9504 32.3008 35.258 33.5202 34.4353C34.7353 33.6156 35.6686 32.6362 36.144 31.8904L35.1507 31.2571ZM28.9635 34.8839C26.9387 35.0128 25.6317 34.9643 24.5374 34.7457C23.4482 34.5282 22.5352 34.1356 21.294 33.5198L20.7705 34.5751C22.0346 35.2023 23.0606 35.652 24.3067 35.9009C25.5477 36.1488 26.9723 36.191 29.0383 36.0595L28.9635 34.8839Z" fill="#690000"/>
<path d="M6.3877 5.22586L6.73709 4.75168C6.48863 4.5686 6.14099 4.60836 5.94028 4.84279C5.73956 5.07722 5.75384 5.42684 5.973 5.64413L6.3877 5.22586ZM21.3406 6.91742C19.9608 5.86712 16.2329 3.95423 12.1854 4.64526L12.3837 5.80646C15.9963 5.18966 19.3991 6.91999 20.6271 7.85477L21.3406 6.91742ZM12.1854 4.64526C10.3011 4.96698 8.96376 5.02998 8.06807 4.98499C7.61998 4.96248 7.29005 4.91331 7.0616 4.85947C6.81701 4.80182 6.73371 4.74919 6.73709 4.75168L6.0383 5.70004C6.22657 5.83876 6.49406 5.93598 6.79136 6.00605C7.10479 6.07993 7.50783 6.13634 8.00898 6.16151C9.01177 6.21188 10.438 6.13865 12.3837 5.80646L12.1854 4.64526ZM5.973 5.64413C7.14884 6.80992 9.29206 8.52942 11.8007 9.70034C14.2992 10.8665 17.2664 11.536 20.0097 10.4183L19.5652 9.32739C17.2641 10.2649 14.6699 9.73959 12.2989 8.63289C9.93799 7.53091 7.90356 5.89934 6.80239 4.80759L5.973 5.64413Z" fill="#690000"/>
<path fill-rule="evenodd" clip-rule="evenodd" d="M7.54812 6.64935H8.0101C8.50466 7.03862 9.05663 7.43933 9.65258 7.82736H7.54812V25.3722C7.20393 24.946 6.80462 24.5238 6.37012 24.1151V7.82736V6.64935H7.54812ZM33.5705 7.82736H20.7333L20.9816 7.38612C20.696 7.16873 20.302 6.91156 19.8204 6.64935H33.5705H34.7485V7.82736V15.6525C34.4917 15.5527 34.2123 15.4979 33.9202 15.4979C33.8013 15.4979 33.6845 15.507 33.5705 15.5245V7.82736ZM33.5705 20.0459V31.5342C34.0396 31.6274 34.4315 31.6706 34.7485 31.6805V19.9179C34.4917 20.0177 34.2123 20.0725 33.9202 20.0725C33.8013 20.0725 33.6845 20.0634 33.5705 20.0459ZM33.5705 33.6763V43.9671H7.54812V28.8391L7.47518 28.8975C7.19464 28.8762 6.80508 28.7871 6.37012 28.6073V43.9671V45.1451H7.54812H33.5705H34.7485V43.9671V32.6601C34.4146 32.9967 34.0183 33.3446 33.5705 33.6763Z" fill="#690000"/>
</svg>
