<svg id="Layer_1" data-name="Layer 1" xmlns="http://www.w3.org/2000/svg" viewBox="0 0 246 182"><path d="M100.37,63.85c-1.41-2.35-4-5.76-5.89-8.67C92.41,52.08,91,49.5,91,49.5H82v17H69c0-15.77.21-33.11,0-49,0-1.74,0-4.5-2-5,9.94,0,23-1,33.73,1.32,6.82,1.47,12.12,6.21,13.11,12.62,1.18,7.55-.16,14.31-7.1,18.88-1,.63-2,1.16-3.5,2,4.14,6.14,8.13,12.27,12.76,19.15H102M81.76,38.24c4.94,0,9.88.45,14.68-.15C100,37.65,102.09,34.9,102,31c-.12-3.64-1.89-6.18-5.46-6.6-4.8-.57-9.68-.54-14.74-.78Z"/><path d="M186.13,39.24c.14,15.72-12.21,27.84-28.37,27.84s-28.27-11.6-28.38-27.21S141.57,12.06,157.73,12C173.66,11.86,186,23.71,186.13,39.24ZM157.91,55.9a16,16,0,0,0,15.81-16.47,16.31,16.31,0,0,0-16.15-16.31c-9,0-15.7,7.14-15.61,16.54S148.87,55.93,157.91,55.9Z"/><path d="M.87,12.5c8,0,20-.34,29.09,1,12.86,1.89,22.7,12.24,22.91,25.42.22,13.55-8.4,27.58-22,27.58H4v-49C4,14.92,3,14,.87,12.5ZM16,55.35c8.51.23,17,1.23,22.06-7.3a15.76,15.76,0,0,0-.64-17.92C32,22.51,24,23,16,23.5Z"/><path d="M215,50.36c0,5.46,0,10.87,0,16.14H203v-51a4.09,4.09,0,0,0-2-3c10,0,22-1,32.23,2a16,16,0,0,1,12,15.3c.4,9-2.86,15.22-10.28,18.13-3.63,1.43-7.7,1.83-11.62,2.35A65.79,65.79,0,0,1,215,50.36Zm0-10.52c6.41-1,13.26,2.18,17-4.48,1.17-2.09,1-6.38-.45-8.2-4.2-5.33-10.46-3.11-16.3-3.37-.09,2-.2,3.44-.21,4.9C214.94,32.14,215,35.59,215,39.84Z"/><path d="M62,116.5C51,116.42,43,108.5,43,97.72s8.54-19,19.67-18.8,19.19,8.2,19.19,18.83S73.27,116.57,62,116.5Zm11-18.76c-.06-6.23-5-11.29-10.9-11.23a11.17,11.17,0,0,0,.57,22.33A10.66,10.66,0,0,0,73.07,97.74Z"/><path d="M180,100.5v8h19v7c-9.24,0-17.66.24-27.36.24V81.53c0-.6-.64-2-1.64-2h29v7H180v8h17v6Z"/><path d="M221,100.5v8h19v7c-9.24,0-17.66.24-27.36.24V81.53c0-.6-.64-2-1.64-2h29v7H221v8h17v6Z"/><path d="M101.86,115.72H93.3V82.5a4.24,4.24,0,0,0-1.34-3h29v8H102v7h17v8H102C102,107.3,101.86,111.14,101.86,115.72Z"/><path d="M140.86,115.72H132.3V82.5a4.24,4.24,0,0,0-1.34-3h29v8H141v7h17v8H141C141,107.3,140.86,111.14,140.86,115.72Z"/><path d="M34.44,84.73l-4.91,5.64c-8.32-4.9-13.34-4.88-17.26-.12a12.41,12.41,0,0,0,.19,15.23c3.93,4.48,9.48,4.35,17.35-.61l4.4,5.25c-6.38,7.81-18.93,8.8-26.93,1.93-7.58-6.5-8.49-19-1.93-26.55C12.56,77.2,25.51,76.61,34.44,84.73Z"/><path d="M3.53,152.94V129.49S3,128,2,128l12.64-.11a14.79,14.79,0,0,1,5.09.67A5.55,5.55,0,0,1,22.51,131a7,7,0,0,1,1,3.77,6.32,6.32,0,0,1-1.73,4.5,8.73,8.73,0,0,1-5.33,2.32,8.59,8.59,0,0,1,2,1.25,17.43,17.43,0,0,1,2.75,3.33l4.36,6.82H21.44l-3.32-5.21c-1-1.51-1.76-2.66-2.39-3.45a7.72,7.72,0,0,0-1.68-1.68,5.09,5.09,0,0,0-1.52-.67,9.85,9.85,0,0,0-1.84-.12H6.84v11.13Zm3.31-14H14a10.49,10.49,0,0,0,3.55-.47,3.72,3.72,0,0,0,1.95-1.5,4,4,0,0,0,.67-2.25,3.73,3.73,0,0,0-1.29-2.92,6.06,6.06,0,0,0-4.08-1.15H6.84Z"/><path d="M34.74,140.74q0-6.24,3.53-9.77a12.38,12.38,0,0,1,9.12-3.53A13.09,13.09,0,0,1,54,129.1a11.08,11.08,0,0,1,4.48,4.62A14.35,14.35,0,0,1,60,140.45a14.17,14.17,0,0,1-1.62,6.82,10.74,10.74,0,0,1-4.6,4.55,13.67,13.67,0,0,1-6.41,1.55,13,13,0,0,1-6.66-1.71A11.24,11.24,0,0,1,36.26,147,13.51,13.51,0,0,1,34.74,140.74Zm3.61,0a9.7,9.7,0,0,0,2.56,7.13,8.68,8.68,0,0,0,6.44,2.61,8.68,8.68,0,0,0,6.5-2.63q2.55-2.64,2.55-7.47a12.35,12.35,0,0,0-1.09-5.34,8.12,8.12,0,0,0-3.19-3.54,9,9,0,0,0-4.71-1.26A9.22,9.22,0,0,0,41,132.71Q38.35,135.14,38.35,140.79Z"/><path d="M69.22,152.94l9.63-25h3.57l10.25,25H88.9L86,145.35H75.5l-2.75,7.59Zm7.23-10.29H85l-2.62-6.94c-.8-2.1-1.39-3.84-1.77-5.19a32.21,32.21,0,0,1-1.35,4.78Z"/><path d="M101.19,144.89l3.13-.27a6.92,6.92,0,0,0,1,3.08,5.78,5.78,0,0,0,2.53,2,9.43,9.43,0,0,0,3.84.74,9.16,9.16,0,0,0,3.35-.56,4.62,4.62,0,0,0,2.16-1.55,3.59,3.59,0,0,0,.71-2.14,3.29,3.29,0,0,0-.68-2.06A5.08,5.08,0,0,0,115,142.6a44,44,0,0,0-4.46-1.22,22.78,22.78,0,0,1-4.84-1.57,6.76,6.76,0,0,1-2.67-2.33,5.7,5.7,0,0,1-.88-3.12,6.35,6.35,0,0,1,1.08-3.54,6.62,6.62,0,0,1,3.14-2.51,11.93,11.93,0,0,1,4.6-.85,12.5,12.5,0,0,1,4.91.9,7,7,0,0,1,3.27,2.64,7.43,7.43,0,0,1,1.23,3.94l-3.17.24a5.12,5.12,0,0,0-1.74-3.59,6.8,6.8,0,0,0-4.37-1.21,7,7,0,0,0-4.38,1.1,3.3,3.3,0,0,0-1.37,2.66,2.84,2.84,0,0,0,1,2.22c.64.58,2.3,1.18,5,1.79a32.59,32.59,0,0,1,5.54,1.6,7.54,7.54,0,0,1,3.23,2.55,6.19,6.19,0,0,1,1,3.56,6.84,6.84,0,0,1-1.15,3.77,7.48,7.48,0,0,1-3.29,2.75,11.39,11.39,0,0,1-4.83,1,14.48,14.48,0,0,1-5.7-1,8,8,0,0,1-3.6-3A8.49,8.49,0,0,1,101.19,144.89Z"/><path d="M137.6,152.94v-22.1h-8.81v-3H150v3h-8.85v22.1Z"/><path d="M159.11,152.94,159,131a3.55,3.55,0,0,0-2-3l20.23-.11v3h-14.8v7.68h13.86v2.94H162.43V150h15.38v3Z"/><path d="M189.44,152.94V130s-.44-2-1.44-2l12.55-.11a14.79,14.79,0,0,1,5.09.67,5.62,5.62,0,0,1,2.79,2.39,7.1,7.1,0,0,1,1,3.77,6.32,6.32,0,0,1-1.73,4.5,8.7,8.7,0,0,1-5.33,2.32,8.38,8.38,0,0,1,2,1.25,17.07,17.07,0,0,1,2.75,3.33l4.36,6.82h-4.17L204,147.73q-1.46-2.26-2.4-3.45A7.31,7.31,0,0,0,200,142.6a5.15,5.15,0,0,0-1.51-.67,10,10,0,0,0-1.85-.12h-3.84v11.13Zm3.32-14h7.12a10.55,10.55,0,0,0,3.56-.47,3.8,3.8,0,0,0,1.95-1.5,4.1,4.1,0,0,0,.66-2.25,3.73,3.73,0,0,0-1.29-2.92,6,6,0,0,0-4.07-1.15h-7.93Z"/><path d="M220.54,144.89l3.13-.27a6.8,6.8,0,0,0,1,3.08,5.69,5.69,0,0,0,2.52,2,9.46,9.46,0,0,0,3.84.74,9.08,9.08,0,0,0,3.35-.56,4.7,4.7,0,0,0,2.17-1.55,3.59,3.59,0,0,0,.71-2.14,3.24,3.24,0,0,0-.69-2.06,5,5,0,0,0-2.25-1.48,44.87,44.87,0,0,0-4.46-1.22,22.38,22.38,0,0,1-4.84-1.57,6.73,6.73,0,0,1-2.68-2.33,5.78,5.78,0,0,1-.88-3.12,6.35,6.35,0,0,1,1.08-3.54,6.7,6.7,0,0,1,3.15-2.51,11.88,11.88,0,0,1,4.59-.85,12.55,12.55,0,0,1,4.92.9A7,7,0,0,1,238.5,131a7.61,7.61,0,0,1,1.23,3.94l-3.18.24a5.16,5.16,0,0,0-1.73-3.59,6.82,6.82,0,0,0-4.37-1.21,7,7,0,0,0-4.38,1.1,3.31,3.31,0,0,0-1.38,2.66,2.87,2.87,0,0,0,1,2.22q1,.87,5,1.79a32.49,32.49,0,0,1,5.55,1.6,7.6,7.6,0,0,1,3.23,2.55,6.26,6.26,0,0,1,1,3.56,6.83,6.83,0,0,1-1.14,3.77,7.53,7.53,0,0,1-3.29,2.75,11.39,11.39,0,0,1-4.83,1,14.42,14.42,0,0,1-5.7-1,8.05,8.05,0,0,1-3.61-3A8.4,8.4,0,0,1,220.54,144.89Z"/><path d="M114,166c1.7,3.07,5.17,5.92,2.37,8.59a3.16,3.16,0,0,1-4.61,0C109.15,171.68,112.47,169.1,114,166Z"/><path d="M36.65,175.64v-7.16h5.18v.85H37.6v2.19h4v.84h-4v2.44H42v.84Z"/><path d="M44.48,173.34l.9-.08a2,2,0,0,0,.29.88,1.61,1.61,0,0,0,.72.56,2.77,2.77,0,0,0,1.1.21,2.61,2.61,0,0,0,1-.16,1.31,1.31,0,0,0,.61-.44,1,1,0,0,0,.21-.61.94.94,0,0,0-.2-.59,1.37,1.37,0,0,0-.64-.42,10.18,10.18,0,0,0-1.28-.35,6.44,6.44,0,0,1-1.38-.45,1.86,1.86,0,0,1-.76-.67,1.6,1.6,0,0,1-.26-.89,1.85,1.85,0,0,1,.31-1,2,2,0,0,1,.9-.72,3.43,3.43,0,0,1,1.31-.24,3.62,3.62,0,0,1,1.41.26,2,2,0,0,1,.93.75A2.1,2.1,0,0,1,50,170.5l-.9.07a1.47,1.47,0,0,0-.5-1,1.94,1.94,0,0,0-1.25-.35,2,2,0,0,0-1.25.32.94.94,0,0,0-.39.76.78.78,0,0,0,.28.63,3.56,3.56,0,0,0,1.42.51,10.22,10.22,0,0,1,1.59.46,2.17,2.17,0,0,1,.92.73,1.77,1.77,0,0,1,.3,1,2,2,0,0,1-.33,1.08,2.21,2.21,0,0,1-.94.78,3.24,3.24,0,0,1-1.38.28,4.14,4.14,0,0,1-1.63-.28,2.33,2.33,0,0,1-1-.85A2.48,2.48,0,0,1,44.48,173.34Z"/><path d="M54.79,175.64v-6.31H52.44v-.85h5.67v.85H55.74v6.31Z"/><path d="M59.61,175.64v-1h1v1Z"/><path d="M73.06,174.56v.85H68.32a1.57,1.57,0,0,1,.11-.61,3.29,3.29,0,0,1,.57-1,8.92,8.92,0,0,1,1.15-1.09,9.79,9.79,0,0,0,1.58-1.51,1.8,1.8,0,0,0,.41-1.06,1.16,1.16,0,0,0-.37-.88,1.36,1.36,0,0,0-1-.36,1.33,1.33,0,0,0-1,.38,1.43,1.43,0,0,0-.39,1l-.9-.09a2.19,2.19,0,0,1,.7-1.54,2.38,2.38,0,0,1,1.62-.53,2.26,2.26,0,0,1,1.63.57,1.85,1.85,0,0,1,.61,1.42,2.08,2.08,0,0,1-.18.84,3.41,3.41,0,0,1-.58.88,18,18,0,0,1-1.36,1.26,13,13,0,0,0-1,.9,2.7,2.7,0,0,0-.38.47Z"/><path d="M77,171.88a6.43,6.43,0,0,1,.26-2,2.49,2.49,0,0,1,.78-1.19,2,2,0,0,1,1.29-.42,2.15,2.15,0,0,1,1,.23,2,2,0,0,1,.72.67,3.38,3.38,0,0,1,.44,1.07,6.81,6.81,0,0,1,.17,1.69,6.59,6.59,0,0,1-.26,2,2.54,2.54,0,0,1-.78,1.2,2.18,2.18,0,0,1-2.92-.32A4.68,4.68,0,0,1,77,171.88Zm.9,0a4.54,4.54,0,0,0,.41,2.34,1.23,1.23,0,0,0,1,.59,1.22,1.22,0,0,0,1-.59,6.91,6.91,0,0,0,0-4.69,1.23,1.23,0,0,0-1-.58,1.15,1.15,0,0,0-1,.51A4.58,4.58,0,0,0,77.9,171.88Z"/><path d="M85.56,171.88a6.73,6.73,0,0,1,.26-2,2.49,2.49,0,0,1,.78-1.19,2,2,0,0,1,1.29-.42,2.15,2.15,0,0,1,1,.23,2,2,0,0,1,.72.67,3.63,3.63,0,0,1,.45,1.07,7.42,7.42,0,0,1,.16,1.69,6.59,6.59,0,0,1-.26,2,2.47,2.47,0,0,1-.78,1.2,2.18,2.18,0,0,1-2.92-.32A4.68,4.68,0,0,1,85.56,171.88Zm.9,0a4.41,4.41,0,0,0,.42,2.34,1.17,1.17,0,0,0,2,0,6.91,6.91,0,0,0,0-4.69,1.21,1.21,0,0,0-1-.58,1.12,1.12,0,0,0-1,.51A4.47,4.47,0,0,0,86.46,171.88Z"/><path d="M94.25,173.75l.85-.08a1.48,1.48,0,0,0,.41.87,1.11,1.11,0,0,0,.77.27,1.28,1.28,0,0,0,.71-.19,1.47,1.47,0,0,0,.5-.49,3.06,3.06,0,0,0,.33-.84,4.32,4.32,0,0,0,.13-1.08V172a2,2,0,0,1-1.71.94,2,2,0,0,1-1.5-.64,2.37,2.37,0,0,1-.62-1.7,2.43,2.43,0,0,1,.64-1.76,2.16,2.16,0,0,1,1.61-.66,2.31,2.31,0,0,1,1.28.38,2.35,2.35,0,0,1,.88,1.07,5.24,5.24,0,0,1,.3,2,6.48,6.48,0,0,1-.3,2.19,2.5,2.5,0,0,1-.89,1.23,2.24,2.24,0,0,1-1.38.43,1.9,1.9,0,0,1-2-1.78Zm3.6-3.16a1.72,1.72,0,0,0-.4-1.2,1.28,1.28,0,0,0-1-.44,1.34,1.34,0,0,0-1,.48,1.77,1.77,0,0,0-.44,1.24,1.53,1.53,0,0,0,.42,1.11,1.35,1.35,0,0,0,1,.42,1.32,1.32,0,0,0,1-.42A1.71,1.71,0,0,0,97.85,170.59Z"/><path d="M129.47,173.11l.89-.08a2,2,0,0,0,.3.88,1.55,1.55,0,0,0,.72.56,2.77,2.77,0,0,0,1.1.21,2.61,2.61,0,0,0,1-.16,1.38,1.38,0,0,0,.61-.44,1,1,0,0,0,.21-.62.91.91,0,0,0-.2-.58,1.53,1.53,0,0,0-.64-.43c-.2-.07-.62-.19-1.28-.35a6,6,0,0,1-1.38-.44A1.86,1.86,0,0,1,130,171a1.6,1.6,0,0,1-.26-.89,1.85,1.85,0,0,1,.31-1,1.91,1.91,0,0,1,.9-.72,3.43,3.43,0,0,1,1.31-.24,3.66,3.66,0,0,1,1.41.25,2.07,2.07,0,0,1,.93.76,2.1,2.1,0,0,1,.35,1.13l-.9.06a1.47,1.47,0,0,0-.5-1,1.94,1.94,0,0,0-1.25-.35,2,2,0,0,0-1.25.32.94.94,0,0,0-.39.76.79.79,0,0,0,.28.63,3.56,3.56,0,0,0,1.42.51,10.22,10.22,0,0,1,1.59.46,2.15,2.15,0,0,1,.92.73,1.75,1.75,0,0,1,.3,1,1.9,1.9,0,0,1-.33,1.07,2.16,2.16,0,0,1-.94.79,3.24,3.24,0,0,1-1.38.28,4.11,4.11,0,0,1-1.63-.28,2.35,2.35,0,0,1-1.42-2.14Z"/><path d="M140.08,175.41v-6.32h-2.35v-.84h5.67v.84H141v6.32Z"/><path d="M145.7,171.92a3.87,3.87,0,0,1,1-2.79,3.26,3.26,0,0,1,2.47-1,3.4,3.4,0,0,1,1.79.48,3,3,0,0,1,1.21,1.32,4.24,4.24,0,0,1,.42,1.92,4.3,4.3,0,0,1-.44,1.95,3,3,0,0,1-1.25,1.3,3.57,3.57,0,0,1-1.74.44,3.33,3.33,0,0,1-1.8-.49,3.18,3.18,0,0,1-1.21-1.33A4.08,4.08,0,0,1,145.7,171.92Zm1,0a2.85,2.85,0,0,0,.69,2,2.43,2.43,0,0,0,3.51,0,3.06,3.06,0,0,0,.69-2.14,3.75,3.75,0,0,0-.29-1.52,2.27,2.27,0,0,0-.87-1,2.33,2.33,0,0,0-1.28-.36,2.43,2.43,0,0,0-1.73.69A3.1,3.1,0,0,0,146.68,171.94Z"/><path d="M160.68,172.9l.94.24a3.17,3.17,0,0,1-1.07,1.78,2.94,2.94,0,0,1-1.89.61,3.42,3.42,0,0,1-1.88-.47,3,3,0,0,1-1.11-1.37,4.87,4.87,0,0,1-.38-1.92,4.31,4.31,0,0,1,.43-2,3,3,0,0,1,1.22-1.26,3.5,3.5,0,0,1,1.73-.43,3,3,0,0,1,1.81.54,2.85,2.85,0,0,1,1,1.54l-.93.22a2.29,2.29,0,0,0-.72-1.14,2,2,0,0,0-1.2-.35,2.34,2.34,0,0,0-1.38.39,2.15,2.15,0,0,0-.77,1.07,4.51,4.51,0,0,0,0,3,1.89,1.89,0,0,0,.83,1,2.26,2.26,0,0,0,1.21.34,2,2,0,0,0,1.35-.46A2.35,2.35,0,0,0,160.68,172.9Z"/><path d="M164.55,175.41v-7.16h.95v3.55l3.55-3.55h1.29l-3,2.9,3.14,4.26h-1.25l-2.55-3.63-1.17,1.15v2.48Z"/><path d="M173.09,175.41v-7.16H174v2.94h3.72v-2.94h.94v7.16h-.94V172H174v3.38Z"/><path d="M181.79,171.92a3.87,3.87,0,0,1,1-2.79,3.26,3.26,0,0,1,2.47-1,3.4,3.4,0,0,1,1.79.48,3,3,0,0,1,1.21,1.32,4.24,4.24,0,0,1,.42,1.92,4.3,4.3,0,0,1-.44,1.95,3,3,0,0,1-1.25,1.3,3.56,3.56,0,0,1-1.73.44,3.34,3.34,0,0,1-1.81-.49,3.18,3.18,0,0,1-1.21-1.33A4.08,4.08,0,0,1,181.79,171.92Zm1,0a2.81,2.81,0,0,0,.7,2,2.26,2.26,0,0,0,1.74.75A2.29,2.29,0,0,0,187,174a3.06,3.06,0,0,0,.69-2.14,3.75,3.75,0,0,0-.29-1.52,2.27,2.27,0,0,0-.87-1,2.32,2.32,0,0,0-1.27-.36,2.42,2.42,0,0,0-1.73.69A3.06,3.06,0,0,0,182.77,171.94Z"/><path d="M191.62,175.41v-7.16h.95v6.31h3.52v.85Z"/><path d="M199,175.41v-7.16h1.43l1.69,5.07c.16.47.27.82.34,1.06.09-.26.21-.65.38-1.15l1.72-5h1.27v7.16h-.91v-6l-2.08,6H202l-2.07-6.1v6.1Z"/></svg>