<?xml version="1.0" standalone="no"?>
<!DOCTYPE svg PUBLIC "-//W3C//DTD SVG 20010904//EN"
 "http://www.w3.org/TR/2001/REC-SVG-20010904/DTD/svg10.dtd">
<svg version="1.0" xmlns="http://www.w3.org/2000/svg"
 width="640.000000pt" height="640.000000pt" viewBox="0 0 640.000000 640.000000"
 preserveAspectRatio="xMidYMid meet">

<g transform="translate(0.000000,640.000000) scale(0.100000,-0.100000)"
fill="#000000" stroke="none">
<path d="M5017 4402 c-22 -24 -21 -45 1 -64 38 -34 85 19 55 61 -18 26 -35 27
-56 3z"/>
<path d="M1721 4264 c-17 -14 -52 -67 -77 -118 -38 -77 -56 -135 -110 -361
-36 -149 -75 -290 -87 -315 -12 -25 -50 -79 -83 -121 -34 -42 -110 -141 -170
-220 -59 -79 -159 -211 -222 -292 -86 -112 -115 -156 -116 -180 -2 -43 27 -48
59 -10 14 15 129 168 256 338 127 171 235 314 240 320 6 6 7 -4 3 -25 -29
-163 -122 -550 -179 -744 -44 -152 -49 -196 -21 -196 23 0 32 21 76 170 81
281 138 429 160 415 15 -9 36 -52 69 -145 36 -98 110 -237 143 -266 58 -53
112 -58 180 -15 56 36 182 179 245 279 l48 75 6 -70 c16 -210 221 -282 337
-119 30 42 107 227 146 349 l21 68 79 41 c84 44 214 158 283 249 22 29 39 44
41 36 2 -12 -31 -149 -147 -607 -94 -373 -196 -843 -186 -860 9 -14 42 -12 52
3 4 6 19 71 34 142 72 348 140 651 175 772 6 20 7 20 37 -14 94 -107 207 -80
402 94 199 177 326 332 470 570 19 32 35 54 35 50 0 -11 -61 -255 -115 -457
-53 -204 -156 -641 -191 -814 -21 -105 -23 -130 -12 -137 38 -24 51 -5 71 101
16 86 99 453 158 702 l32 137 43 -39 c49 -45 103 -63 156 -51 42 10 174 95
282 181 143 116 303 302 420 490 25 41 46 71 46 68 0 -4 -15 -65 -34 -135 -19
-70 -42 -167 -52 -215 -16 -86 -16 -87 5 -131 12 -25 34 -53 48 -62 52 -35
137 -12 220 60 67 57 426 537 438 587 7 28 -14 52 -38 42 -14 -5 -132 -161
-227 -299 -85 -124 -224 -287 -266 -311 -79 -47 -132 -8 -121 89 7 63 101 406
156 571 22 65 37 124 35 131 -6 15 -38 25 -52 16 -5 -3 -49 -80 -96 -170 -102
-193 -191 -330 -290 -449 -71 -85 -224 -237 -231 -230 -2 2 3 24 11 48 53 152
86 300 91 405 8 159 -19 233 -97 265 -64 27 -162 -33 -232 -142 -17 -26 -33
-46 -35 -45 -1 2 4 27 13 57 14 47 14 54 1 68 -9 8 -22 12 -31 9 -9 -3 -42
-61 -74 -129 -71 -151 -178 -329 -274 -456 -77 -102 -242 -281 -252 -272 -3 3
2 26 10 50 74 214 104 445 70 547 -32 96 -120 126 -205 70 -23 -16 -63 -57
-89 -92 -25 -35 -48 -63 -49 -61 -2 2 2 27 9 55 10 44 9 54 -3 62 -27 18 -44
3 -79 -66 -65 -130 -233 -324 -344 -396 -76 -50 -86 -50 -75 -1 12 53 10 117
-6 192 -11 54 -20 70 -51 98 -54 46 -74 49 -135 16 -84 -46 -128 -107 -243
-338 -109 -218 -221 -400 -323 -521 -130 -155 -194 -152 -281 14 -45 85 -94
231 -79 235 80 23 110 42 171 106 78 83 143 207 152 292 6 52 4 59 -19 82 -31
31 -81 34 -132 10 -57 -27 -148 -133 -225 -262 -68 -114 -90 -145 -90 -125 0
4 24 106 53 225 l54 217 67 101 c139 210 233 404 262 541 21 102 8 160 -43
187 -32 18 -48 15 -82 -14z m67 -99 c6 -86 -56 -248 -163 -430 -31 -52 -57
-95 -59 -95 -2 0 17 84 41 187 70 297 172 487 181 338z m2513 -294 c20 -16 23
-29 27 -113 6 -134 -12 -247 -64 -408 -47 -146 -76 -196 -146 -253 -29 -23
-51 -31 -92 -35 -52 -4 -54 -3 -82 33 -23 31 -29 50 -32 104 -3 55 3 90 38
211 24 80 54 168 68 195 41 84 152 226 201 257 53 33 52 33 82 9z m-870 -213
c18 -33 23 -172 10 -276 -12 -97 -66 -292 -105 -377 -60 -131 -178 -207 -258
-164 -31 17 -60 93 -60 158 1 74 88 364 131 433 58 92 143 199 180 223 45 31
86 33 102 3z m-841 -241 c21 -34 26 -133 12 -227 l-7 -45 -41 1 c-85 1 -146
69 -146 161 0 53 19 82 81 130 49 38 69 34 101 -20z m-778 -67 c20 0 1 -88
-34 -162 -39 -82 -120 -177 -172 -202 -37 -17 -93 -21 -115 -7 -11 7 -7 22 24
77 55 99 128 204 166 241 41 39 89 65 107 58 8 -3 18 -5 24 -5z m542 -125 c16
-64 123 -144 194 -145 30 0 32 -2 26 -27 -14 -59 -67 -200 -105 -280 -45 -93
-89 -133 -147 -133 -71 0 -131 101 -119 200 11 95 118 409 138 410 4 0 10 -11
13 -25z"/>
</g>
</svg>
