<svg width="428px" height="283px" viewBox="987 637 428 283" version="1.1" xmlns="http://www.w3.org/2000/svg" xmlns:xlink="http://www.w3.org/1999/xlink">
    <path class="logo-fill" d="M1357.5827,778.6773 C1358.7047,778.7553 1359.2587,779.4023 1359.6407,780.2203 C1358.4807,780.1793 1357.9297,779.5293 1357.5827,778.6773 L1357.5827,778.6773 Z M1351.0717,775.7633 C1350.4647,775.1793 1349.4657,774.3553 1348.8457,774.0503 C1348.7377,773.9993 1348.2637,774.1223 1348.1607,774.0503 C1347.3707,773.4843 1347.3577,772.6833 1346.6177,772.3373 C1350.1167,773.2943 1351.9987,777.3493 1355.1867,779.1913 C1352.8137,779.8413 1352.5157,777.1483 1351.0717,775.7633 L1351.0717,775.7633 Z M1347.1317,776.6203 C1347.2777,776.1183 1347.5637,776.8433 1347.9887,776.6203 C1348.0457,775.5343 1347.0177,775.5343 1347.1317,774.3943 C1348.4257,774.9863 1348.2637,777.0323 1349.0177,778.1633 C1347.9837,778.0523 1347.9697,776.9253 1347.1317,776.6203 L1347.1317,776.6203 Z M1334.2797,770.7943 C1335.5227,770.2943 1336.6477,770.7203 1338.5637,770.7943 C1341.9387,770.9273 1343.5117,773.6563 1345.5897,775.4213 C1341.9807,774.4043 1338.3767,771.8983 1334.2797,770.7943 L1334.2797,770.7943 Z M1367.8647,780.3903 C1366.2777,780.0623 1362.4807,778.6013 1361.6957,777.8203 C1356.3777,772.5343 1352.1737,766.7713 1343.0197,765.4843 C1341.6407,765.2883 1339.8777,764.8413 1338.2217,764.7973 C1336.5757,764.7523 1330.6987,765.3673 1328.9697,765.6913 C1324.6497,766.4933 1323.8647,767.6543 1319.2027,768.2243 C1320.4537,766.9913 1320.5017,764.1193 1321.7577,763.0363 C1322.0087,762.8223 1322.7887,762.2583 1323.0297,762.0813 C1323.8717,761.4703 1324.3017,760.1963 1324.6197,759.1133 C1325.1517,757.3093 1326.0737,757.1673 1326.3177,756.7803 C1327.3827,755.0893 1327.8177,755.8393 1328.8647,753.5983 C1329.6157,751.9873 1332.3877,748.0303 1332.0467,745.7473 C1330.2227,746.6513 1329.3937,745.6423 1328.3337,744.4763 C1328.1117,744.2323 1327.4487,747.3783 1326.7417,747.9773 C1326.3127,748.3393 1326.5077,749.1423 1326.4237,749.2483 C1325.9387,749.8763 1325.3717,750.7503 1324.9387,751.5823 C1323.8007,753.7713 1320.5997,755.7333 1318.5167,757.9453 C1316.9237,759.6343 1315.2307,761.1193 1313.8917,762.7413 C1313.3657,763.3753 1313.1537,764.2483 1312.6907,764.7973 C1311.7067,765.9663 1309.5437,766.9333 1308.9267,768.0013 C1307.9967,769.6093 1306.6967,770.4003 1306.6967,770.4003 C1306.9487,770.5273 1308.3077,771.0343 1308.7557,771.2593 C1310.1277,771.9453 1311.0637,773.6853 1311.3277,773.6593 C1311.7417,773.6223 1312.6627,772.1323 1312.8637,771.4803 C1314.0147,772.5873 1315.0937,771.8393 1316.2887,771.8233 C1317.1207,771.8123 1319.0297,772.2923 1319.8867,772.5073 C1320.8447,772.7473 1322.0147,773.4253 1323.1437,773.8783 C1324.3817,774.3763 1325.8907,774.6033 1326.5697,775.0793 C1327.1667,775.4953 1327.4797,776.5313 1328.1127,776.9623 C1328.7027,777.3653 1329.7637,777.6263 1330.6827,778.1633 C1331.4997,778.6383 1332.4407,779.2103 1333.2527,779.5323 C1334.7317,780.1203 1337.8807,781.4153 1339.0777,781.4173 C1339.3467,781.4193 1340.1477,781.0073 1340.4497,781.0753 C1340.7427,781.1423 1341.7077,782.0383 1342.5057,782.6183 C1343.2617,783.1693 1344.1357,783.5543 1344.7327,783.9893 C1345.6657,784.6693 1346.8577,786.3183 1348.1607,786.2163 C1348.5877,786.1833 1348.7147,785.5073 1349.1867,785.3593 C1351.9937,784.4823 1355.7567,787.3103 1358.7837,786.0443 C1358.2357,785.3743 1360.9307,784.3313 1361.6957,784.5033 C1362.1897,784.6133 1362.3297,785.3293 1362.8957,785.3593 C1363.3557,785.3823 1363.9867,784.8573 1364.6077,784.6733 C1368.0477,783.6633 1372.1767,783.0773 1373.5207,780.3903 C1371.5827,780.4603 1369.5577,780.7403 1367.8647,780.3903 Z M1251.8112,820.6578 C1252.7972,821.2868 1253.2082,819.1698 1253.5772,818.7728 C1256.1192,816.0308 1258.5952,814.8418 1262.4882,812.6048 C1265.2062,811.0388 1269.4712,808.4648 1269.9932,805.9058 C1267.9762,805.8438 1268.0792,803.7208 1267.2472,802.4738 C1266.9052,801.9608 1265.4202,803.9468 1264.8472,804.5348 C1263.7622,805.6368 1263.1032,805.1518 1261.4582,805.7498 C1257.7722,807.0938 1253.4452,811.5408 1251.0062,812.7728 C1250.5442,813.0078 1248.3392,813.7458 1248.3792,813.9668 C1248.6692,815.5018 1248.8582,818.2968 1249.0682,818.4278 C1250.4382,819.2828 1250.9372,820.0988 1251.8112,820.6578 Z M1194.9762,827.8531 C1195.0842,827.4041 1196.4682,826.2241 1196.4102,825.8001 C1196.4102,825.8001 1194.3342,825.5171 1192.9802,825.4571 C1191.9312,825.4101 1190.0672,825.6361 1189.8342,825.6261 C1189.5732,825.6171 1188.8722,824.8331 1188.1212,824.5991 C1184.9832,823.6171 1178.6132,824.0231 1176.2982,823.2281 C1175.9872,823.1191 1174.5302,822.6131 1174.4562,822.7141 C1173.5372,823.9571 1172.1062,823.7791 1172.0552,824.9431 C1172.0182,825.8161 1173.3472,826.6911 1173.4282,827.5151 C1173.5502,828.7941 1173.2022,829.7241 1173.2552,831.6321 C1176.3482,830.1751 1183.4732,831.2831 1187.6072,831.4531 C1188.5182,831.4881 1189.3162,831.1561 1190.0052,831.2811 C1190.8332,831.4331 1196.6612,832.7101 1197.2672,832.8331 C1197.2672,832.8331 1194.4852,829.8841 1194.9762,827.8531 Z M1315.7868,836.2632 C1315.8298,835.1792 1314.9178,831.6502 1314.5868,830.7772 C1312.7118,825.8102 1305.8338,821.7902 1302.2368,821.3412 C1302.0988,821.3242 1306.0118,823.7452 1306.5248,825.6302 C1306.9068,827.0312 1306.7008,827.4062 1307.5548,829.4042 C1308.6068,831.8702 1309.9088,833.5032 1310.6348,835.7362 C1311.7668,839.2122 1308.7128,836.4922 1308.4068,835.5642 C1309.4388,835.5622 1309.4328,836.5952 1310.4618,836.5912 C1309.7858,835.2122 1308.8668,834.2242 1307.8918,833.3372 C1307.3608,832.8512 1305.4798,831.6522 1305.1538,830.9472 C1305.1538,830.9472 1305.9358,829.6772 1305.6658,828.5402 C1305.2928,826.9682 1302.6678,823.0952 1301.3808,822.1992 C1301.2168,823.4002 1301.9038,825.4882 1302.0638,826.4882 C1302.2538,827.6482 1300.9088,828.9452 1301.0388,830.2512 C1301.1778,831.6322 1302.2708,834.2752 1302.7528,834.8802 C1304.1528,836.6302 1306.0408,839.2512 1307.7228,840.3632 C1309.4358,841.4952 1310.6218,841.4642 1311.6638,843.2752 C1312.4828,844.7012 1313.5308,848.8512 1313.7278,849.9862 C1314.5868,848.2712 1315.5178,847.0912 1315.7748,844.9882 C1316.0928,842.3922 1315.6808,838.9212 1315.7868,836.2632 Z M1269.5127,867.2635 C1269.4927,866.9275 1269.7607,866.3495 1269.6817,866.0645 C1269.5407,865.5465 1268.7397,865.0875 1268.6547,864.5235 C1268.5987,864.1425 1269.1077,863.9725 1269.1687,863.6655 C1269.5947,861.5305 1268.2437,859.2265 1267.6257,858.0115 C1267.1467,857.0665 1266.0057,856.1775 1265.7417,855.0975 C1265.2227,852.9585 1263.5567,851.5795 1262.4877,849.9565 C1261.3967,848.3085 1259.5387,847.9115 1257.3477,847.5605 C1257.1457,848.0135 1257.6757,848.5655 1257.3477,848.5855 C1254.6147,846.8125 1248.3537,844.5135 1243.9807,844.6465 C1243.6107,844.6575 1243.5147,845.0755 1243.4667,845.3315 C1243.2307,846.6075 1245.7867,847.0095 1246.2077,847.0465 C1247.2307,847.1305 1248.3117,847.8785 1249.6337,848.4155 C1250.9477,848.9485 1252.5267,849.1145 1253.4047,849.6145 C1256.8407,851.5625 1256.4277,856.2375 1260.0877,858.0115 C1260.1727,857.4725 1259.7127,857.3415 1260.0877,856.9825 C1260.8067,857.4935 1261.9747,857.1445 1262.1437,856.9825 C1261.9527,859.6145 1261.6257,861.8585 1262.4877,864.0095 C1263.3487,864.1855 1262.8417,862.9915 1263.6867,863.1515 C1263.6037,865.4055 1262.3477,868.4425 1263.8557,870.6905 C1264.7097,870.8585 1264.5347,869.9975 1265.0577,869.8335 C1265.3897,870.5855 1266.4827,870.1365 1266.7687,870.1775 C1266.3017,871.8785 1265.0907,872.8355 1265.0577,874.9745 C1263.3127,873.1185 1260.3657,872.4705 1258.8887,870.3495 C1259.7357,870.4705 1259.7097,871.4705 1260.7727,871.3765 C1260.9877,870.6945 1260.1687,870.1695 1260.6027,869.8335 C1261.4897,869.9745 1261.7907,870.7005 1263.0007,870.5195 C1262.0747,867.7735 1260.6477,866.8275 1258.5457,865.3785 C1257.7047,864.8005 1255.7847,863.8625 1255.4607,863.1515 C1254.9177,861.9525 1254.8887,859.3375 1255.2887,858.3555 C1255.4417,857.9825 1256.2557,857.7305 1256.3177,857.1535 C1256.3647,856.7105 1255.6667,854.9195 1255.2887,854.4135 C1255.0997,854.1555 1254.5157,854.1185 1254.2617,853.8995 C1253.5487,853.2785 1253.0617,851.9705 1252.2057,852.1855 C1251.5257,854.5815 1249.3497,856.0325 1250.1487,859.3805 C1249.2207,859.1695 1248.6697,858.5775 1247.5777,858.5245 C1247.9707,860.8175 1249.3847,862.0875 1249.8067,864.3515 C1249.0677,864.5545 1248.8457,863.7885 1248.4357,864.1795 C1249.2647,868.1425 1251.0457,870.1945 1253.5767,872.9175 C1257.0977,876.7085 1260.3467,879.1265 1262.4877,883.7125 C1263.1577,885.1515 1264.0927,886.4955 1264.5437,887.6535 C1264.8487,888.4355 1265.3127,889.6715 1265.3977,890.5665 C1265.5147,891.7455 1264.8687,894.0795 1266.9407,892.7945 C1267.3567,892.5365 1267.2367,891.4895 1267.7987,890.3965 C1268.3257,889.3665 1269.4277,887.8995 1269.6817,887.1405 C1269.9927,886.2225 1270.0887,884.7715 1270.1977,883.7125 C1270.4697,881.0385 1271.1177,877.8125 1270.8827,875.1445 C1270.6287,872.2675 1269.6317,869.5625 1269.5127,867.2635 Z M1265.9137,880.6285 C1264.9467,879.5385 1264.2467,878.1855 1263.6867,876.6895 C1264.7637,876.6965 1265.8727,876.9545 1266.4277,875.8315 C1266.7667,877.2575 1265.8997,878.9585 1265.9137,880.6285 Z M1077.4308,886.2828 C1077.3528,885.8238 1076.0678,884.2418 1075.5458,883.5428 C1073.5658,880.8898 1070.8288,878.2828 1068.3498,877.2028 C1068.5748,882.2378 1072.8598,885.4548 1070.7478,890.7378 C1069.7148,889.8298 1069.3898,888.2128 1067.8348,887.8258 C1068.2768,889.3728 1067.5548,890.5288 1067.4928,892.2808 C1067.3398,896.5228 1070.3608,901.4668 1067.6638,903.9308 C1067.2768,900.6888 1066.0638,897.2398 1065.7788,893.4778 C1065.5048,889.8628 1065.5668,885.2028 1066.6358,882.1698 C1066.9318,881.3298 1068.1208,880.4348 1068.1768,879.6008 C1068.2228,878.9428 1067.2958,877.4548 1067.1498,876.6888 C1067.0148,875.9778 1067.1398,875.2478 1066.9788,874.4608 C1066.4318,871.7888 1064.2648,868.3318 1063.3798,866.0638 C1062.7478,864.4428 1062.6738,864.5248 1061.3238,863.3238 C1058.9298,861.1888 1054.6188,858.1968 1051.3858,859.0388 C1050.9248,861.1048 1052.5688,861.4388 1053.6128,862.2948 C1054.5898,863.0958 1055.8288,864.6308 1057.2118,865.8918 C1058.4428,867.0148 1059.9258,868.5208 1060.6388,869.8338 C1061.4178,871.2708 1063.2348,875.1348 1063.2088,876.8588 C1063.1888,878.2148 1062.1368,879.8548 1061.6668,881.1418 C1058.8528,888.8398 1060.5318,900.2768 1062.6948,907.7028 C1063.1498,909.2628 1064.0598,910.6578 1064.5798,912.3278 C1065.2428,914.4628 1065.3308,916.7398 1065.6078,919.5248 C1066.9448,918.5598 1068.4178,917.0798 1069.2058,915.2418 C1069.4908,914.5738 1069.4018,913.8358 1069.7198,913.1848 C1070.0408,912.5308 1070.7268,911.9428 1071.0908,911.3028 C1072.3698,909.0468 1072.6118,906.4898 1073.6608,903.9308 C1074.4638,901.9758 1075.7678,900.2828 1076.2308,898.2788 C1076.5218,897.0188 1076.7368,895.5698 1076.9168,894.3358 C1077.1548,892.7128 1076.7048,891.3378 1076.7448,890.0528 C1076.7538,889.7438 1077.2188,889.4328 1077.2598,889.0268 C1077.3028,888.5778 1076.8728,888.0078 1076.9168,887.6538 C1076.9748,887.1908 1077.5038,886.7108 1077.4308,886.2828 Z M1066.9786,868.8062 C1067.9346,871.2472 1069.7916,872.6282 1071.9466,873.9472 C1074.9836,875.8002 1077.4076,874.5332 1080.1726,873.4332 C1081.5976,872.8632 1083.6576,872.4352 1084.4566,871.8902 C1084.9416,871.5602 1085.0456,870.8452 1085.6556,870.5192 C1087.0306,869.7852 1089.1376,869.9932 1089.9396,869.3202 C1090.6786,868.6992 1093.7796,867.6792 1094.3576,867.3062 C1080.8076,860.6172 1075.1456,868.3942 1066.9786,868.8062 Z M1013.0953,844.0054 C1015.7043,842.8274 1017.8133,842.1534 1019.8583,840.1914 C1021.1633,838.9354 1022.7883,837.8174 1023.4563,836.9374 C1024.1543,836.0114 1022.3253,828.1814 1027.5683,831.4524 C1027.6443,831.4994 1028.9583,834.3174 1028.9393,834.1924 C1028.9963,834.5664 1028.5953,835.3684 1028.5973,835.7354 C1028.6023,837.1614 1029.4033,839.4724 1030.3103,840.0194 C1032.4743,841.3234 1035.0583,839.3984 1035.6213,838.1344 C1035.7853,837.7694 1035.6833,837.1944 1035.9653,836.9374 C1036.3293,836.5994 1037.1303,836.7764 1037.5073,836.5914 C1039.5093,835.6054 1040.5873,833.3314 1039.0483,831.1094 C1040.2933,830.7324 1041.5063,830.1224 1041.9613,829.2244 C1043.5323,826.1224 1040.5993,822.1184 1039.5623,820.6574 C1043.3153,819.3554 1046.7203,818.2984 1050.5293,819.7984 C1051.4463,820.1634 1052.4333,821.4684 1053.2703,821.5134 C1053.7963,821.5444 1054.1153,820.8554 1054.6413,820.8274 C1055.0813,820.8084 1055.8853,821.4804 1056.3543,821.5134 C1058.7443,821.6814 1060.0943,818.9954 1061.4953,817.5734 C1063.5953,815.4394 1065.2483,813.3144 1065.7793,810.5484 C1061.7003,812.5194 1058.2963,815.8474 1051.7283,815.3454 C1050.5843,815.2574 1048.9633,814.4014 1047.6163,814.3164 C1046.5683,814.2514 1045.0723,814.2794 1043.6753,814.4884 C1041.9303,814.7514 1039.6363,816.4994 1038.5353,815.8594 C1038.3733,815.7654 1038.0263,814.1614 1038.0213,814.1464 C1037.2013,811.7104 1035.4933,810.5094 1034.7653,809.0054 C1032.9213,805.1954 1035.4663,800.1304 1033.5653,796.3254 C1033.2503,799.5914 1030.8343,801.6034 1030.4823,804.3804 C1030.0153,808.0324 1032.1153,810.3864 1033.7373,811.7474 C1034.2203,812.1514 1035.1503,812.2264 1035.2783,812.7734 C1035.4053,813.3174 1034.1253,815.5544 1033.5653,815.6874 C1033.4863,815.7064 1032.3943,814.9994 1032.0233,815.0034 C1030.4263,815.0114 1028.9323,816.7804 1028.0823,817.7454 C1028.0183,817.8164 1027.2363,819.3724 1026.5403,819.2864 C1026.2033,819.2434 1023.8683,815.7284 1023.7983,815.5154 C1023.5913,814.8844 1023.8203,814.1104 1023.6273,813.4604 C1022.7363,810.4624 1019.6093,808.8144 1018.3153,805.9194 C1017.3843,803.8374 1017.8703,801.7384 1017.2873,798.7244 C1016.1763,799.9604 1015.7213,801.8664 1015.0603,803.5234 C1014.3483,805.3044 1013.3923,807.1304 1013.5183,809.0054 C1013.6883,811.5624 1015.2023,814.4464 1016.9443,816.0304 C1017.5553,816.5834 1018.3753,816.5644 1019.0013,817.0584 C1019.5063,817.4584 1019.4813,818.1104 1020.0293,818.4294 C1020.6733,818.8024 1021.6873,818.6074 1022.2573,819.1144 C1022.7333,819.1914 1022.1213,818.1814 1022.5993,818.2594 C1023.2803,818.5054 1023.9373,819.2144 1023.9693,820.1444 C1023.9853,820.5684 1023.3583,821.1654 1023.2853,821.6854 C1023.2053,822.2434 1023.6883,823.2754 1023.4563,823.5694 C1023.2453,823.8374 1022.0523,823.6894 1021.4003,823.9134 C1019.7463,824.4804 1016.9143,825.9094 1017.9733,828.0254 L1019.4673,828.2924 C1020.9173,825.4034 1023.5663,829.0794 1019.8583,829.2244 L1018.2593,828.1814 C1019.7793,830.0564 1018.8433,833.9784 1016.9443,836.2494 C1013.8643,839.9394 1015.2933,836.6424 1013.0953,844.0054 Z M1017.9733,809.0054 C1018.7383,809.4954 1020.8063,813.8294 1021.4453,814.4464 C1018.1493,812.7984 1017.7193,810.4054 1017.9733,809.0054 Z M1031.5783,817.3024 C1032.5123,817.2764 1032.9063,818.0624 1031.9673,818.7284 C1031.3643,819.1544 1030.0353,818.8294 1029.4523,818.4854 C1029.2963,817.2804 1031.2093,816.1694 1031.5783,817.3024 Z M1032.7083,836.2494 C1032.3743,837.0054 1030.2683,837.1614 1029.9673,836.7634 C1029.3703,835.9784 1031.0153,834.6074 1031.3373,834.5364 C1032.1403,834.3644 1033.1763,835.1964 1032.7083,836.2494 Z M1037.6473,824.6614 L1037.1133,824.3644 C1038.3643,823.7534 1039.3153,825.3804 1038.7873,826.3704 C1038.1933,827.4824 1036.2333,827.7044 1035.3153,826.9974 C1033.5413,825.6344 1035.9833,824.3064 1037.6473,824.6614 Z M1036.2773,834.4004 C1034.6413,834.2494 1034.5583,832.4954 1035.3223,831.8884 L1035.2733,831.8884 C1035.3033,831.8724 1035.3323,831.8704 1035.3633,831.8574 C1035.6063,831.6834 1035.9253,831.6184 1036.3063,831.7514 C1037.7953,832.0624 1038.4133,834.5974 1036.2773,834.4004 Z M1385.6864,664.9024 C1381.3344,665.1274 1376.9764,663.5484 1373.5204,664.3864 C1374.6134,663.0984 1373.6024,660.4994 1373.8624,658.7334 C1373.9734,657.9844 1374.8354,656.5244 1374.8904,655.4784 C1374.9174,654.9564 1374.9544,653.2284 1374.7184,652.0514 C1374.5094,650.9994 1373.3024,649.4814 1372.6624,650.3364 C1372.4294,650.6494 1373.1914,651.7464 1373.1764,652.2224 C1373.1534,653.0324 1371.8334,655.4134 1370.7784,656.6774 C1370.4494,657.0704 1369.7204,657.2534 1369.4074,657.7044 C1369.1634,658.0584 1369.3084,658.4474 1369.0654,658.7334 C1368.1564,659.7974 1366.9064,660.2124 1366.3244,661.3044 C1365.9434,662.0144 1366.3564,663.7844 1366.1514,664.2154 C1365.9374,664.6664 1363.9364,665.4154 1363.0694,665.9294 C1361.7754,666.6934 1360.8864,667.3894 1359.9844,667.8154 C1357.9054,668.7924 1355.4694,668.9814 1354.1574,670.5564 C1353.5004,671.3434 1353.2634,672.4194 1352.7864,673.1264 C1352.3234,673.8164 1351.8374,674.5514 1350.9034,675.1824 C1351.2164,673.2504 1350.1514,671.5894 1350.7304,669.8704 C1350.8294,669.5754 1351.3334,669.3824 1351.4164,669.0134 C1351.4764,668.7414 1351.2204,668.1584 1351.2434,667.8154 C1351.2924,667.1114 1351.7454,666.4654 1351.7574,665.9294 C1351.7874,664.7114 1351.1834,663.4744 1351.0714,662.1594 C1350.9274,660.4254 1351.2004,657.8084 1351.0714,655.9914 C1350.9524,654.2634 1351.8024,652.6484 1353.3004,651.7074 C1353.3734,651.6614 1354.0504,651.6474 1354.1574,651.5354 C1354.3024,651.3844 1354.0314,650.8534 1354.1574,650.6804 C1354.2524,650.5464 1354.7284,650.6674 1354.8434,650.5094 C1354.9534,650.3574 1354.7434,649.9824 1354.8434,649.8234 C1354.9144,649.7064 1355.2934,649.8184 1355.3574,649.6514 C1355.4584,649.3874 1355.1364,648.6544 1355.1864,648.4514 C1355.5524,646.9574 1357.5304,645.4604 1356.2124,643.3124 L1355.4724,643.6694 L1354.8434,643.1404 C1354.3614,643.8024 1354.0234,644.6054 1353.4724,645.1964 C1353.0314,643.7984 1352.9724,641.7114 1354.6714,641.5974 L1355.0264,640.8264 L1355.8704,640.9124 C1355.8724,639.9414 1355.7504,639.0904 1355.5284,638.3434 L1354.8554,638.4284 L1354.3274,637.9994 C1353.9034,638.9974 1352.7754,639.1974 1352.1014,640.2274 C1351.0554,641.8224 1349.9764,646.7734 1349.7034,648.2804 C1349.4004,649.9464 1349.5984,651.0524 1348.5014,649.6514 L1348.0454,650.2794 L1347.3044,650.5094 C1347.0524,651.1194 1348.0434,651.4444 1348.1604,652.0514 C1348.3334,652.9534 1347.6694,653.5054 1347.4744,654.6204 C1347.0544,657.0174 1347.9664,661.2684 1347.3044,663.5304 C1347.2114,663.8474 1346.8194,663.9454 1346.7894,664.2154 C1346.7124,664.9334 1346.8414,665.5764 1346.9604,666.1014 C1346.5984,664.1284 1344.5124,664.7374 1343.7044,665.4154 C1340.9244,667.7544 1341.9974,671.8434 1343.8764,674.1544 C1344.6404,675.0974 1345.9434,675.4784 1346.1034,676.0384 C1346.3694,676.9624 1344.8504,679.3054 1345.2474,679.9804 C1343.2774,678.3574 1341.5314,676.9704 1339.5914,675.1824 C1338.6384,674.3024 1334.2464,671.3784 1333.9374,670.2124 C1333.6694,669.1914 1334.3594,667.6964 1334.4514,666.4434 C1334.7344,662.6384 1333.5254,661.0084 1332.3964,658.7334 C1332.1994,658.3364 1332.2714,657.8004 1332.0534,657.3634 C1331.1634,655.5644 1328.9824,653.7434 1327.4254,652.3934 C1326.0374,651.1874 1324.8254,650.0754 1323.6574,648.9664 C1323.4034,648.7254 1322.9254,648.0094 1322.4574,648.2804 C1322.7414,649.6614 1323.8974,650.9134 1324.1714,652.5644 C1324.4274,654.0904 1323.8904,655.4864 1323.8284,657.0194 C1323.7964,657.7974 1324.1564,658.5824 1324.1714,659.4184 C1324.1924,660.6344 1323.8644,661.8514 1323.9984,662.8454 C1324.4314,665.9784 1326.6624,667.4504 1328.2844,669.5274 C1325.9624,669.5584 1324.7534,669.8664 1323.1434,670.7274 C1322.2494,671.2044 1321.0344,672.7744 1320.4014,672.7824 C1319.4834,672.7974 1318.3984,670.7434 1317.1464,671.0714 C1317.1994,672.1564 1317.7894,673.1754 1318.3454,673.8124 C1319.3754,674.9874 1322.7884,677.4234 1324.3434,677.7534 C1324.3054,677.7444 1325.7144,677.7534 1325.7144,677.7534 C1325.9194,677.6954 1326.2104,677.0354 1326.5704,676.8964 C1327.7384,676.4414 1330.6624,676.3234 1332.2254,675.6964 C1332.5754,675.5554 1332.6754,675.1284 1332.9114,675.0114 C1334.8894,674.0224 1336.4574,677.3064 1337.7074,678.7804 C1338.9294,680.2204 1340.4184,681.1344 1341.3074,682.8924 C1341.6874,683.6454 1341.6604,684.9624 1341.9914,686.1484 C1342.3974,687.6034 1342.7084,688.4594 1343.0204,690.0894 C1343.2974,691.5514 1344.1534,692.8124 1344.2194,693.5174 C1344.3034,694.4294 1343.7464,698.1544 1343.9244,699.1874 C1344.0684,700.0094 1345.6994,701.0174 1346.8954,699.8234 C1347.4494,699.2704 1347.2554,695.8474 1347.8174,694.3724 C1347.9224,694.0954 1348.4464,693.8314 1348.5014,693.5174 C1348.8274,691.6884 1348.0744,690.0364 1348.6744,688.8904 C1351.2864,691.1084 1357.7204,689.0504 1355.8704,684.7794 C1357.6684,684.7054 1358.5354,683.5844 1358.9544,682.2084 C1360.0544,678.6114 1355.8524,677.3224 1356.0414,675.5254 C1356.1464,674.5384 1357.7184,674.2984 1358.6124,673.9834 C1358.7564,673.1524 1357.7854,673.4394 1358.0974,672.4414 C1360.0864,672.2494 1362.5644,670.7544 1364.9524,671.4114 C1365.1364,670.3994 1365.4724,669.9654 1366.1514,669.1854 C1367.2834,667.8864 1369.4534,665.6684 1371.1194,665.9294 C1372.0314,666.0714 1372.4634,667.2824 1373.1764,667.6444 C1373.7664,667.9414 1374.7314,667.6974 1375.4054,668.1574 C1377.5084,669.5914 1377.6514,673.5154 1381.4014,671.9274 C1383.4844,671.0444 1385.5164,668.8984 1386.7114,668.4994 C1387.0894,668.3744 1390.5654,668.4244 1390.9954,666.4434 C1391.6844,663.2964 1388.4424,664.7574 1385.6864,664.9024 Z M1377.8034,667.3004 C1378.5524,666.9844 1378.9794,666.2794 1379.8594,666.2724 C1380.4174,666.2694 1380.6994,666.6934 1381.2304,666.7864 C1381.8144,666.8884 1383.1314,666.1864 1383.1144,667.3004 C1381.6664,667.5974 1379.2624,667.5484 1377.8034,667.3004 Z M1352.9574,680.8374 C1351.5154,679.9594 1353.8204,679.1614 1353.9864,678.0954 C1354.3614,678.6404 1355.6624,678.2344 1355.8704,678.6094 C1356.3614,679.4894 1354.0524,681.5024 1352.9574,680.8374 Z M1350.0444,684.7794 C1350.2184,683.4644 1350.0734,683.4844 1350.6074,682.5344 C1350.9374,682.6934 1351.0114,682.4954 1350.9884,682.3964 C1353.5054,682.7824 1352.2664,684.9894 1350.0444,684.7794 Z M1343.8764,670.8984 C1343.4744,669.2894 1345.5674,667.6024 1346.1034,668.6714 C1346.5044,669.4664 1345.1564,670.9684 1343.8764,670.8984 Z M1326.7414,657.1904 C1328.6164,659.4074 1328.2814,662.8004 1329.1394,665.9294 C1325.9224,665.0564 1327.0954,660.8284 1326.7414,657.1904 Z M1317.4886,734.2969 C1316.3086,736.4879 1317.2896,740.6949 1318.8596,742.0079 C1319.6516,742.6709 1321.9146,743.4759 1322.6296,743.5499 C1323.7166,743.6629 1325.3366,743.2649 1326.0556,742.8649 C1326.2986,742.7309 1327.5476,740.6889 1328.2846,740.8079 C1329.0646,740.9359 1328.8966,742.0429 1329.3126,742.6929 C1329.5086,742.9999 1330.5446,744.3679 1331.3686,744.5779 C1332.4996,744.8679 1334.8076,744.5639 1335.6506,744.2359 C1336.4956,743.9089 1337.0986,742.8359 1337.7076,743.0359 C1338.0956,743.1629 1338.1126,743.4159 1338.6476,744.4199 C1339.2966,745.6379 1341.2036,745.7109 1342.0566,745.6819 C1345.7186,745.5559 1345.0986,741.3009 1346.4786,738.3569 C1354.9386,743.4079 1353.3686,736.9329 1353.5506,734.8199 C1358.4756,737.2219 1359.9896,733.3059 1359.9896,731.4119 C1359.9896,729.6429 1359.5576,728.0059 1356.9056,727.0749 C1363.5896,725.4019 1362.0336,721.5969 1358.4416,720.4179 C1357.3746,720.0679 1356.5006,720.3629 1356.2126,719.9039 C1356.0696,719.6719 1356.5486,718.5279 1356.5566,718.0189 C1356.5956,715.6419 1355.0856,713.7519 1353.4726,712.7089 C1352.7926,712.2679 1351.6286,712.3099 1351.0716,711.6799 C1349.9866,710.4449 1351.4356,708.7129 1351.4166,707.7379 C1351.3706,705.2989 1348.8746,703.5949 1347.1316,703.2829 C1345.3216,702.9569 1343.6466,704.0879 1342.3346,703.6269 C1341.4796,703.3239 1341.7716,702.2839 1341.1346,702.0849 C1339.1286,701.4559 1336.6916,704.6459 1336.3376,705.6809 C1336.1676,706.1819 1336.4816,707.3039 1335.9936,707.7379 C1335.6616,708.0369 1333.5456,708.1399 1332.9116,708.4239 C1332.2046,708.7399 1330.9766,709.4739 1330.5096,709.9669 C1329.6836,710.8429 1329.7736,712.1109 1328.2846,712.1929 C1327.5616,712.2319 1327.3366,711.6029 1326.5696,711.5089 C1321.7336,710.9099 1320.3626,715.4239 1321.2596,719.0469 C1321.3726,719.5089 1322.0686,720.1169 1321.9436,720.7599 C1321.8216,721.3839 1320.4316,721.9899 1319.7166,722.8169 C1318.6966,723.9979 1317.6126,725.4179 1317.6596,727.0999 C1317.7106,728.8039 1319.6366,731.4469 1319.5436,732.0699 C1319.4536,732.6869 1317.8026,733.7179 1317.4886,734.2969 Z M1320.8776,733.2789 C1321.7256,732.9349 1322.8426,732.8809 1323.2686,733.5929 C1323.9646,734.7619 1322.2806,736.4059 1321.2876,736.6459 C1318.4626,737.3349 1318.4186,733.3239 1320.8776,733.2789 Z M1321.9436,726.0729 C1323.2436,725.9489 1322.2496,727.4089 1323.8286,727.2719 C1323.7456,728.1029 1323.2816,728.5529 1323.1436,729.3279 C1322.3786,728.3609 1320.7826,729.7279 1320.2316,728.9859 C1319.9176,728.5659 1321.2026,726.1439 1321.9436,726.0729 Z M1324.5156,715.6199 C1324.7066,715.6039 1325.8506,716.2829 1325.8856,716.4769 C1326.1126,717.7689 1323.8316,717.7209 1323.3156,718.7049 C1322.6746,717.5949 1323.6746,715.6929 1324.5156,715.6199 Z M1331.4066,721.2909 C1332.6876,720.0499 1336.1356,723.1709 1332.8336,724.2069 C1329.8736,725.1349 1330.0446,721.3649 1331.4066,721.2909 Z M1335.6506,714.0779 C1334.9856,714.6689 1333.4636,714.4029 1332.9116,715.1069 C1331.7016,713.5899 1335.2866,712.2019 1335.6506,714.0779 Z M1337.4926,731.8999 C1338.7226,732.0009 1339.1516,734.5409 1337.2346,734.4779 C1335.2806,734.4139 1335.5566,731.1829 1337.4926,731.8999 Z M1341.1796,705.3459 L1340.7326,705.4219 C1340.9296,706.0489 1338.9786,709.1889 1337.8196,706.8489 C1338.3546,705.5229 1339.8006,704.4159 1341.1796,705.3459 Z M1340.4356,715.8429 C1337.3766,715.1089 1340.1826,712.1249 1341.6466,713.8299 L1341.2476,713.4289 C1343.1986,712.6599 1343.3956,716.5559 1340.4356,715.8429 Z M1337.8806,720.0749 C1338.8526,720.6699 1339.1166,719.1889 1339.5916,719.2189 C1341.4506,719.3359 1341.1456,723.5809 1339.4226,723.3309 C1338.2936,723.1689 1338.6226,721.0019 1337.8806,720.0749 Z M1340.5686,740.8459 C1336.1526,741.6099 1338.3206,736.0699 1340.0036,738.4769 L1339.6026,737.8769 C1340.9046,737.6869 1341.2616,739.7579 1340.5686,740.8459 Z M1331.6446,736.9479 C1329.3046,736.1239 1332.4876,732.5949 1333.4906,733.7629 L1332.9886,733.2619 C1334.7286,733.3669 1333.7256,737.6809 1331.6446,736.9479 Z M1347.4556,706.0159 L1347.3866,706.0579 C1348.3926,706.4199 1348.8586,709.6249 1346.0556,708.4199 C1343.8996,707.4939 1345.7636,704.7519 1347.4556,706.0159 Z M1346.1036,722.3019 C1346.0836,722.2029 1346.3146,721.8039 1346.5386,721.4819 C1346.5846,721.1819 1346.6846,720.8139 1346.7896,720.7599 C1347.1316,720.5859 1348.0696,721.0659 1347.9886,721.9609 C1347.8656,723.3329 1346.2576,723.0369 1346.1036,722.3019 Z M1356.8726,724.2459 L1356.4716,722.8439 C1357.2166,723.5939 1358.1516,724.9479 1357.6396,726.0139 C1353.5566,726.8229 1355.1226,721.3839 1356.8726,724.2459 Z M1168.0736,825.2844 C1168.0606,824.6794 1169.3046,823.8004 1169.6146,823.2284 C1172.7626,817.4414 1165.1036,812.5304 1159.8486,815.3454 C1159.3816,815.5954 1159.2426,816.1364 1158.8216,816.3744 C1158.0146,816.8254 1157.1296,816.7714 1156.0796,817.4024 C1158.4986,814.2224 1157.3056,810.1964 1154.0226,809.5194 C1152.6136,809.2284 1150.6126,809.7824 1148.8826,810.3764 C1148.0716,810.6544 1144.7686,811.6574 1144.4276,812.0894 C1143.9796,812.6554 1144.8886,814.1714 1143.3996,813.6324 C1143.7556,811.6634 1145.4336,809.8374 1145.9706,808.3204 C1147.0786,805.1814 1146.0706,802.4354 1143.3996,802.1504 C1139.8836,801.7774 1135.3326,806.0114 1135.0036,809.0054 C1134.9636,809.3644 1135.3726,810.2324 1135.1746,810.5484 C1135.2956,810.3574 1133.6176,811.5444 1133.2906,811.0624 C1133.0826,810.7554 1134.1416,809.2284 1134.1466,808.6614 C1134.1566,807.3844 1132.2296,804.3064 1131.5766,803.6934 C1127.8116,800.1544 1120.9796,806.8594 1120.9526,809.1774 C1120.9406,810.2384 1122.4636,811.5774 1121.2956,812.0894 C1120.6806,812.3594 1120.2066,810.6754 1119.5816,810.2044 C1115.1716,806.8924 1110.5626,814.1284 1109.6436,816.8884 C1108.6366,811.9254 1102.7486,811.8984 1101.0756,815.3454 C1100.5586,816.4134 1101.0306,820.0894 1100.7336,820.3144 C1100.5666,820.4414 1098.7976,819.6264 1098.3346,819.6284 C1096.8476,819.6404 1095.1056,820.5734 1095.5936,821.3414 C1095.5936,821.3414 1093.3616,825.6284 1100.2656,828.8334 C1100.2676,828.8124 1101.3156,829.0974 1101.9336,828.8824 C1101.9456,828.8764 1102.3186,833.8084 1102.2766,834.0234 C1102.0576,835.1034 1100.7516,836.1304 1100.2206,837.2774 C1098.2706,841.4784 1099.7406,847.7434 1103.9896,848.5854 C1106.0526,848.9974 1107.8606,847.6874 1109.1296,847.9024 C1109.5476,847.9724 1109.6426,848.4764 1110.1586,848.4154 C1110.8906,848.3274 1110.3106,847.7574 1111.1866,847.9024 C1111.7236,849.6794 1112.2536,851.6184 1113.9266,852.0134 C1115.2776,852.3334 1116.0706,851.3624 1117.3546,851.1574 C1117.7256,851.0974 1118.1776,851.4864 1118.5546,851.4994 C1119.3686,851.5284 1120.8526,851.3984 1121.4676,851.1574 C1121.7976,851.0274 1121.9266,850.4484 1122.3236,850.1284 C1123.7796,848.9544 1124.4166,847.8884 1125.0656,846.0174 C1124.3416,848.5974 1124.1406,850.3214 1125.2356,852.6984 C1125.9816,854.3144 1128.5406,857.9524 1130.0346,858.6964 C1132.8346,860.0914 1136.1716,857.5464 1137.0596,855.7824 C1137.3396,855.2284 1137.2776,854.4644 1137.5746,853.9004 C1137.7666,853.5284 1138.8046,851.1504 1138.7736,851.1574 C1139.2566,851.0364 1139.3666,851.7904 1139.4586,852.0134 C1140.6246,854.8514 1142.6366,858.4274 1146.4836,858.0114 C1147.3266,857.9214 1147.9746,857.2414 1148.8826,857.1544 C1148.9606,861.9454 1149.6456,866.7414 1153.6806,866.9214 C1156.9046,867.0664 1160.2726,864.9884 1160.5346,861.2674 C1160.6306,859.8944 1159.8486,858.2824 1160.0206,856.8124 C1160.0616,856.4524 1160.4716,856.0544 1160.7056,855.4414 C1161.1086,854.3804 1161.2836,851.9864 1161.5626,851.4994 C1161.8026,851.0774 1162.6566,850.9254 1162.9336,850.6424 C1163.2346,850.3354 1163.3896,849.6184 1163.7906,849.1034 C1164.1986,848.5714 1164.9816,848.2264 1165.3326,847.7304 C1166.7466,845.7224 1167.8276,842.7964 1167.2176,839.3334 C1167.0626,838.4604 1165.5286,837.0424 1165.6746,836.4214 C1165.7786,835.9824 1167.0556,835.7594 1167.5606,835.3944 C1169.1066,834.2674 1171.3296,832.0324 1170.6436,829.0544 C1170.3456,827.7594 1168.0916,826.0644 1168.0736,825.2844 Z M1164.3146,830.2574 C1163.0326,828.6964 1166.4956,827.1424 1167.4986,828.7104 L1166.9056,828.7104 C1167.4336,829.5684 1165.9716,832.2754 1164.3146,830.2574 Z M1163.3566,842.2514 C1162.3356,843.0754 1160.5536,842.7804 1159.4786,842.0974 C1158.1606,841.2594 1157.4926,839.5754 1159.2146,838.8644 C1159.9066,838.5774 1161.6496,839.0934 1162.1536,839.8064 L1162.3166,838.9074 C1164.0726,838.2614 1164.5446,841.2904 1163.3566,842.2514 Z M1157.3046,826.8804 C1156.2906,827.7694 1153.5556,828.4134 1152.4496,827.3844 C1150.7316,825.7804 1153.2056,824.1404 1155.1606,823.8824 L1155.1286,823.8644 C1155.4186,823.8204 1155.7076,823.8234 1155.9876,823.8614 C1155.9996,823.8634 1156.0116,823.8644 1156.0226,823.8664 C1157.6116,824.1014 1158.8236,825.5524 1157.3046,826.8804 Z M1152.6526,858.0114 C1153.6476,858.6754 1153.6426,859.7144 1155.2226,859.0384 C1156.2626,862.8354 1151.1196,859.7044 1152.6526,858.0114 Z M1149.1066,839.4174 C1147.6676,838.1074 1149.9576,835.9394 1151.5846,836.5254 L1150.6156,835.7324 C1154.6576,834.2804 1152.0556,842.1054 1149.1066,839.4174 Z M1147.7766,829.2924 C1147.3156,830.7574 1144.1146,831.4054 1142.9266,830.8434 C1140.4446,829.6654 1142.9566,827.9004 1145.4436,827.4274 C1145.7836,827.2324 1146.1526,827.2104 1146.4986,827.3104 C1147.1976,827.2924 1147.8326,827.4074 1148.2746,827.7084 L1147.1406,827.6464 C1147.6476,828.0504 1147.9636,828.7024 1147.7766,829.2924 Z M1139.2566,809.6594 C1135.3506,808.9934 1139.9466,803.4644 1142.5916,805.4764 L1142.3096,805.4764 C1143.1946,806.5894 1142.2596,810.1714 1139.2566,809.6594 Z M1140.8856,834.5644 C1140.2576,836.5094 1137.9696,836.6554 1136.5606,835.7224 C1134.8866,834.6164 1134.0126,832.8314 1135.8306,831.4524 C1136.3576,831.0524 1138.0346,830.6834 1138.8616,830.9704 C1140.1656,830.5914 1141.2646,833.3924 1140.8856,834.5644 Z M1130.0346,853.2144 C1130.1356,851.9584 1131.0586,849.8964 1132.4336,849.7864 C1132.5876,849.7734 1134.2326,850.3724 1134.3186,850.6424 C1134.6706,851.7574 1131.0916,853.7434 1130.0346,853.2144 Z M1129.8636,825.1134 C1129.6146,824.6874 1130.5836,822.2184 1130.8906,822.0294 C1131.3696,821.7324 1133.8866,821.5134 1133.8026,821.5134 C1134.8756,821.5154 1136.2366,822.4704 1135.1746,824.2554 C1134.4426,825.4864 1130.2676,825.8024 1129.8636,825.1134 Z M1128.0396,816.3884 C1125.9986,815.0134 1128.3586,813.3644 1130.2536,813.4974 C1131.4486,813.0294 1133.0556,813.9604 1132.4066,815.3394 C1131.8886,816.4394 1129.0036,817.0364 1128.0396,816.3884 Z M1124.5006,809.6184 C1122.0516,809.8104 1123.2976,807.5504 1125.2476,806.5754 C1125.8316,805.4664 1127.7216,805.2594 1128.1106,806.4274 C1128.1456,806.4454 1128.1816,806.4584 1128.2156,806.4804 L1128.1286,806.4824 C1128.1616,806.5954 1128.1846,806.7144 1128.1866,806.8514 C1128.2096,808.1184 1125.5726,809.5344 1124.5006,809.6184 Z M1121.3536,821.8634 C1116.6606,822.3494 1119.3626,817.7804 1122.4586,817.6524 C1123.4606,817.4194 1124.5896,817.7284 1124.8806,818.8414 C1125.3426,820.6094 1122.6426,821.7284 1121.3536,821.8634 Z M1118.8546,839.7904 C1117.1476,839.2734 1117.8006,838.1524 1118.8746,837.7804 L1118.6866,837.7374 C1120.7676,835.4274 1122.5916,840.9234 1118.8546,839.7904 Z M1116.0496,846.1014 C1111.6096,846.2454 1115.6556,839.6614 1117.5166,842.2514 L1117.2806,842.2514 C1118.5926,843.3644 1119.3736,845.9934 1116.0496,846.1014 Z M1115.6416,826.9954 C1114.5116,826.4234 1115.3236,823.8514 1116.3266,823.7414 C1117.7896,823.5814 1117.9106,828.1484 1115.6416,826.9954 Z M1116.3946,811.1694 C1118.3306,811.1134 1119.6196,814.1524 1115.8496,814.5114 C1111.9686,814.8804 1114.2896,810.2534 1116.3946,811.1694 Z M1133.4996,817.1694 C1134.3276,816.1304 1137.9276,818.5444 1134.4006,819.0584 C1131.9796,819.4094 1132.5856,817.6754 1133.4996,817.1694 Z M1149.1956,820.0464 C1149.5966,820.2434 1149.8506,820.6094 1149.7486,821.1524 C1149.5176,822.3944 1146.0066,823.1574 1145.0536,823.0274 C1140.6496,822.4374 1147.0986,817.9434 1149.1956,820.0464 Z M1152.9826,812.0424 C1154.1256,811.8294 1154.6666,813.5624 1154.0876,814.4664 C1153.4976,815.3904 1150.9236,815.8784 1149.9466,815.6814 C1145.0116,814.6894 1151.8886,810.3144 1152.9826,812.0424 Z M1166.6626,819.6854 L1165.9126,819.3514 C1165.9176,819.5834 1165.8466,819.8274 1165.6646,820.0664 C1165.0506,820.8644 1162.2236,821.0154 1161.6816,819.9764 C1160.8186,818.3194 1166.1966,816.8214 1166.6626,819.6854 Z M1109.1246,823.3664 C1108.8826,824.5234 1106.3316,825.4484 1105.3156,825.3314 C1103.1216,825.0794 1103.4016,823.8044 1104.7386,822.7264 C1105.2616,822.3064 1105.7366,822.0604 1106.2206,821.9114 C1106.5056,821.1464 1107.4526,821.2224 1108.1936,821.6914 L1108.6576,821.6914 L1108.2986,821.7634 C1108.8476,822.1484 1109.2536,822.7474 1109.1246,823.3664 Z M1103.6466,840.0794 C1100.1686,839.8064 1102.2516,836.3234 1104.5236,836.5604 C1105.1516,835.9824 1106.9596,837.3764 1106.9596,838.1384 C1106.9596,839.5484 1104.7226,840.1614 1103.6466,840.0794 Z M1102.2766,819.6284 C1101.7086,818.4174 1104.1656,815.6114 1104.8456,815.5154 C1104.9956,815.4954 1106.6136,816.3434 1106.7316,816.8884 C1106.7666,817.0564 1106.0186,818.9894 1105.5316,819.4564 C1104.9826,819.9864 1102.7606,820.6634 1102.2766,819.6284 Z M1321.0617,796.5109 C1320.4897,795.9469 1317.4357,794.6639 1317.2257,794.2009 C1317.1577,794.0539 1317.6947,793.1639 1317.7027,792.8419 C1317.7377,791.3919 1316.0507,789.7339 1314.7597,789.2239 C1314.5667,789.1499 1312.4037,789.1909 1311.9787,788.6699 C1311.7817,788.4289 1312.2647,787.1809 1312.1887,786.6009 C1311.9297,784.5839 1310.7937,782.8139 1309.2337,781.8979 C1308.7657,781.6249 1305.3917,780.9859 1305.3547,780.5309 C1305.3307,780.2299 1306.8247,779.6399 1306.9517,779.5129 C1309.0387,777.4289 1309.0997,774.0899 1306.3247,772.0619 C1305.6997,771.6029 1301.7627,770.1789 1301.4557,770.1639 C1300.2687,770.1069 1299.5287,770.9309 1298.5597,770.8809 C1297.5817,770.8299 1297.4457,769.9509 1296.9377,769.7299 C1296.4757,769.5289 1294.7117,769.2179 1294.2107,769.3199 C1293.7027,769.4239 1292.4787,770.2829 1292.1237,770.6129 C1291.8087,770.9099 1291.6307,772.5169 1290.7757,772.8099 C1290.4727,772.9159 1289.4347,772.3789 1288.8257,772.3629 C1285.4807,772.2729 1286.0867,772.5719 1285.3507,774.1029 C1285.0547,774.7089 1284.7517,776.8769 1284.2027,777.1169 C1282.8577,777.7049 1281.1717,776.6189 1280.5037,776.5289 C1279.8497,776.4409 1277.9757,776.4649 1277.0477,776.9139 C1275.6007,777.6129 1276.2427,781.7459 1277.4257,782.4369 C1279.5777,783.6909 1280.6567,784.2149 1280.4227,784.2069 C1280.0067,784.1929 1278.0387,787.0839 1277.9967,787.4099 C1277.6767,789.7499 1279.9637,791.2589 1282.0547,793.8709 C1282.5997,794.5519 1276.8317,794.3669 1278.1047,798.4999 C1278.8007,800.7479 1279.3707,801.0349 1280.9647,801.7669 C1279.8677,802.0409 1277.4057,801.4349 1276.2027,804.6269 C1275.3007,807.0149 1277.5357,807.0049 1277.2897,808.9819 C1277.0037,811.2809 1278.5337,811.9739 1278.8997,813.3299 C1279.0407,813.8419 1278.6987,814.4469 1278.7107,814.9289 C1278.7637,817.3589 1280.7007,820.5409 1282.7767,821.5289 C1286.0117,823.0699 1291.1167,820.5149 1291.3467,818.0069 C1291.4217,817.1789 1290.5957,815.7809 1291.1637,815.4119 C1291.6937,815.0699 1293.5587,816.4249 1293.5077,816.3839 C1294.2447,816.9529 1294.7327,818.0209 1295.2667,818.4329 C1296.8597,819.6579 1300.3607,820.1009 1303.1817,818.9549 C1304.2407,818.5249 1304.5657,817.7669 1305.0547,817.0929 C1306.2407,815.4569 1306.6477,813.4469 1306.3157,811.5019 C1308.1407,811.5929 1309.6827,811.8239 1311.4167,810.8589 C1312.4767,810.2669 1315.1547,806.8839 1315.3097,806.4759 C1315.6007,805.7169 1314.8467,805.4899 1315.5547,805.0189 C1316.6017,804.3219 1318.1737,804.7459 1319.2287,804.2629 C1320.6197,803.6269 1320.3957,802.3339 1320.7277,801.4079 C1321.2727,799.8789 1322.3527,798.6909 1321.7987,797.4159 C1321.7187,797.2339 1321.2477,796.6969 1321.0617,796.5109 Z M1305.8307,798.1129 C1303.4777,795.8999 1308.3887,793.7789 1308.9187,795.7969 C1309.2007,796.8669 1306.7047,797.2519 1305.8307,798.1129 Z M1304.4137,786.9739 C1302.4117,786.8319 1304.2827,784.4489 1305.5497,784.2069 C1307.8707,783.7709 1306.5497,787.1269 1304.4137,786.9739 Z M1301.9857,775.7769 C1301.1187,775.9979 1301.6067,776.9759 1301.1227,777.6989 C1300.2667,777.8919 1300.2247,776.7889 1300.3537,776.1789 C1300.3077,776.3959 1301.5937,774.5659 1301.1947,774.7299 C1302.1477,774.3399 1302.8347,775.2439 1303.4647,776.0309 C1302.5997,776.5969 1302.5237,775.6399 1301.9857,775.7769 Z M1297.6467,803.7139 C1297.4457,803.6419 1297.4277,803.1639 1297.1447,802.9059 C1296.3177,802.1459 1294.5697,802.2539 1296.3237,801.2479 C1297.4817,800.5819 1298.3337,800.2419 1299.0927,800.7139 C1300.5557,801.6249 1299.3937,804.3339 1297.6467,803.7139 Z M1294.1637,786.5579 C1291.5577,786.3549 1293.3777,783.6029 1295.6127,783.3859 C1295.7877,783.3609 1295.9437,783.3589 1296.0817,783.3809 C1296.4397,783.4059 1296.8007,783.5019 1297.1497,783.6889 L1296.6877,783.7609 C1297.2497,784.6539 1296.2747,786.7219 1294.1637,786.5579 Z M1293.8827,772.3179 C1296.2967,771.7559 1297.1417,775.0089 1294.3287,775.5079 C1291.3077,776.0469 1290.5907,772.3419 1293.8827,772.3179 Z M1287.0577,799.1299 C1287.6897,798.1969 1289.3817,797.1049 1290.5907,797.4199 C1290.5947,797.3799 1290.5957,797.3359 1290.6017,797.2979 C1294.5387,797.8279 1288.9617,802.6679 1287.0577,799.1299 Z M1290.2687,808.3139 C1290.1907,808.4309 1289.6437,808.2749 1289.3097,808.3959 C1288.3497,808.7479 1288.4927,809.9429 1287.4387,810.2589 C1286.2367,809.4839 1287.3707,806.3319 1288.2767,806.1679 C1289.0807,806.0229 1290.8687,807.4369 1290.2687,808.3139 Z M1286.3347,814.8549 C1286.0757,815.9799 1284.0417,816.4589 1282.8667,816.1949 C1279.7817,815.5019 1283.1777,813.4369 1285.3807,813.6599 L1283.7887,813.3569 C1284.3477,812.9779 1285.2507,813.2479 1285.8217,813.7399 C1285.8367,813.7459 1285.8517,813.7479 1285.8657,813.7519 L1285.8267,813.7459 C1286.1937,814.0619 1286.4247,814.4669 1286.3347,814.8549 Z M1279.1457,810.6339 C1279.5337,809.9289 1280.0307,810.0579 1280.7897,809.7419 L1280.0417,809.1209 C1280.5297,809.0639 1280.8957,808.8629 1281.4027,808.8429 C1282.1137,809.7909 1282.3197,810.8319 1281.9537,811.8179 C1280.5427,811.7049 1280.0647,811.4939 1279.1457,810.6339 Z M1280.4007,804.3219 L1281.4817,804.4569 C1281.4657,803.9919 1280.1717,804.2219 1281.1417,803.6849 C1289.9607,804.1929 1275.2757,808.4759 1280.4007,804.3219 Z M1279.5207,788.9139 C1279.5777,787.4649 1280.2857,787.2419 1282.2507,787.1379 L1281.5007,786.5169 C1284.8677,784.9899 1284.4197,790.8569 1279.5207,788.9139 Z M1279.4187,779.2869 C1277.0047,779.9409 1277.6127,777.6759 1279.4777,777.1499 C1279.6387,777.0369 1279.8187,777.0079 1279.9947,777.0509 C1280.1587,777.0369 1280.3307,777.0329 1280.5117,777.0489 L1280.1917,777.1269 C1280.8787,777.4899 1281.2687,778.7849 1279.4187,779.2869 Z M1284.0657,781.6579 L1283.3177,781.0349 C1287.1297,779.8729 1285.5747,784.9569 1282.5327,784.4899 C1279.3827,784.0079 1281.1687,779.1539 1284.0657,781.6579 Z M1288.2967,774.5229 L1287.4227,774.9409 C1288.1617,774.8339 1288.8867,774.9629 1289.0777,775.5409 C1289.3687,776.4139 1287.2257,777.4019 1286.3067,777.4389 C1282.8227,777.5779 1286.0237,773.8119 1288.2967,774.5229 Z M1290.5617,792.0779 C1290.5357,792.6789 1290.5747,792.6579 1288.9847,793.3449 C1288.6257,792.5519 1287.9207,792.9699 1288.4327,791.6759 C1288.8727,790.5539 1288.9047,790.4329 1289.4857,790.2089 C1292.5737,789.0129 1290.5847,791.5509 1290.5617,792.0779 Z M1243.1245,837.9625 C1243.4205,836.8455 1245.7765,836.6285 1247.4075,835.3945 C1248.8455,834.3045 1250.9805,832.0585 1251.0065,829.7375 C1251.0215,828.3665 1250.2845,825.3985 1249.9785,824.5995 C1249.3505,822.9625 1247.7825,820.3765 1245.6955,820.3145 C1246.8425,817.5405 1245.7505,815.4235 1244.4955,813.6325 C1241.4025,809.2185 1234.6425,810.0525 1231.6445,813.1185 C1230.1465,810.4955 1226.2875,807.5775 1222.9055,810.0325 C1222.4045,810.3985 1220.8275,812.8475 1220.3355,812.7735 C1220.3715,812.7805 1219.6415,811.6465 1219.4765,811.4055 C1217.9655,809.1635 1217.7485,810.6265 1215.7085,811.2325 C1213.5085,811.8865 1209.0035,811.4015 1207.9965,813.2905 C1206.7075,815.7165 1209.0315,818.1285 1207.4835,820.4855 C1207.0705,819.9915 1206.9265,819.6035 1206.4555,819.4565 C1203.7025,818.6075 1203.2345,821.6165 1202.5145,822.3705 C1202.1085,822.7965 1201.1475,822.9335 1200.8025,823.2285 C1199.3515,824.4585 1198.2285,826.5855 1198.4015,828.8825 C1198.5175,830.3985 1200.8875,833.0175 1200.6305,833.6815 C1200.5705,833.8355 1199.0235,834.3335 1198.4015,834.7085 C1196.6095,835.7845 1194.4205,837.5445 1193.7765,839.8475 C1192.9955,842.6445 1194.3855,846.2825 1196.0035,847.3885 C1197.0515,848.0995 1201.4645,848.6595 1202.8565,847.2165 C1203.5605,846.4875 1202.7485,844.9725 1204.5705,844.8155 C1204.0605,847.4235 1203.6315,848.9645 1204.0575,850.6425 C1204.2185,851.2825 1205.6495,853.9355 1206.1125,854.2415 C1207.0085,854.8355 1208.0275,854.1485 1209.3685,854.5835 C1209.9225,854.7655 1210.2115,855.6485 1210.9095,855.7825 C1213.9195,856.3625 1218.9265,853.5875 1219.3085,851.6715 C1219.4935,850.7265 1218.2325,849.7045 1218.4485,849.1035 C1218.4865,849.0015 1219.6175,848.2225 1219.9915,848.5855 C1220.3865,848.9705 1219.9915,849.8495 1220.1645,850.8145 C1220.4045,852.1775 1222.1165,854.7185 1222.5615,856.2985 C1222.7295,856.8825 1222.2565,857.1795 1222.7345,857.4975 C1222.9395,857.6325 1224.1515,857.6015 1224.6185,857.4975 C1225.2775,857.3515 1226.4285,856.5935 1227.8745,855.7825 C1228.9235,855.1965 1230.3035,854.8765 1231.1285,854.0695 C1233.1325,852.1125 1231.0105,849.9805 1231.6445,847.7305 C1231.8015,847.1675 1233.8125,845.2355 1234.2135,845.1595 C1234.5705,845.0915 1235.3445,845.5875 1235.7555,845.6735 C1238.6225,846.2805 1242.4775,844.3985 1243.4665,842.9335 C1244.6995,841.1055 1242.7315,839.4425 1243.1245,837.9625 Z M1239.6725,826.2535 C1236.9005,823.4725 1246.7315,821.6165 1245.8975,825.0345 L1245.8295,825.0215 C1246.0275,825.3605 1246.0335,825.7575 1245.7325,826.2125 C1244.9875,827.3315 1240.5565,827.1425 1239.6725,826.2535 Z M1238.3385,839.9565 C1236.2645,838.5015 1238.3415,837.7745 1239.9665,838.1575 L1239.8785,838.0735 C1242.0465,838.0955 1240.6255,841.5645 1238.3385,839.9565 Z M1235.2095,816.3885 C1232.8085,815.4525 1233.3955,813.9605 1235.5275,813.3315 C1237.1525,812.8555 1238.6655,812.8645 1240.2125,813.4995 L1239.7625,813.5305 C1240.4385,813.9015 1240.7015,814.7355 1239.9195,815.7185 C1238.9545,816.9355 1236.5105,816.8945 1235.2095,816.3885 Z M1232.0305,822.7025 C1231.2735,823.1795 1229.4115,822.5095 1229.0575,821.8555 C1227.9415,819.8005 1231.5115,819.7765 1232.0145,821.0665 C1232.7225,821.0935 1232.7905,822.2285 1232.0305,822.7025 Z M1228.7315,816.3745 C1227.7655,817.0245 1224.4485,818.2455 1224.7895,816.0305 C1224.9525,814.9705 1225.9185,814.4425 1227.1905,814.1465 C1228.1785,813.9135 1229.8255,813.5135 1230.1015,814.6615 C1230.2905,815.4425 1229.3515,815.2185 1229.2455,815.3455 C1228.9045,815.7535 1229.0485,816.1595 1228.7315,816.3745 Z M1223.9335,830.0815 C1222.9815,830.7845 1221.7945,832.2335 1219.9915,831.7945 C1219.4925,831.6735 1218.6625,830.5285 1217.9375,830.0815 C1217.6705,829.9175 1217.0135,829.9875 1216.9095,829.5675 C1216.6075,828.3535 1219.5615,826.9785 1221.7055,826.9955 C1223.0995,827.0095 1224.3055,827.2635 1225.8185,827.1695 C1225.8105,828.7735 1225.1875,829.1535 1223.9335,830.0815 Z M1217.5935,837.9625 C1217.0385,838.6965 1214.0985,838.8475 1213.6525,838.3065 C1212.8505,837.3315 1215.5875,835.2945 1216.5655,835.3945 C1217.3885,835.4765 1218.6065,836.6185 1217.5935,837.9625 Z M1211.4235,831.7945 C1211.5175,831.7925 1209.9865,831.1555 1210.0535,831.2805 C1209.1225,829.5325 1212.1175,829.0755 1212.7965,828.3665 C1213.0795,829.5755 1212.7765,831.7595 1211.4235,831.7945 Z M1208.4525,847.4375 C1207.1535,847.5115 1205.7095,846.4895 1205.9425,845.0895 C1206.1295,843.9625 1207.5955,843.4315 1208.1995,844.0195 C1209.9065,842.6715 1212.0995,847.2335 1208.4525,847.4375 Z M1203.9415,836.0755 C1202.1985,834.1675 1206.7615,832.9705 1207.4505,834.7305 L1207.0725,834.6715 C1207.2565,835.0235 1207.2675,835.4805 1206.9895,835.9075 C1206.4285,836.7735 1204.6195,836.8195 1203.9415,836.0755 Z M1201.8305,828.7105 C1201.5095,828.2965 1202.2185,826.8905 1202.6865,826.6535 C1203.7475,826.1185 1205.2085,827.5485 1206.1125,826.9955 C1205.8615,827.8725 1202.5925,829.7065 1201.8305,828.7105 Z M1212.9925,813.3475 C1212.9965,813.3085 1212.9995,813.2635 1213.0025,813.2265 C1216.9425,813.7555 1211.3635,818.5975 1209.4595,815.0585 C1210.0905,814.1245 1211.7835,813.0305 1212.9925,813.3475 Z M1222.8285,821.5245 L1223.3315,821.1895 C1224.2165,820.9485 1225.0675,822.1465 1224.5045,822.9955 C1223.9235,823.8725 1222.4275,823.5345 1221.6465,823.2375 C1218.5535,822.0585 1221.8335,820.2165 1222.8285,821.5245 Z M1196.3465,842.9335 C1195.7555,841.5115 1197.8265,840.6245 1198.2305,839.6775 C1198.2965,840.5585 1200.0955,841.0895 1200.2865,841.7335 C1201.0145,844.1735 1196.9695,844.4335 1196.3465,842.9335 Z M1065.4572,853.5211 C1068.7492,853.0761 1071.5382,851.2891 1074.8852,850.9881 C1075.6752,850.9171 1077.1822,850.5211 1076.5022,849.4451 C1075.7882,848.3161 1077.6842,848.0761 1078.4582,847.7301 C1081.8662,846.2101 1085.0532,844.2671 1088.0612,842.0681 C1089.5612,840.9701 1099.0412,832.8671 1099.8982,832.2961 C1100.0552,832.1931 1094.6502,831.7201 1093.9152,828.6771 C1093.0742,830.4641 1091.8432,832.0211 1089.9392,832.1381 C1087.3112,832.3021 1086.2452,832.3901 1083.8592,833.8821 C1079.1552,836.8261 1075.2732,839.5351 1069.8912,841.2181 C1070.4472,844.0461 1068.1762,846.1421 1065.3832,845.5801 C1063.3292,845.1661 1064.7252,845.7281 1063.7232,846.3591 C1062.6212,847.0561 1060.4652,846.5641 1059.2682,846.7011 C1056.8072,846.9841 1053.6482,847.0641 1051.3832,848.0621 C1049.2922,848.9841 1046.7932,848.6091 1045.0792,849.4821 C1044.2092,849.9231 1043.5282,849.2831 1042.8182,849.6151 C1041.8592,850.0641 1041.8522,851.1321 1040.6012,851.6071 C1037.8412,852.6441 1034.6382,852.2071 1031.7542,852.4021 C1029.3502,852.5661 1026.9472,852.8021 1024.5532,853.0891 C1022.5292,853.3321 1022.6272,853.6341 1021.5722,854.4141 C1015.5492,851.6871 1008.2272,854.8841 1003.5792,857.1541 C1004.4862,854.2871 1006.6172,850.7221 1008.0352,848.0721 C1009.2302,845.8391 1010.3652,843.3371 1011.2492,840.7361 C1012.7452,836.3341 1012.7922,832.7051 1011.0132,828.4511 C1009.1192,823.9251 1008.9042,818.8141 1008.7212,813.9741 L1007.9702,814.0621 L1007.3502,813.6321 C1006.6742,816.6711 1005.3162,819.4841 1005.1192,822.6341 C1005.0182,824.2511 1005.5382,825.5211 1005.6032,827.0891 C1005.6822,828.9591 1003.8092,826.9641 1002.9822,828.2501 C1001.3742,830.7571 1000.4652,830.2981 1000.2242,833.7831 C999.9602,837.5931 1000.5612,841.2731 998.8872,844.9271 C998.2782,846.2551 994.7872,847.7891 994.4992,849.2711 C994.2852,850.3711 994.6432,850.9081 994.1112,851.9961 C992.5912,855.0991 989.6552,857.7851 989.5502,861.4371 C989.5252,862.2851 985.6202,866.7381 987.5222,866.5251 C990.0562,866.2421 991.0292,871.3201 993.0462,870.4431 C994.7592,869.6991 994.6222,867.0501 995.8402,865.8431 C996.0592,865.6261 1002.2002,865.6071 1003.0662,865.5501 C1005.5192,865.3921 1008.0472,865.7011 1010.3582,866.2631 C1011.5772,866.5581 1011.6932,862.9591 1013.6892,862.2941 C1016.1052,861.4901 1020.6142,861.1361 1023.2852,861.9511 C1024.3092,862.2651 1040.7282,865.3021 1039.3572,862.8571 C1039.2152,862.4641 1038.7032,862.4391 1038.7062,861.6091 C1039.5332,861.8201 1041.1742,860.4861 1041.9612,860.2381 C1045.0192,859.2751 1049.0072,860.6171 1051.2742,857.8021 C1054.0852,854.3161 1061.6982,854.0331 1065.4572,853.5211 Z" id="Combined-Shape" stroke="none" fill="#255C2D" fill-rule="evenodd"></path>
    <path class="logo-fill" d="M1201.60908,689.254731 C1199.973,690.3447 1197.42046,691.797739 1194.5349,691.9259 C1191.6089,692.0549 1195.9569,687.5719 1196.3589,687.3689 C1196.7659,687.1679 1198.7839,685.6829 1196.5419,684.8229 C1194.2999,683.9609 1190.0699,688.5499 1192.1749,692.2429 C1194.14552,695.700855 1206.76225,689.002199 1209.70305,686.943551 C1212.45402,685.21784 1215.05449,682.869491 1216.1096,679.7343 C1219.0356,671.0383 1210.0616,668.0463 1204.2406,667.4573 C1200.5806,667.0873 1168.9826,664.2563 1146.8786,685.7793 C1124.7766,707.3013 1123.6536,766.1913 1107.8226,780.7303 C1100.7646,787.2103 1096.0126,791.2063 1088.5206,793.2593 C1037.4876,807.2413 1039.0466,750.0813 1064.9196,742.7703 C1077.4046,739.1833 1078.1516,747.8643 1078.4386,750.5943 C1078.4386,750.5943 1078.1966,755.6083 1081.0406,754.6663 C1096.6566,749.5133 1081.1236,738.2203 1063.1346,741.5513 C1032.6166,747.0223 1026.6126,777.6033 1036.0426,793.0973 C1042.8526,804.2843 1061.6876,806.2693 1070.1106,804.9913 C1079.3896,803.5853 1120.7766,797.3063 1146.0416,719.2173 C1164.6026,661.8463 1193.4236,667.8833 1201.8356,669.5113 C1219.99635,673.022734 1205.55393,686.021905 1201.60908,689.254731 Z M1346.6178,721.7886 C1347.1748,720.7046 1346.8668,721.0096 1346.5388,721.4816 C1346.4918,721.7846 1346.5008,722.0196 1346.6178,721.7886 Z M1402.1738,684.8433 C1383.8978,684.0303 1370.0768,697.3623 1386.2558,700.3083 C1389.2028,700.8453 1388.2678,695.9133 1388.2678,695.9133 C1388.1668,693.0113 1385.8738,685.2633 1401.5158,685.9273 C1413.5258,686.4373 1414.5488,695.4463 1405.7028,707.7373 C1387.7318,731.0603 1287.1158,766.4353 1267.6018,756.6743 L1267.6598,756.6113 C1267.4508,756.5493 1267.2758,756.4703 1267.0908,756.3953 C1266.0608,755.7893 1265.3028,755.0353 1264.8408,754.1193 C1262.8268,747.5733 1278.4248,732.1163 1284.7148,733.1633 C1292.1068,734.3963 1278.1828,751.2293 1266.9328,749.9163 C1268.4128,753.3663 1286.2438,748.0413 1295.0658,736.6143 C1300.1828,729.9873 1292.1068,728.2363 1283.2358,730.4543 C1272.4958,733.0713 1264.2788,738.2973 1259.0398,743.8693 C1254.0068,747.4373 1247.9068,751.2443 1241.7878,754.5563 C1264.1408,732.6683 1289.1648,690.0983 1292.3908,683.6503 C1296.6028,675.2283 1301.4658,655.8473 1279.0028,662.5943 C1261.4808,667.8583 1252.8348,685.0033 1269.0778,682.4463 C1272.0378,681.9813 1269.5298,677.6343 1269.5298,677.6343 C1268.4758,674.9273 1264.8238,666.0493 1280.3578,664.0983 C1298.2788,661.8463 1286.5248,680.9433 1265.9208,711.3243 C1259.1528,721.3013 1252.0308,730.7013 1245.2588,738.7023 C1243.3898,736.6903 1237.8898,736.3203 1232.2868,737.7193 C1214.2248,742.1223 1203.2808,753.9053 1201.6738,762.3103 C1197.3608,764.2043 1192.9948,765.5293 1190.5008,764.6303 C1188.1778,763.7943 1188.6178,757.0733 1192.3078,746.7063 C1196.3658,743.7423 1242.8448,704.7473 1252.2298,673.4843 C1254.2588,666.7203 1245.8398,669.0583 1240.5648,672.3173 C1216.8798,686.9523 1200.4828,709.4613 1182.0528,743.4643 C1180.4148,746.4863 1179.0788,749.1953 1177.9948,751.6343 C1174.7258,754.4893 1171.2488,757.3283 1167.7718,759.9153 C1167.8158,759.8723 1167.8628,759.8283 1167.9048,759.7873 C1183.2508,744.5983 1169.6128,742.8403 1160.7398,745.0583 C1131.4118,752.2053 1120.8148,778.8213 1138.5588,778.8213 C1148.7078,778.8213 1164.7138,766.0333 1176.5608,755.0823 C1168.3138,776.5333 1183.5388,772.5063 1186.9688,772.1363 C1190.2318,771.7843 1196.0838,768.7763 1201.5368,765.4633 C1201.9908,769.0483 1204.7478,771.4843 1210.1058,771.4843 C1221.7118,771.4843 1242.6168,757.6293 1255.6948,748.0423 C1252.5218,752.8073 1251.5888,757.4193 1253.1828,760.4893 C1253.2428,760.6083 1253.2938,760.7323 1253.3628,760.8463 C1253.3928,760.8993 1253.4338,760.9463 1253.4668,760.9953 C1264.5128,778.4663 1369.1208,747.3633 1405.5518,710.6333 C1417.6388,697.1713 1419.7728,685.5623 1402.1738,684.8433 Z M1235.0778,749.9283 C1225.8438,759.3003 1218.2108,764.5733 1214.4808,763.0273 C1208.1358,759.3723 1226.9738,739.2993 1233.7668,740.4313 C1241.1598,741.6633 1232.2868,749.0573 1229.3298,749.7973 C1229.9958,751.3493 1232.3648,751.0543 1235.0778,749.9283 Z M1156.1968,765.1653 C1156.5868,766.0753 1157.3398,766.3683 1158.2968,766.2573 C1153.2098,769.2203 1148.5878,771.0753 1145.2118,770.9373 C1133.1368,770.4433 1153.4318,746.6923 1162.2188,747.7693 C1172.9418,749.0843 1162.9988,763.2673 1156.1968,765.1653 Z M1239.5498,675.4863 C1253.3138,664.6363 1233.0508,710.9213 1193.3788,743.8443 C1200.0638,726.6463 1214.8158,701.0193 1239.5498,675.4863 Z M1145.1017,790.2017 L1151.7037,783.4337 L1155.1207,783.4337 L1147.4527,791.1137 L1155.1647,800.3957 L1151.7367,800.3957 L1145.6287,792.8497 L1145.1017,793.3767 L1145.1017,800.3957 L1142.5417,800.3957 L1142.5417,783.4337 L1145.1017,783.4337 L1145.1017,790.2017 Z M1165.4672,789.6962 L1167.9502,789.6962 L1167.9502,800.3962 L1165.4672,800.3962 L1165.4672,799.2762 C1164.4492,800.2282 1163.3542,800.7032 1162.1822,800.7032 C1160.7032,800.7032 1159.4802,800.1692 1158.5142,799.1002 C1157.5542,798.0082 1157.0752,796.6462 1157.0752,795.0132 C1157.0752,793.4092 1157.5542,792.0732 1158.5142,791.0032 C1159.4732,789.9342 1160.6742,789.4002 1162.1172,789.4002 C1163.3622,789.4002 1164.4792,789.9132 1165.4672,790.9382 L1165.4672,789.6962 Z M1159.6012,795.0132 C1159.6012,796.0382 1159.8762,796.8732 1160.4252,797.5182 C1160.9892,798.1692 1161.7002,798.4952 1162.5562,798.4952 C1163.4722,798.4952 1164.2112,798.1812 1164.7752,797.5502 C1165.3392,796.8992 1165.6212,796.0722 1165.6212,795.0682 C1165.6212,794.0652 1165.3392,793.2372 1164.7752,792.5852 C1164.2112,791.9482 1163.4792,791.6292 1162.5782,791.6292 C1161.7282,791.6292 1161.0182,791.9512 1160.4472,792.5962 C1159.8832,793.2482 1159.6012,794.0542 1159.6012,795.0132 Z M1174.9796,792.0035 L1174.9796,800.3965 L1172.4966,800.3965 L1172.4966,792.0035 L1171.6176,792.0035 L1171.6176,789.6955 L1172.4966,789.6955 L1172.4966,785.5665 C1172.4966,784.2185 1172.7306,783.2665 1173.1996,782.7095 C1173.8446,781.9335 1174.7816,781.5455 1176.0126,781.5455 C1176.4516,781.5455 1177.0046,781.6735 1177.6706,781.9295 L1177.6706,784.4565 L1177.4176,784.3245 C1176.8836,784.0535 1176.4436,783.9175 1176.1006,783.9175 C1175.6606,783.9175 1175.3636,784.0755 1175.2096,784.3905 C1175.0566,784.6975 1174.9796,785.2915 1174.9796,786.1695 L1174.9796,789.6955 L1177.6706,789.6955 L1177.6706,792.0035 L1174.9796,792.0035 Z M1183.7555,792.0035 L1183.7555,800.3965 L1181.2735,800.3965 L1181.2735,792.0035 L1180.3945,792.0035 L1180.3945,789.6955 L1181.2735,789.6955 L1181.2735,785.5665 C1181.2735,784.2185 1181.5075,783.2665 1181.9765,782.7095 C1182.6205,781.9335 1183.5585,781.5455 1184.7885,781.5455 C1185.2285,781.5455 1185.7805,781.6735 1186.4465,781.9295 L1186.4465,784.4565 L1186.1945,784.3245 C1185.6595,784.0535 1185.2205,783.9175 1184.8765,783.9175 C1184.4375,783.9175 1184.1405,784.0755 1183.9865,784.3905 C1183.8325,784.6975 1183.7555,785.2915 1183.7555,786.1695 L1183.7555,789.6955 L1186.4465,789.6955 L1186.4465,792.0035 L1183.7555,792.0035 Z M1199.3091,795.628 L1191.6411,795.628 C1191.7081,796.507 1191.9931,797.207 1192.4991,797.726 C1193.0031,798.239 1193.6521,798.496 1194.4431,798.496 C1195.0581,798.496 1195.5671,798.349 1195.9701,798.056 C1196.3661,797.763 1196.8161,797.221 1197.3211,796.43 L1199.4091,797.594 C1199.0851,798.144 1198.7461,798.615 1198.3861,799.006 C1198.0281,799.398 1197.6431,799.72 1197.2331,799.973 C1196.8231,800.226 1196.3791,800.411 1195.9041,800.528 C1195.4281,800.645 1194.9121,800.704 1194.3551,800.704 C1192.7581,800.704 1191.4771,800.191 1190.5101,799.166 C1189.5431,798.133 1189.0601,796.763 1189.0601,795.057 C1189.0601,793.366 1189.5291,791.996 1190.4661,790.949 C1191.4111,789.916 1192.6641,789.4 1194.2231,789.4 C1195.7971,789.4 1197.0421,789.901 1197.9581,790.905 C1198.8661,791.901 1199.3211,793.281 1199.3211,795.046 L1199.3091,795.628 Z M1196.7721,793.607 C1196.4271,792.289 1195.5961,791.629 1194.2781,791.629 C1193.9781,791.629 1193.6961,791.675 1193.4321,791.767 C1193.1681,791.859 1192.9281,791.991 1192.7121,792.163 C1192.4971,792.334 1192.3121,792.542 1192.1581,792.783 C1192.0041,793.025 1191.8871,793.299 1191.8061,793.607 L1196.7721,793.607 Z M1203.361,789.6959 L1205.833,789.6959 L1205.833,790.6519 C1206.287,790.1759 1206.69,789.8499 1207.042,789.6749 C1207.4,789.4919 1207.825,789.3999 1208.316,789.3999 C1208.967,789.3999 1209.649,789.6119 1210.359,790.0369 L1209.227,792.2999 C1208.758,791.9639 1208.301,791.7949 1207.854,791.7949 C1206.506,791.7949 1205.833,792.8119 1205.833,794.8479 L1205.833,800.3959 L1203.361,800.3959 L1203.361,789.6959 Z M1212.4238,794.9692 C1212.4238,793.4242 1212.9758,792.1102 1214.0828,791.0262 C1215.1878,789.9422 1216.5358,789.4002 1218.1248,789.4002 C1219.7208,789.4002 1221.0758,789.9452 1222.1888,791.0362 C1223.2878,792.1272 1223.8378,793.4682 1223.8378,795.0572 C1223.8378,796.6602 1223.2838,798.0052 1222.1788,799.0882 C1221.0648,800.1652 1219.6988,800.7032 1218.0808,800.7032 C1216.4768,800.7032 1215.1338,800.1552 1214.0498,799.0562 C1212.9658,797.9722 1212.4238,796.6102 1212.4238,794.9692 Z M1214.9498,795.0132 C1214.9498,796.0822 1215.2358,796.9282 1215.8068,797.5502 C1216.3928,798.1812 1217.1658,798.4952 1218.1248,798.4952 C1219.0918,798.4952 1219.8638,798.1842 1220.4428,797.5622 C1221.0208,796.9392 1221.3098,796.1082 1221.3098,795.0682 C1221.3098,794.0282 1221.0208,793.1972 1220.4428,792.5752 C1219.8568,791.9452 1219.0848,791.6292 1218.1248,791.6292 C1217.1798,791.6292 1216.4148,791.9452 1215.8288,792.5752 C1215.2428,793.2042 1214.9498,794.0172 1214.9498,795.0132 Z M1234.0192,791.5201 L1231.9762,792.6071 C1231.6542,791.9551 1231.2542,791.6291 1230.7792,791.6291 C1230.5512,791.6291 1230.3582,791.7051 1230.1972,791.8551 C1230.0362,792.0041 1229.9552,792.1971 1229.9552,792.4301 C1229.9552,792.8401 1230.4312,793.2461 1231.3832,793.6491 C1232.6942,794.2111 1233.5772,794.7311 1234.0312,795.2061 C1234.4842,795.6821 1234.7112,796.3221 1234.7112,797.1261 C1234.7112,798.1581 1234.3302,799.0211 1233.5692,799.7161 C1232.8302,800.3741 1231.9362,800.7041 1230.8882,800.7041 C1229.0942,800.7041 1227.8242,799.8291 1227.0772,798.0781 L1229.1862,797.1001 C1229.4792,797.6131 1229.7022,797.9391 1229.8562,798.0781 C1230.1562,798.3571 1230.5152,798.4961 1230.9322,798.4961 C1231.7672,798.4961 1232.1852,798.1151 1232.1852,797.3531 C1232.1852,796.9131 1231.8632,796.5031 1231.2182,796.1221 C1230.9692,795.9981 1230.7202,795.8771 1230.4712,795.7601 C1230.2222,795.6431 1229.9692,795.5221 1229.7132,795.3981 C1228.9962,795.0461 1228.4902,794.6951 1228.1972,794.3431 C1227.8242,793.8961 1227.6372,793.3221 1227.6372,792.6191 C1227.6372,791.6881 1227.9552,790.9191 1228.5922,790.3111 C1229.2452,789.7041 1230.0362,789.4001 1230.9652,789.4001 C1232.3342,789.4001 1233.3532,790.1061 1234.0192,791.5201 Z M1240.8287,792.0035 L1240.8287,800.3965 L1238.3567,800.3965 L1238.3567,792.0035 L1237.3027,792.0035 L1237.3027,789.6955 L1238.3567,789.6955 L1238.3567,785.7745 L1240.8287,785.7745 L1240.8287,789.6955 L1242.7517,789.6955 L1242.7517,792.0035 L1240.8287,792.0035 Z M1255.7241,795.628 L1248.0561,795.628 C1248.1231,796.507 1248.4081,797.207 1248.9141,797.726 C1249.4191,798.239 1250.0671,798.496 1250.8581,798.496 C1251.4731,798.496 1251.9821,798.349 1252.3851,798.056 C1252.7811,797.763 1253.2311,797.221 1253.7361,796.43 L1255.8241,797.594 C1255.5011,798.144 1255.1611,798.615 1254.8011,799.006 C1254.4431,799.398 1254.0581,799.72 1253.6481,799.973 C1253.2381,800.226 1252.7951,800.411 1252.3191,800.528 C1251.8431,800.645 1251.3271,800.704 1250.7701,800.704 C1249.1731,800.704 1247.8921,800.191 1246.9251,799.166 C1245.9591,798.133 1245.4751,796.763 1245.4751,795.057 C1245.4751,793.366 1245.9441,791.996 1246.8811,790.949 C1247.8261,789.916 1249.0791,789.4 1250.6381,789.4 C1252.2121,789.4 1253.4581,789.901 1254.3741,790.905 C1255.2811,791.901 1255.7361,793.281 1255.7361,795.046 L1255.7241,795.628 Z M1253.1871,793.607 C1252.8421,792.289 1252.0111,791.629 1250.6931,791.629 C1250.3931,791.629 1250.1111,791.675 1249.8471,791.767 C1249.5841,791.859 1249.3431,791.991 1249.1271,792.163 C1248.9121,792.334 1248.7271,792.542 1248.5731,792.783 C1248.4201,793.025 1248.3021,793.299 1248.2211,793.607 L1253.1871,793.607 Z M1259.776,789.6959 L1262.248,789.6959 L1262.248,790.6519 C1262.702,790.1759 1263.105,789.8499 1263.457,789.6749 C1263.815,789.4919 1264.24,789.3999 1264.731,789.3999 C1265.383,789.3999 1266.064,789.6119 1266.774,790.0369 L1265.642,792.2999 C1265.173,791.9639 1264.716,791.7949 1264.269,791.7949 C1262.922,791.7949 1262.248,792.8119 1262.248,794.8479 L1262.248,800.3959 L1259.776,800.3959 L1259.776,789.6959 Z M1269.88,800.396 L1272.352,800.396 L1272.352,789.696 L1269.88,789.696 L1269.88,800.396 Z M1269.508,785.248 C1269.508,784.815 1269.665,784.442 1269.98,784.127 C1270.295,783.812 1270.672,783.654 1271.111,783.654 C1271.558,783.654 1271.939,783.812 1272.254,784.127 C1272.569,784.434 1272.726,784.811 1272.726,785.258 C1272.726,785.705 1272.569,786.086 1272.254,786.401 C1271.946,786.715 1271.569,786.873 1271.123,786.873 C1270.675,786.873 1270.295,786.715 1269.98,786.401 C1269.665,786.086 1269.508,785.702 1269.508,785.248 Z" id="Combined-Shape" stroke="none" fill="#000000" fill-rule="evenodd"></path>
</svg>
