<?xml version="1.0" standalone="no"?>
<!DOCTYPE svg PUBLIC "-//W3C//DTD SVG 20010904//EN"
 "http://www.w3.org/TR/2001/REC-SVG-20010904/DTD/svg10.dtd">
<svg version="1.0" xmlns="http://www.w3.org/2000/svg"
 width="1233.000000pt" height="1233.000000pt" viewBox="0 0 1233.000000 1233.000000"
 preserveAspectRatio="xMidYMid meet">

<g transform="translate(0.000000,1233.000000) scale(0.100000,-0.100000)"
fill="#000000" stroke="none">
<path d="M5334 11301 c-23 -4 -58 -19 -77 -34 -33 -25 -77 -77 -77 -91 0 -4
41 -53 91 -109 146 -165 196 -237 266 -389 36 -77 102 -204 148 -281 59 -97
88 -156 96 -196 7 -33 47 -126 99 -226 89 -175 126 -267 136 -345 5 -45 4 -46
-96 -179 -116 -155 -209 -268 -475 -581 -291 -341 -366 -437 -505 -645 -153
-227 -176 -254 -220 -269 -25 -8 -46 -30 -85 -86 -28 -41 -125 -172 -216 -290
-91 -118 -205 -267 -252 -330 -48 -63 -107 -139 -131 -169 -24 -29 -60 -83
-80 -120 -33 -60 -95 -145 -372 -509 -93 -121 -126 -187 -145 -286 -22 -117
-5 -158 79 -194 44 -19 53 -20 103 -8 116 27 179 84 416 381 110 138 291 358
403 490 111 132 241 291 288 354 l87 113 6 -32 c4 -18 12 -186 18 -374 11
-311 33 -778 49 -1031 7 -96 8 -100 35 -113 43 -21 187 -45 235 -39 24 3 50
11 58 19 43 43 42 467 -2 898 -42 417 -37 748 14 935 10 36 40 42 123 25 49
-11 68 -10 145 8 115 27 252 46 554 77 284 30 274 29 699 95 l324 51 26 -24
c14 -12 37 -29 51 -36 30 -14 171 -221 223 -326 69 -138 67 -124 77 -449 5
-166 14 -353 20 -417 7 -64 10 -242 8 -401 -3 -324 1 -309 -89 -347 -27 -12
-116 -33 -197 -46 -81 -14 -235 -43 -342 -65 -334 -67 -425 -75 -850 -75 -410
1 -576 14 -995 77 -357 53 -401 50 -444 -36 -31 -62 -38 -133 -17 -174 18 -34
69 -57 203 -91 187 -47 701 -132 908 -151 153 -14 651 -14 831 0 325 25 463
48 933 154 323 73 363 87 384 130 59 125 83 588 46 906 -6 47 -21 124 -35 172
-44 152 -32 155 71 16 100 -135 246 -308 540 -643 233 -264 352 -412 473 -583
232 -331 347 -474 434 -542 40 -32 58 -40 92 -40 72 0 76 11 76 201 0 112 -5
181 -15 219 -36 136 -118 251 -547 765 -155 187 -320 388 -365 446 -45 59
-111 130 -145 159 -35 29 -73 65 -86 79 -50 56 -144 205 -255 404 -148 266
-146 261 -157 642 -10 339 -21 400 -90 479 -45 50 -96 64 -146 40 -75 -38 -79
-50 -79 -274 0 -110 -3 -196 -6 -192 -3 4 -20 42 -37 84 -17 43 -50 103 -75
135 -94 123 -154 228 -294 513 -80 162 -169 332 -199 378 -30 46 -73 120 -96
165 -22 45 -84 145 -138 222 -130 188 -131 189 -123 270 5 54 13 77 43 123 73
112 321 378 575 616 77 72 158 156 181 187 23 30 78 92 122 137 97 97 172 230
172 306 0 52 -9 60 -78 75 -115 24 -103 30 -310 -168 -103 -98 -368 -358 -590
-578 l-402 -400 -36 49 c-20 26 -58 101 -85 166 -62 146 -136 285 -304 572
-73 124 -158 272 -190 330 -72 132 -108 184 -162 237 -74 71 -158 100 -249 84z
m978 -2148 c25 -38 91 -126 146 -196 56 -70 127 -169 158 -220 31 -51 92 -144
134 -207 91 -134 100 -152 139 -259 16 -44 39 -95 51 -112 12 -16 21 -32 19
-33 -2 -2 -40 3 -84 11 -52 9 -117 13 -185 9 -158 -7 -769 -82 -900 -110 -252
-54 -493 -84 -518 -64 -7 6 -11 17 -8 24 8 20 282 377 460 598 208 259 522
624 537 626 3 0 26 -30 51 -67z"/>
<path d="M10450 3125 l0 -925 111 0 110 0 -4 618 c-3 418 -8 641 -16 691 -7
40 -11 75 -9 77 2 2 84 -295 183 -659 98 -364 182 -677 187 -694 l9 -33 134 0
135 0 0 925 0 925 -110 0 -110 0 0 -547 c0 -484 7 -693 25 -813 14 -91 -25 44
-195 678 l-184 682 -133 0 -133 0 0 -925z"/>
<path d="M7725 4028 c-3 -7 -63 -411 -135 -898 -72 -487 -133 -900 -136 -917
l-6 -33 121 0 c117 0 121 1 126 23 4 18 55 437 55 452 0 3 61 5 135 5 l134 0
6 -32 c6 -40 55 -418 55 -430 0 -4 54 -8 120 -8 98 0 120 3 120 14 0 17 -267
1765 -276 1809 l-6 27 -154 0 c-115 0 -156 -3 -159 -12z m220 -808 c19 -157
38 -302 41 -322 l6 -38 -107 0 -106 0 6 43 c12 89 74 635 80 707 14 181 18
185 32 35 7 -77 28 -268 48 -425z"/>
<path d="M8950 3627 c0 -227 3 -644 7 -925 l6 -512 119 0 118 0 0 410 0 410
75 0 c95 0 147 -20 177 -69 22 -35 23 -46 29 -361 4 -227 9 -335 18 -357 l13
-33 120 0 121 0 -7 33 c-22 101 -26 167 -26 408 0 213 -3 276 -16 320 -21 72
-49 115 -94 148 l-38 27 34 23 c42 29 90 103 103 161 16 68 13 372 -3 451 -27
124 -83 200 -185 248 -55 26 -60 26 -313 29 l-258 3 0 -414z m450 175 c66 -36
75 -72 75 -287 0 -172 -2 -194 -21 -229 -30 -58 -71 -76 -176 -76 l-88 0 0
305 0 305 88 0 c66 0 96 -5 122 -18z"/>
<path d="M6090 3104 l0 -925 258 3 c296 5 319 10 407 90 97 88 119 182 113
476 -6 231 -15 269 -87 342 -25 26 -53 49 -61 52 -10 3 -2 15 27 41 22 21 51
61 64 90 23 49 24 62 24 262 0 176 -3 218 -18 261 -41 118 -116 188 -232 219
-45 11 -113 15 -277 15 l-218 0 0 -926z m442 682 c51 -33 62 -76 66 -245 4
-181 -5 -227 -55 -271 -32 -29 -38 -30 -128 -30 l-95 0 0 286 0 286 93 -4 c66
-3 100 -9 119 -22z m24 -775 c61 -37 69 -72 69 -301 0 -178 -2 -209 -18 -238
-31 -57 -68 -72 -179 -72 l-97 0 -3 315 -3 315 100 0 c80 0 106 -4 131 -19z"/>
<path d="M3028 4014 c-4 -3 -4 -179 -1 -390 l6 -384 -161 0 -162 0 0 385 0
385 -120 0 -120 0 0 -925 0 -926 120 3 121 3 -1 421 0 422 132 7 c73 4 144 5
158 4 l25 -4 3 -427 2 -428 120 0 120 0 0 853 c0 470 -3 888 -6 930 l-7 77
-112 0 c-61 0 -114 -3 -117 -6z"/>
<path d="M4023 3673 c4 -190 7 -607 7 -925 l0 -578 300 0 300 0 0 110 0 110
-180 0 -180 0 0 310 0 310 155 0 155 0 0 115 0 115 -154 0 -153 0 -6 273 c-3
149 -3 275 0 280 2 4 83 7 179 7 l174 0 0 110 0 110 -302 0 -301 0 6 -347z"/>
<path d="M1062 3898 l3 -113 133 -3 132 -3 0 -809 0 -810 120 0 120 0 0 815 0
815 130 0 130 0 0 110 0 110 -385 0 -386 0 3 -112z"/>
<path d="M3203 1538 c-45 -22 -53 -62 -53 -265 0 -222 8 -249 76 -271 87 -27
154 27 154 126 0 41 0 42 -35 42 -33 0 -35 -2 -35 -36 0 -48 -16 -74 -45 -74
-41 0 -46 26 -43 226 2 151 6 186 18 194 37 23 61 4 67 -54 5 -45 7 -46 39
-46 33 0 34 1 34 41 0 52 -24 103 -56 118 -31 14 -91 13 -121 -1z"/>
<path d="M3515 1528 c-37 -32 -45 -80 -44 -263 0 -176 9 -217 51 -248 34 -25
105 -26 142 -2 41 27 48 71 44 283 l-3 194 -33 29 c-43 38 -117 41 -157 7z
m109 -60 c13 -18 16 -55 16 -196 0 -100 -4 -181 -10 -193 -12 -21 -50 -25 -68
-7 -17 17 -17 389 0 406 19 19 45 14 62 -10z"/>
<path d="M3817 1543 c-4 -3 -7 -127 -7 -275 l0 -269 38 3 37 3 3 118 3 117 44
0 c43 0 45 1 45 30 0 29 -2 30 -45 30 l-45 0 0 90 0 90 50 0 50 0 0 35 0 35
-83 0 c-46 0 -87 -3 -90 -7z"/>
<path d="M4085 1537 c-3 -7 -4 -129 -3 -272 l3 -260 38 -3 37 -3 0 120 0 121
45 0 c43 0 45 1 45 30 0 29 -2 30 -45 30 l-45 0 0 90 0 90 50 0 50 0 0 35 0
35 -85 0 c-60 0 -87 -4 -90 -13z"/>
<path d="M4360 1275 l0 -275 85 0 85 0 0 30 c0 29 -1 30 -50 30 l-50 0 0 95 0
95 45 0 c45 0 45 0 45 35 0 35 0 35 -45 35 l-45 0 0 80 0 80 50 0 50 0 0 35 0
35 -85 0 -85 0 0 -275z"/>
<path d="M4630 1275 l0 -275 90 0 90 0 0 29 c0 29 -2 30 -52 33 l-53 3 -3 93
-3 92 51 0 51 0 -3 33 c-3 31 -5 32 -50 35 l-48 3 0 80 0 79 55 0 55 0 0 35 0
35 -90 0 -90 0 0 -275z"/>
<path d="M5080 1275 l0 -275 35 0 35 0 0 120 0 120 35 0 c46 0 55 -23 55 -146
l0 -94 35 0 35 0 0 103 c0 77 -4 111 -18 137 -16 33 -16 37 1 70 20 39 22 118
4 170 -17 48 -63 70 -149 70 l-68 0 0 -275z m151 178 c13 -34 7 -117 -11 -138
-7 -8 -25 -15 -41 -15 l-29 0 0 90 0 90 35 0 c29 0 37 -5 46 -27z"/>
<path d="M5457 1539 c-41 -24 -47 -58 -47 -272 0 -191 1 -206 21 -230 40 -52
141 -55 185 -6 17 19 19 41 22 227 3 225 -2 253 -49 277 -32 17 -106 19 -132
4z m97 -65 c13 -13 16 -46 16 -203 0 -196 -3 -211 -45 -211 -42 0 -45 15 -45
208 0 107 4 191 10 203 13 23 43 25 64 3z"/>
<path d="M5805 1538 c-2 -7 -20 -121 -40 -253 -19 -132 -38 -250 -40 -262 -5
-20 -1 -23 30 -23 38 0 38 1 50 93 l6 47 39 0 c43 0 43 1 55 -92 6 -47 7 -48
41 -48 19 0 34 3 34 8 0 4 -18 125 -40 270 -22 144 -40 264 -40 267 0 11 -91
4 -95 -7z m74 -315 c1 -19 -4 -23 -29 -23 -16 0 -30 1 -30 3 0 4 30 241 31
247 2 7 28 -200 28 -227z"/>
<path d="M6113 1538 c-35 -17 -56 -73 -51 -134 5 -56 5 -56 106 -174 45 -53
52 -67 52 -104 0 -46 -13 -66 -45 -66 -32 0 -45 20 -45 67 0 42 0 43 -35 43
l-35 0 0 -56 c0 -48 4 -59 29 -85 28 -28 52 -34 111 -29 59 5 90 49 90 130 0
64 -7 76 -92 173 -59 67 -68 82 -68 116 0 43 20 71 50 71 25 0 40 -29 40 -74
0 -34 2 -36 35 -36 35 0 35 0 35 45 0 52 -21 99 -49 115 -25 13 -99 12 -128
-2z"/>
<path d="M6370 1515 c0 -34 1 -35 40 -35 l40 0 0 -240 0 -240 35 0 35 0 0 240
0 240 40 0 c39 0 40 1 40 35 l0 35 -115 0 -115 0 0 -35z"/>
<path d="M6690 1275 l0 -275 90 0 90 0 0 29 c0 29 -2 30 -52 33 l-53 3 -3 93
-3 92 51 0 51 0 -3 33 c-3 31 -5 32 -50 35 l-48 3 0 80 0 79 55 0 55 0 0 35 0
35 -90 0 -90 0 0 -275z"/>
<path d="M6970 1275 l0 -275 35 0 35 0 0 120 0 120 28 0 c44 0 52 -16 52 -110
0 -119 4 -130 47 -130 36 0 36 0 29 38 -3 20 -6 74 -6 120 0 67 -3 85 -19 101
-19 19 -19 20 0 37 16 14 19 31 19 96 0 130 -29 158 -162 158 l-58 0 0 -275z
m138 193 c7 -7 12 -40 12 -78 0 -73 -10 -90 -52 -90 l-28 0 0 90 0 90 28 0
c15 0 33 -5 40 -12z"/>
<path d="M7341 1534 c-26 -18 -51 -71 -51 -106 0 -55 23 -99 90 -173 78 -85
94 -127 66 -170 -20 -30 -61 -33 -76 -6 -5 11 -10 36 -10 55 0 34 -2 36 -35
36 -35 0 -35 0 -35 -45 0 -53 21 -99 51 -116 35 -18 107 -15 137 8 35 26 55
84 46 141 -7 45 -23 69 -105 158 -56 60 -71 110 -45 149 33 50 76 25 76 -42 0
-42 0 -43 35 -43 l35 0 0 56 c0 48 -4 59 -29 85 -25 24 -38 29 -78 29 -29 0
-58 -7 -72 -16z"/>
<path d="M7770 1275 l0 -275 69 0 c133 0 161 27 161 158 0 66 -4 84 -21 106
-20 25 -20 28 -5 45 19 21 23 160 5 193 -16 30 -70 48 -144 48 l-65 0 0 -275z
m138 193 c7 -7 12 -39 12 -75 0 -66 -12 -83 -59 -83 -20 0 -21 6 -21 85 l0 85
28 0 c15 0 33 -5 40 -12z m11 -232 c7 -9 11 -41 9 -82 -3 -62 -6 -70 -29 -83
-49 -27 -59 -12 -59 89 l0 90 34 0 c18 0 39 -6 45 -14z"/>
<path d="M8110 1275 l0 -275 85 0 85 0 0 30 c0 29 -1 30 -50 30 l-50 0 0 95 0
95 45 0 c45 0 45 0 45 35 0 35 0 35 -45 35 l-45 0 0 80 0 80 50 0 50 0 0 35 0
35 -85 0 -85 0 0 -275z"/>
<path d="M8380 1275 l0 -275 35 0 35 0 0 120 0 120 35 0 c46 0 55 -23 55 -146
l0 -94 35 0 35 0 0 103 c0 83 -4 110 -20 142 -18 36 -19 40 -3 57 22 25 28
121 11 173 -18 54 -60 75 -150 75 l-68 0 0 -275z m151 178 c13 -34 7 -117 -11
-138 -7 -8 -25 -15 -41 -15 l-29 0 0 90 0 90 35 0 c29 0 37 -5 46 -27z"/>
<path d="M8720 1275 l0 -275 90 0 90 0 0 30 c0 30 -1 30 -55 30 l-55 0 0 245
0 245 -35 0 -35 0 0 -275z"/>
<path d="M8980 1275 l0 -275 35 0 35 0 0 275 0 275 -35 0 -35 0 0 -275z"/>
<path d="M9170 1276 l0 -276 36 0 36 0 -4 194 c-1 107 -2 194 -1 193 2 -3 103
-376 103 -382 0 -3 18 -5 40 -5 l40 0 0 275 0 275 -30 0 -30 0 -2 -192 -3
-193 -51 190 -50 190 -42 3 -42 3 0 -275z"/>
</g>
</svg>
